{"glyphs":{"0":{"ha":1049,"x_min":0,"x_max":0,"o":"m 1025 488 b 892 872 1025 596 1011 757 b 525 996 781 979 633 996 b 158 872 417 996 269 979 b 25 488 39 757 25 596 b 158 104 25 381 40 219 b 525 -19 269 -3 417 -19 b 892 104 633 -19 781 -3 b 1025 488 1010 219 1025 381 z m 525 807 b 661 760 569 807 613 804 b 750 488 729 697 750 593 b 661 215 750 383 729 278 b 525 168 615 172 569 168 b 389 215 479 168 432 176 b 300 488 329 269 300 364 b 389 760 300 593 321 697 b 525 807 438 804 481 807 z "},"1":{"ha":1049,"x_min":0,"x_max":0,"o":"m 238 686 l 432 686 l 432 0 l 688 0 l 688 972 l 494 972 b 418 849 482 910 447 869 b 246 803 379 821 308 803 l 238 803 z "},"2":{"ha":1049,"x_min":0,"x_max":0,"o":"m 954 197 l 418 197 b 474 264 429 232 447 247 b 636 349 506 285 546 306 l 722 389 b 897 486 783 418 849 443 b 971 674 954 540 971 603 b 847 918 971 772 940 853 b 531 996 751 985 626 996 b 206 911 453 996 307 990 b 89 651 147 864 89 786 l 89 646 l 342 646 l 342 656 b 389 765 342 717 372 750 b 526 804 428 799 483 804 b 654 778 592 804 631 793 b 713 674 683 761 713 731 b 661 572 713 631 693 599 b 514 493 624 540 575 522 l 406 440 b 194 308 326 401 251 363 b 79 7 90 213 79 103 l 79 0 l 954 0 z "},"3":{"ha":1049,"x_min":0,"x_max":0,"o":"m 56 324 l 56 319 b 139 81 56 249 68 157 b 528 -22 232 -17 383 -22 b 897 82 689 -22 813 -7 b 971 283 942 128 971 194 b 911 438 971 343 954 394 b 771 503 879 469 831 496 l 771 510 b 886 563 836 517 875 551 b 936 697 925 601 936 649 b 804 929 936 775 908 867 b 493 993 756 958 665 993 b 174 913 397 993 263 982 b 61 667 131 881 61 801 l 61 663 l 311 663 b 363 767 311 722 342 751 b 494 801 394 790 444 801 b 622 778 532 801 590 794 b 681 689 667 756 681 721 b 649 615 681 658 669 633 b 468 581 615 586 557 581 l 414 581 l 414 408 l 467 408 b 633 393 532 408 589 410 b 704 299 676 376 704 349 b 647 196 704 250 679 214 b 503 169 608 174 543 169 b 356 204 467 169 397 174 b 306 318 308 240 306 292 l 306 324 z "},"4":{"ha":1049,"x_min":0,"x_max":0,"o":"m 263 390 l 586 743 l 586 390 z m 586 210 l 586 0 l 839 0 l 839 210 l 1003 210 l 1003 390 l 839 390 l 839 972 l 594 972 l 42 388 l 42 210 z "},"5":{"ha":1049,"x_min":0,"x_max":0,"o":"m 82 286 l 82 282 b 207 38 82 144 153 71 b 533 -24 292 -17 411 -24 b 868 72 624 -24 769 -24 b 965 326 924 126 965 204 b 876 574 965 454 921 529 b 558 674 788 660 653 674 b 401 651 501 674 451 669 b 301 589 361 636 328 615 l 332 783 l 893 783 l 893 972 l 164 972 l 88 415 l 343 415 b 401 482 358 453 381 471 b 513 504 414 489 446 504 b 663 458 592 504 636 482 b 710 336 686 438 710 401 b 658 200 710 265 685 222 b 517 157 615 160 549 157 b 379 190 474 157 417 164 b 326 286 358 206 331 236 z "},"6":{"ha":1049,"x_min":0,"x_max":0,"o":"m 524 507 b 675 461 589 507 639 492 b 729 331 704 435 729 393 b 675 200 729 268 704 226 b 524 154 640 169 589 154 b 376 200 479 154 421 161 b 322 329 349 226 322 269 b 379 463 322 383 344 431 b 524 507 422 500 479 507 z m 979 715 b 851 938 979 774 968 869 b 549 994 796 969 708 994 b 189 864 436 994 296 982 b 64 449 71 735 64 549 b 183 89 64 338 76 196 b 538 -24 292 -19 418 -24 b 863 61 636 -24 758 -21 b 982 325 928 113 982 196 b 867 579 982 429 950 514 b 571 660 774 650 656 660 b 304 560 426 660 354 619 b 381 764 304 596 314 704 b 550 817 429 807 494 817 b 674 794 621 817 656 804 b 729 715 711 774 725 747 z "},"7":{"ha":1049,"x_min":0,"x_max":0,"o":"m 100 783 l 682 783 b 419 457 561 676 475 558 b 281 0 379 388 307 232 l 554 0 b 660 435 564 161 604 317 b 943 813 704 535 799 683 l 943 972 l 100 972 z "},"8":{"ha":1049,"x_min":0,"x_max":0,"o":"m 522 -24 b 864 36 657 -24 775 -18 b 994 274 938 81 994 153 b 931 443 994 336 979 394 b 781 518 890 483 832 508 b 901 572 824 524 869 543 b 956 713 950 617 956 674 b 814 944 956 849 874 915 b 522 994 794 956 710 994 b 232 944 338 994 250 956 b 90 713 169 915 90 849 b 144 572 90 674 96 617 b 265 518 176 543 222 524 b 115 443 214 508 156 483 b 51 274 67 394 51 336 b 182 36 51 153 108 81 b 522 -24 271 -18 389 -24 z m 524 419 b 668 397 579 419 625 415 b 738 299 708 379 738 353 b 681 192 738 264 725 224 b 524 157 631 157 572 157 b 367 192 475 157 417 157 b 310 299 322 224 310 264 b 379 397 310 353 339 379 b 524 419 422 415 468 419 z m 519 817 b 651 793 551 817 608 814 b 715 699 694 772 715 740 b 663 608 715 667 706 632 b 522 583 629 588 583 583 b 383 608 460 583 417 588 b 331 699 340 632 331 667 b 394 793 331 740 351 772 b 519 817 418 804 454 817 z "},"9":{"ha":1049,"x_min":0,"x_max":0,"o":"m 522 464 b 371 510 457 464 406 479 b 317 639 342 536 317 579 b 371 771 317 704 343 744 b 522 817 422 815 500 817 b 674 771 588 817 639 801 b 725 644 718 733 725 685 b 671 510 725 607 719 553 b 522 464 644 486 600 464 z m 89 256 b 217 33 93 138 161 67 b 513 -24 276 -1 358 -24 b 842 75 625 -24 744 -15 b 982 522 910 139 982 269 b 863 882 982 635 965 775 b 507 994 754 986 625 994 b 183 910 410 994 288 992 b 64 646 118 858 64 775 b 179 392 64 542 96 457 b 476 311 272 318 392 311 b 742 411 619 311 692 351 b 667 200 738 332 714 244 b 513 154 618 156 544 154 b 388 176 429 154 393 172 b 333 256 344 199 335 229 z "},"\u0000":{"ha":0,"x_min":0,"x_max":0,"o":""},"\r":{"ha":324,"x_min":0,"x_max":0,"o":""}," ":{"ha":324,"x_min":0,"x_max":0,"o":""},"!":{"ha":565,"x_min":0,"x_max":0,"o":"m 154 0 l 410 0 l 410 208 l 154 208 z m 347 329 l 418 674 l 418 986 l 147 986 l 147 674 l 217 329 z "},"\"":{"ha":756,"x_min":0,"x_max":0,"o":"m 686 972 l 418 972 l 494 693 l 611 693 z m 339 972 l 69 972 l 146 693 l 263 693 z "},"#":{"ha":1049,"x_min":0,"x_max":0,"o":"m 622 372 l 379 372 l 429 617 l 674 617 z m 681 29 l 722 247 l 936 247 l 964 372 l 749 372 l 799 617 l 1011 617 l 1035 742 l 821 742 l 860 944 l 735 944 l 694 742 l 453 742 l 492 944 l 367 944 l 326 742 l 114 742 l 88 617 l 303 617 l 253 372 l 40 372 l 15 247 l 229 247 l 186 29 l 311 29 l 354 247 l 596 247 l 556 29 z "},"$":{"ha":1049,"x_min":0,"x_max":0,"o":"m 481 611 b 375 642 449 615 399 626 b 329 721 336 665 329 699 b 375 803 329 758 349 788 b 474 822 399 818 447 822 l 481 822 z m 579 407 b 678 374 608 401 651 389 b 729 286 713 353 729 324 b 685 199 729 249 711 219 b 579 169 656 176 617 165 z m 56 315 l 56 310 b 167 56 56 231 69 133 b 465 -25 257 -11 371 -25 l 478 -25 l 478 -142 l 583 -142 l 583 -25 b 913 74 756 -29 853 14 b 993 279 956 117 993 185 b 919 463 993 357 968 414 b 578 594 838 544 685 579 l 578 822 b 661 801 604 822 638 817 b 703 717 682 789 707 763 l 956 717 l 956 721 b 833 946 956 789 938 882 b 583 1000 765 983 658 1004 l 583 1104 l 478 1104 l 478 1000 l 469 1000 b 158 906 371 1000 247 988 b 82 718 107 857 82 794 b 147 544 82 629 115 576 b 479 421 228 464 428 428 l 479 169 b 358 206 439 165 388 179 b 317 315 332 229 313 269 z "},"%":{"ha":1522,"x_min":0,"x_max":0,"o":"m 1144 404 b 1236 368 1174 404 1207 401 b 1272 254 1263 339 1272 297 b 1236 140 1272 211 1263 169 b 1144 104 1207 107 1174 104 b 1053 140 1115 104 1082 107 b 1017 254 1026 169 1017 211 b 1053 368 1017 297 1026 339 b 1144 404 1082 401 1115 404 z m 1447 254 b 1360 468 1447 369 1400 435 b 1144 532 1294 522 1211 532 b 929 468 1078 532 996 525 b 842 254 878 424 842 356 b 929 40 842 153 878 85 b 1144 -24 996 -17 1074 -24 b 1360 40 1215 -24 1293 -17 b 1447 254 1411 85 1447 153 z m 378 868 b 469 832 407 868 440 865 b 506 718 496 803 506 761 b 469 604 506 675 496 633 b 378 568 440 571 407 568 b 286 604 349 568 315 571 b 250 718 260 633 250 675 b 286 832 250 761 260 803 b 378 868 315 865 349 868 z m 681 718 b 593 932 681 833 633 899 b 378 996 528 986 444 996 b 163 932 311 996 229 989 b 75 718 111 888 75 819 b 163 504 75 617 111 549 b 378 440 229 447 307 440 b 593 504 449 440 526 447 b 681 718 644 549 681 617 z m 301 0 l 439 0 l 1233 985 l 1100 985 z "},"&":{"ha":1147,"x_min":0,"x_max":0,"o":"m 556 636 b 503 690 539 651 515 675 b 475 753 499 696 475 725 b 506 818 475 779 489 806 b 585 839 526 833 557 839 b 657 819 611 839 636 835 b 689 757 674 807 689 786 b 646 683 689 719 667 699 b 556 636 619 665 582 646 z m 686 224 b 611 171 674 208 649 186 b 508 153 574 156 540 153 b 382 189 476 153 421 156 b 339 285 356 211 339 246 b 383 385 339 322 350 356 b 485 440 406 406 447 428 z m 860 463 b 818 368 851 426 838 394 l 665 525 b 806 607 714 543 771 574 b 872 760 854 651 872 703 b 781 933 872 811 854 883 b 574 983 726 971 650 983 b 354 926 492 983 408 965 b 267 751 299 888 267 824 b 365 564 267 706 283 642 b 179 461 303 546 228 507 b 100 268 126 410 100 344 b 200 51 100 168 140 100 b 481 -25 285 -15 390 -25 b 676 1 582 -25 639 -14 b 808 89 721 18 769 50 l 886 0 l 1147 0 l 940 229 b 1056 463 1019 308 1044 404 z "},"'":{"ha":408,"x_min":0,"x_max":0,"o":"m 339 972 l 69 972 l 146 693 l 263 693 z "},"(":{"ha":631,"x_min":0,"x_max":0,"o":"m 318 1028 b 174 757 272 951 211 843 b 97 397 119 628 97 508 b 165 61 97 292 117 178 b 318 -226 200 -28 263 -139 l 514 -226 b 396 72 474 -142 421 -8 b 339 404 369 151 339 272 b 397 736 339 531 365 646 b 514 1028 419 808 476 943 z "},")":{"ha":631,"x_min":0,"x_max":0,"o":"m 97 1028 b 214 736 135 943 192 808 b 272 404 246 646 272 531 b 215 72 272 272 242 151 b 97 -226 189 -8 135 -140 l 293 -226 b 446 61 349 -139 411 -28 b 514 397 494 178 514 292 b 438 757 514 508 492 628 b 293 1028 400 843 339 951 z "},"*":{"ha":738,"x_min":0,"x_max":0,"o":"m 369 751 l 483 597 l 579 671 l 469 821 l 646 879 l 607 993 l 431 933 l 431 1121 l 310 1121 l 310 933 l 132 994 l 92 879 l 269 821 l 158 669 l 254 596 z "},"+":{"ha":890,"x_min":0,"x_max":0,"o":"m 69 553 l 69 418 l 378 418 l 378 110 l 513 110 l 513 418 l 821 418 l 821 553 l 513 553 l 513 861 l 378 861 l 378 553 z "},",":{"ha":550,"x_min":0,"x_max":0,"o":"m 147 0 l 282 0 b 250 -100 286 -37 272 -78 b 156 -132 231 -121 199 -132 l 147 -132 l 147 -240 l 151 -240 b 343 -178 233 -240 294 -226 b 403 21 399 -118 403 -40 l 403 228 l 147 228 z "},"-":{"ha":790,"x_min":0,"x_max":0,"o":"m 111 321 l 679 321 l 679 494 l 111 494 z "},".":{"ha":550,"x_min":0,"x_max":0,"o":"m 147 0 l 403 0 l 403 228 l 147 228 z "},"/":{"ha":739,"x_min":0,"x_max":0,"o":"m 0 -257 l 136 -257 l 739 972 l 603 972 z "},":":{"ha":550,"x_min":0,"x_max":0,"o":"m 147 0 l 403 0 l 403 228 l 147 228 z m 147 478 l 403 478 l 403 706 l 147 706 z "},";":{"ha":558,"x_min":0,"x_max":0,"o":"m 147 0 l 282 0 b 250 -100 286 -37 272 -78 b 156 -132 231 -121 199 -132 l 147 -132 l 147 -240 l 151 -240 b 343 -178 233 -240 294 -226 b 403 21 399 -118 403 -40 l 403 228 l 147 228 z m 147 478 l 403 478 l 403 706 l 147 706 z "},"<":{"ha":943,"x_min":0,"x_max":0,"o":"m 189 489 l 825 851 l 779 942 l 83 543 l 83 435 l 779 36 l 826 125 z "},"=":{"ha":874,"x_min":0,"x_max":0,"o":"m 69 393 l 69 258 l 804 258 l 804 393 z m 69 675 l 69 540 l 804 540 l 804 675 z "},">":{"ha":943,"x_min":0,"x_max":0,"o":"m 721 489 l 83 125 l 131 36 l 826 435 l 826 543 l 131 942 l 85 851 z "},"?":{"ha":974,"x_min":0,"x_max":0,"o":"m 318 664 l 318 669 b 364 779 318 704 324 747 b 482 810 396 806 444 810 b 589 788 521 810 561 803 b 639 711 624 769 639 743 b 610 636 639 682 629 657 b 539 585 597 624 582 613 l 499 558 b 407 474 467 538 433 517 b 372 331 375 425 372 375 l 372 313 l 581 313 l 581 326 b 618 425 581 369 597 403 b 729 497 646 457 685 471 l 790 532 b 900 711 840 558 900 604 b 779 929 900 808 860 881 b 490 989 739 956 654 989 b 192 918 347 989 254 963 b 74 675 85 840 74 732 l 74 664 z m 342 0 l 597 0 l 597 206 l 342 206 z "},"@":{"ha":1471,"x_min":0,"x_max":0,"o":"m 726 640 b 825 606 760 640 799 629 b 869 479 832 599 869 561 b 825 356 869 425 854 383 b 726 321 793 324 754 321 b 628 354 697 321 660 325 b 582 478 604 376 582 415 b 629 607 582 526 597 578 b 726 640 653 629 693 640 z m 1019 101 b 733 35 921 46 840 35 b 321 185 624 35 454 47 b 204 478 247 263 204 350 b 326 788 204 631 267 728 b 749 932 446 907 606 932 b 1158 788 847 932 1038 919 b 1267 513 1225 715 1267 614 b 1207 339 1267 394 1215 343 b 1129 311 1190 324 1167 311 b 1081 329 1114 311 1096 314 b 1061 400 1063 350 1061 385 l 1061 746 l 875 746 l 875 689 l 868 689 b 688 763 836 732 792 763 b 461 683 619 763 531 753 b 383 479 418 640 383 578 b 457 278 383 375 422 313 b 690 199 525 210 615 199 b 919 285 819 199 879 240 b 979 224 936 251 961 233 b 1097 200 1000 213 1035 200 b 1300 274 1153 200 1236 210 b 1388 521 1349 322 1388 399 b 1250 858 1388 654 1351 758 b 757 1032 1108 996 931 1032 b 231 847 465 1032 308 929 b 83 476 131 743 83 610 b 232 104 83 338 133 203 b 728 -65 314 25 460 -65 b 1068 14 861 -65 958 -46 z "},"A":{"ha":1097,"x_min":0,"x_max":0,"o":"m 401 364 l 549 728 l 699 364 z m 339 197 l 760 197 l 844 0 l 1111 0 l 675 972 l 424 972 l -12 0 l 254 0 z "},"B":{"ha":1143,"x_min":0,"x_max":0,"o":"m 360 411 l 628 411 b 749 390 653 411 717 408 b 797 296 771 378 797 350 b 749 201 797 246 772 217 b 632 181 744 197 714 181 l 360 181 z m 360 792 l 603 792 b 719 771 647 792 690 792 b 758 693 740 756 758 733 b 726 615 758 653 742 628 b 589 586 694 589 649 586 l 360 586 z m 104 972 l 104 0 l 675 0 b 1000 76 781 0 922 6 b 1072 267 1040 114 1072 178 b 1013 432 1072 315 1064 381 b 829 508 968 476 892 503 l 829 514 b 963 574 838 514 911 526 b 1021 726 990 600 1021 649 b 926 922 1021 850 949 907 b 665 972 858 968 764 972 z "},"C":{"ha":1175,"x_min":0,"x_max":0,"o":"m 869 340 b 797 203 865 269 829 225 b 628 165 747 168 678 165 b 419 236 561 165 485 174 b 336 482 376 279 336 354 b 417 728 336 611 378 685 b 626 804 482 796 556 804 b 790 765 678 804 736 799 b 863 646 840 733 858 694 l 1129 646 b 989 913 1125 796 1040 879 b 608 999 871 993 676 999 b 193 853 486 999 319 979 b 58 481 85 740 58 604 b 199 106 58 368 81 215 b 631 -29 325 -17 485 -29 b 982 47 754 -29 886 -19 b 1136 340 1047 92 1129 190 z "},"D":{"ha":1185,"x_min":0,"x_max":0,"o":"m 360 778 l 522 778 b 767 711 594 778 692 775 b 853 488 807 676 853 606 b 761 261 853 375 810 301 b 507 194 683 197 575 194 l 360 194 z m 104 972 l 104 0 l 532 0 b 993 133 664 0 864 4 b 1122 490 1053 193 1122 301 b 993 836 1122 582 1106 728 b 556 972 882 944 710 972 z "},"E":{"ha":1039,"x_min":0,"x_max":0,"o":"m 360 586 l 360 778 l 990 778 l 990 972 l 104 972 l 104 0 l 1006 0 l 1006 194 l 360 194 l 360 403 l 893 403 l 893 586 z "},"F":{"ha":971,"x_min":0,"x_max":0,"o":"m 360 567 l 360 778 l 951 778 l 951 972 l 104 972 l 104 0 l 360 0 l 360 383 l 846 383 l 846 567 z "},"G":{"ha":1242,"x_min":0,"x_max":0,"o":"m 672 521 l 672 363 l 897 363 b 822 218 888 294 854 244 b 636 167 768 174 697 167 b 422 239 564 167 489 174 b 336 481 379 279 336 354 b 419 733 336 579 363 674 b 636 807 482 796 564 807 b 796 772 685 807 742 804 b 874 654 850 740 869 703 l 1140 654 b 983 922 1136 729 1111 840 b 618 1001 938 949 838 1001 b 207 865 497 1001 332 988 b 58 476 142 803 58 683 b 186 107 58 303 115 181 b 582 -28 301 -17 453 -28 b 826 11 654 -28 749 -26 b 963 140 876 35 925 78 l 971 0 l 1151 0 l 1151 521 z "},"H":{"ha":1186,"x_min":0,"x_max":0,"o":"m 360 414 l 821 414 l 821 0 l 1076 0 l 1076 972 l 821 972 l 821 608 l 360 608 l 360 972 l 104 972 l 104 0 l 360 0 z "},"I":{"ha":469,"x_min":0,"x_max":0,"o":"m 104 972 l 104 0 l 360 0 l 360 972 z "},"J":{"ha":935,"x_min":0,"x_max":0,"o":"m 36 367 l 36 333 b 121 64 36 274 38 147 b 442 -28 210 -29 354 -28 b 746 63 525 -28 653 -31 b 838 351 826 143 838 261 l 838 972 l 582 972 l 582 350 b 544 207 582 313 581 251 b 435 167 513 172 474 167 b 326 204 406 167 360 167 b 292 338 292 242 292 289 l 292 367 z "},"K":{"ha":1125,"x_min":0,"x_max":0,"o":"m 360 565 l 360 972 l 104 972 l 104 0 l 360 0 l 360 308 l 486 422 l 825 0 l 1139 1 l 657 565 l 1113 972 l 796 972 z "},"L":{"ha":911,"x_min":0,"x_max":0,"o":"m 892 197 l 360 197 l 360 972 l 104 972 l 104 0 l 892 0 z "},"M":{"ha":1493,"x_min":0,"x_max":0,"o":"m 651 0 l 836 0 l 1128 724 l 1138 724 l 1128 642 l 1128 0 l 1383 0 l 1383 972 l 1022 972 l 747 267 l 740 267 l 465 972 l 104 972 l 104 0 l 360 0 l 360 642 l 350 724 l 360 724 z "},"N":{"ha":1208,"x_min":0,"x_max":0,"o":"m 1099 972 l 843 972 l 843 319 l 354 972 l 104 972 l 104 0 l 360 0 l 360 653 l 850 0 l 1099 0 z "},"O":{"ha":1276,"x_min":0,"x_max":0,"o":"m 636 806 b 847 731 701 806 781 796 b 936 486 928 654 936 540 b 847 242 936 432 928 318 b 636 167 781 176 701 167 b 425 242 571 167 492 176 b 336 486 344 318 336 432 b 425 731 336 540 344 654 b 636 806 492 796 571 806 z m 1214 486 b 1061 858 1214 603 1190 740 b 636 1000 989 924 858 1000 b 211 858 414 1000 283 924 b 58 486 82 740 58 603 b 211 114 58 372 81 229 b 636 -28 283 49 414 -28 b 1061 114 858 -28 989 49 b 1214 486 1192 229 1214 372 z "},"P":{"ha":1081,"x_min":0,"x_max":0,"o":"m 360 778 l 606 778 b 731 750 688 778 721 757 b 778 650 758 729 778 699 b 742 550 778 606 763 571 b 590 510 708 517 638 510 l 360 510 z m 104 972 l 104 0 l 360 0 l 360 321 l 608 321 b 963 422 749 321 874 326 b 1042 653 1028 493 1042 575 b 951 885 1042 728 1026 814 b 625 972 867 963 758 972 z "},"Q":{"ha":1276,"x_min":0,"x_max":0,"o":"m 742 374 l 660 279 l 769 188 b 633 158 726 167 688 158 b 414 242 560 158 479 174 b 336 472 347 313 336 406 b 413 714 336 579 368 660 b 636 806 479 792 567 806 b 857 724 751 806 818 764 b 936 488 900 679 936 604 b 864 271 936 421 924 349 z m 1047 121 b 1165 267 1099 160 1133 204 b 1214 496 1203 344 1214 414 b 1053 875 1214 624 1182 764 b 639 1000 922 983 765 1000 b 199 846 488 1000 324 975 b 58 475 81 728 58 586 b 194 113 58 356 83 221 b 621 -28 329 -18 496 -28 b 914 31 736 -28 815 -17 l 1072 -101 l 1171 14 z "},"R":{"ha":1140,"x_min":0,"x_max":0,"o":"m 360 778 l 628 778 b 750 757 656 778 721 775 b 797 663 772 742 797 713 b 765 579 797 622 781 594 b 631 540 728 542 674 540 l 360 540 z m 104 0 l 360 0 l 360 357 l 599 357 b 724 322 643 357 696 346 b 769 204 747 301 765 264 l 774 124 b 811 0 778 75 779 43 l 1082 0 b 1042 139 1050 51 1046 90 l 1035 249 b 986 396 1031 299 1032 347 b 872 454 957 428 913 447 l 872 460 b 997 528 917 471 964 494 b 1061 700 1046 576 1061 635 b 994 885 1061 754 1051 828 b 679 972 913 967 775 972 l 104 972 z "},"S":{"ha":1065,"x_min":0,"x_max":0,"o":"m 49 315 l 49 310 b 128 86 49 251 57 161 b 557 -28 228 -18 401 -28 b 900 47 758 -28 849 11 b 1014 283 961 92 1014 165 b 915 496 1014 351 997 435 b 668 576 850 544 756 561 l 557 594 b 390 629 454 610 417 618 b 321 703 358 640 321 658 b 369 788 321 736 338 767 b 503 814 403 808 454 814 b 658 788 539 814 613 810 b 717 699 701 765 713 733 l 975 699 b 844 935 979 771 960 868 b 506 1000 779 974 682 1000 b 188 931 404 1000 285 990 b 54 682 99 875 54 794 b 108 526 54 599 86 553 b 400 421 171 457 293 436 l 540 399 b 675 367 575 392 646 378 b 743 283 735 343 743 306 b 679 186 743 250 722 208 b 540 164 653 171 614 164 b 353 217 490 164 401 168 b 315 310 332 235 315 264 l 315 315 z "},"T":{"ha":971,"x_min":0,"x_max":0,"o":"m 357 778 l 357 0 l 613 0 l 613 778 l 951 778 l 951 972 l 18 972 l 18 778 z "},"U":{"ha":1156,"x_min":0,"x_max":0,"o":"m 1058 972 l 803 972 l 803 408 b 749 229 803 364 801 282 b 575 175 699 179 619 175 b 401 229 532 175 449 178 b 347 408 349 282 347 363 l 347 972 l 92 972 l 92 382 b 190 89 92 304 96 183 b 575 -25 294 -15 440 -25 b 960 89 710 -25 856 -15 b 1058 382 1054 183 1058 304 z "},"V":{"ha":1035,"x_min":0,"x_max":0,"o":"m 528 254 l 519 254 l 275 972 l -12 972 l 378 0 l 657 0 l 1049 972 l 774 972 z "},"W":{"ha":1524,"x_min":0,"x_max":0,"o":"m 764 714 l 979 0 l 1246 0 l 1538 972 l 1271 972 l 1107 251 l 882 972 l 646 972 l 419 251 l 254 972 l -12 972 l 279 0 l 546 0 z "},"X":{"ha":1110,"x_min":0,"x_max":0,"o":"m 571 650 l 332 972 l 19 972 l 399 504 l 0 0 l 311 0 l 551 332 l 783 0 l 1110 0 l 715 504 l 1103 972 l 810 972 z "},"Y":{"ha":1049,"x_min":0,"x_max":0,"o":"m 536 557 l 290 972 l -12 972 l 397 371 l 397 0 l 653 0 l 653 371 l 1063 972 l 779 972 z "},"Z":{"ha":1015,"x_min":0,"x_max":0,"o":"m 76 972 l 76 778 l 633 778 l 36 188 l 36 0 l 976 0 l 976 194 l 342 194 l 961 811 l 961 972 z "},"[":{"ha":649,"x_min":0,"x_max":0,"o":"m 147 1028 l 147 -228 l 575 -228 l 575 -81 l 392 -81 l 392 881 l 575 881 l 575 1028 z "},"\\":{"ha":739,"x_min":0,"x_max":0,"o":"m 739 -257 l 136 972 l 0 972 l 603 -257 z "},"]":{"ha":649,"x_min":0,"x_max":0,"o":"m 575 1028 l 147 1028 l 147 881 l 331 881 l 331 -81 l 147 -81 l 147 -228 l 575 -228 z "},"^":{"ha":788,"x_min":0,"x_max":0,"o":"m 393 883 l 540 669 l 718 669 l 501 972 l 285 972 l 69 669 l 246 669 z "},"_":{"ha":776,"x_min":0,"x_max":0,"o":"m 0 -262 l 776 -262 l 776 -168 l 0 -168 z "},"`":{"ha":507,"x_min":0,"x_max":0,"o":"m 256 989 l 26 989 l 203 789 l 367 789 z "},"a":{"ha":983,"x_min":0,"x_max":0,"o":"m 635 314 b 585 167 635 238 614 196 b 447 118 542 124 492 118 b 354 140 418 118 381 119 b 325 200 338 153 325 174 b 358 260 325 233 346 250 b 457 285 382 275 417 281 l 508 290 b 635 325 579 297 607 301 z m 346 478 b 386 554 347 521 374 544 b 492 579 421 578 472 579 b 589 560 524 579 563 575 b 633 490 626 539 633 513 b 617 444 633 474 628 456 b 488 414 596 422 553 419 l 376 404 b 118 325 303 397 186 389 b 65 186 79 288 65 240 b 147 18 65 93 110 44 b 367 -26 207 -22 296 -26 b 535 -6 421 -26 479 -24 b 644 69 581 10 615 32 l 650 69 l 665 0 l 932 0 l 932 19 b 893 47 908 24 897 40 b 882 132 892 51 882 69 l 882 446 b 822 639 882 506 881 578 b 488 732 743 722 588 732 b 167 643 360 732 246 721 b 99 478 124 600 99 549 z "},"b":{"ha":1024,"x_min":0,"x_max":0,"o":"m 519 572 b 665 513 599 572 643 539 b 714 353 703 468 714 403 b 657 186 714 301 700 231 b 518 133 631 160 589 133 b 385 183 465 133 421 150 b 322 350 331 233 322 296 b 388 524 322 432 350 490 b 519 572 410 544 449 572 z m 318 83 l 324 83 b 399 11 342 56 367 28 b 585 -22 453 -18 519 -22 b 874 72 679 -22 789 -17 b 969 364 933 135 969 236 b 867 636 969 451 956 554 b 586 728 778 718 671 728 b 428 700 529 728 479 722 b 329 625 388 683 357 663 l 329 972 l 85 972 l 85 0 l 318 0 z "},"c":{"ha":958,"x_min":0,"x_max":0,"o":"m 906 456 b 778 672 906 514 886 611 b 488 732 738 696 653 732 b 146 615 381 732 239 715 b 51 342 100 567 51 482 b 147 74 51 189 114 107 b 494 -26 240 -19 379 -26 b 833 68 621 -26 749 -19 b 908 261 868 106 908 167 l 908 265 l 672 265 b 619 160 671 217 649 181 b 504 132 585 133 536 132 b 361 179 458 132 404 136 b 304 346 329 211 304 267 b 357 517 304 371 306 458 b 503 574 396 561 449 574 b 618 547 542 574 586 568 b 671 456 664 518 669 476 z "},"d":{"ha":1026,"x_min":0,"x_max":0,"o":"m 500 572 b 651 507 540 572 606 564 b 699 354 683 467 699 406 b 636 182 699 293 679 225 b 503 133 596 142 551 133 b 364 186 453 133 404 143 b 307 353 325 229 307 293 b 356 513 307 414 321 472 b 500 572 399 561 451 572 z m 703 83 l 703 0 l 936 0 l 936 972 l 692 972 l 692 625 b 603 697 669 658 646 679 b 439 728 547 724 504 728 b 161 636 361 728 250 721 b 51 350 107 586 51 494 b 146 74 51 228 89 133 b 431 -22 232 -15 335 -22 b 604 3 496 -22 553 -19 b 697 83 653 24 679 51 z "},"e":{"ha":1001,"x_min":0,"x_max":0,"o":"m 306 432 b 364 543 310 486 336 521 b 501 582 407 576 451 582 b 646 540 547 582 603 578 b 696 432 667 524 692 489 z m 692 231 b 629 149 682 185 656 161 b 503 129 594 132 540 129 b 347 176 454 129 390 133 b 301 303 324 200 301 242 l 301 307 l 947 307 l 947 332 b 851 618 947 417 939 531 b 500 732 756 714 611 732 b 157 622 388 732 254 715 b 51 342 64 533 51 413 b 149 78 51 253 68 158 b 519 -26 239 -12 360 -26 b 785 11 635 -26 718 -18 b 938 231 881 54 928 140 z "},"f":{"ha":615,"x_min":0,"x_max":0,"o":"m 596 706 l 411 706 l 411 739 b 440 817 411 757 414 794 b 524 840 461 833 492 840 b 594 832 544 840 572 838 l 594 975 b 440 990 540 986 496 990 b 228 928 382 990 288 988 b 167 761 196 899 167 849 l 167 706 l 18 706 l 18 556 l 167 556 l 167 0 l 411 0 l 411 556 l 596 556 z "},"g":{"ha":1006,"x_min":0,"x_max":0,"o":"m 308 360 b 369 526 308 442 338 494 b 492 575 404 561 443 575 b 628 522 551 575 599 554 b 681 364 665 483 681 418 b 628 208 681 315 667 249 b 499 161 590 169 542 161 b 360 213 458 161 403 168 b 308 360 325 249 308 297 z m 106 -43 b 213 -225 106 -106 128 -176 b 478 -272 236 -237 306 -272 b 829 -182 633 -272 756 -256 b 915 86 911 -100 915 39 l 915 706 l 685 706 l 685 624 l 678 624 b 588 700 657 651 631 679 b 431 728 554 715 507 728 b 156 629 343 728 238 711 b 56 349 104 575 56 492 b 150 103 56 261 74 175 b 421 14 232 29 321 14 b 583 38 504 14 551 22 b 665 103 604 47 638 65 l 671 103 l 671 50 b 628 -83 671 17 668 -47 b 496 -122 588 -121 518 -122 b 396 -106 464 -122 422 -118 b 350 -43 358 -87 351 -61 z "},"h":{"ha":985,"x_min":0,"x_max":0,"o":"m 85 972 l 85 0 l 329 0 l 329 319 b 382 515 329 381 335 460 b 507 565 417 554 458 565 b 617 526 563 565 596 547 b 654 382 654 485 654 419 l 654 0 l 899 0 l 899 425 b 793 682 899 504 897 615 b 586 729 742 714 665 729 b 422 701 549 729 479 728 b 329 629 379 683 351 658 l 329 972 z "},"i":{"ha":419,"x_min":0,"x_max":0,"o":"m 85 818 l 329 818 l 329 982 l 85 982 z m 85 706 l 85 0 l 329 0 l 329 706 z "},"j":{"ha":431,"x_min":0,"x_max":0,"o":"m 96 818 l 340 818 l 340 982 l 96 982 z m 96 706 l 96 54 b 71 -76 96 -6 93 -53 b 1 -100 50 -99 18 -100 b -40 -96 -12 -100 -26 -99 l -40 -249 b 89 -261 3 -258 39 -261 b 276 -204 138 -261 222 -258 b 340 -3 336 -144 340 -56 l 340 706 z "},"k":{"ha":906,"x_min":0,"x_max":0,"o":"m 329 433 l 329 972 l 85 972 l 85 0 l 329 0 l 329 218 l 424 300 l 647 0 l 919 0 l 576 425 l 904 706 l 628 706 z "},"l":{"ha":419,"x_min":0,"x_max":0,"o":"m 85 972 l 85 0 l 329 0 l 329 972 z "},"m":{"ha":1488,"x_min":0,"x_max":0,"o":"m 85 706 l 85 0 l 329 0 l 329 346 b 388 529 329 399 333 479 b 490 567 419 557 453 567 b 579 536 518 567 553 563 b 621 413 618 499 621 447 l 621 0 l 865 0 l 865 365 b 917 525 865 410 874 482 b 1024 567 938 546 969 567 b 1117 533 1072 567 1101 549 b 1157 407 1146 506 1157 461 l 1157 0 l 1401 0 l 1401 404 b 1325 658 1401 479 1397 586 b 1099 731 1260 724 1156 731 b 915 690 1033 731 975 722 b 811 594 882 672 843 643 b 725 697 799 626 776 668 b 579 731 681 724 633 731 b 410 694 517 731 464 724 b 313 607 365 671 335 639 l 313 706 z "},"n":{"ha":985,"x_min":0,"x_max":0,"o":"m 85 706 l 85 0 l 329 0 l 329 324 b 386 515 329 407 349 476 b 514 565 408 539 449 565 b 613 532 563 565 594 550 b 654 382 650 497 654 439 l 654 0 l 899 0 l 899 436 b 796 678 899 521 888 619 b 575 729 776 690 710 729 b 418 697 532 729 474 725 b 319 619 379 676 346 649 l 319 706 z "},"o":{"ha":1028,"x_min":0,"x_max":0,"o":"m 513 574 b 663 521 557 574 618 565 b 721 353 700 483 721 424 b 663 185 721 282 700 222 b 513 132 618 140 557 132 b 363 185 468 132 407 140 b 304 353 325 222 304 282 b 363 521 304 424 325 483 b 513 574 407 565 468 574 z m 974 353 b 851 639 974 446 953 557 b 513 732 747 721 606 732 b 174 639 419 732 278 721 b 51 353 72 557 51 446 b 174 67 51 260 72 149 b 513 -26 276 -17 421 -26 b 851 67 604 -26 749 -17 b 974 353 953 149 974 260 z "},"p":{"ha":1021,"x_min":0,"x_max":0,"o":"m 518 572 b 663 514 586 572 631 549 b 714 354 694 476 714 422 b 663 190 714 329 711 246 b 522 133 624 144 578 133 b 378 188 449 133 404 161 b 322 350 339 228 322 293 b 382 518 322 413 343 475 b 518 572 425 563 474 572 z m 85 706 l 85 -257 l 329 -257 l 329 75 b 424 1 351 46 386 17 b 586 -22 446 -8 490 -22 b 864 68 674 -22 779 -17 b 967 358 953 154 967 272 b 864 639 967 444 953 554 b 589 728 778 717 679 728 b 414 694 539 728 474 724 b 322 617 382 678 349 651 l 318 617 l 318 706 z "},"q":{"ha":1024,"x_min":0,"x_max":0,"o":"m 500 572 b 636 519 546 572 593 563 b 696 353 665 490 696 440 b 640 186 696 279 674 224 b 499 133 601 143 553 133 b 356 190 454 133 399 144 b 304 354 324 225 304 282 b 360 519 304 443 336 493 b 500 572 399 563 446 572 z m 933 706 l 700 706 l 700 617 l 696 617 b 604 694 669 651 636 678 b 428 728 547 724 482 728 b 154 639 340 728 238 718 b 51 358 65 554 51 444 b 154 68 51 272 65 154 b 432 -22 239 -17 344 -22 b 594 1 528 -22 572 -8 b 689 75 632 17 667 46 l 689 -257 l 933 -257 z "},"r":{"ha":656,"x_min":0,"x_max":0,"o":"m 636 717 b 572 722 614 721 594 722 b 426 690 521 722 472 714 b 319 590 371 661 338 622 l 319 706 l 85 706 l 85 0 l 329 0 l 329 265 b 429 513 329 318 338 450 b 585 551 467 539 518 551 b 636 549 603 551 624 550 z "},"s":{"ha":868,"x_min":0,"x_max":0,"o":"m 42 222 l 42 219 b 107 56 42 181 47 115 b 456 -28 185 -18 307 -28 b 767 60 574 -28 689 -21 b 824 210 801 97 824 144 b 756 358 824 283 793 329 b 568 424 704 399 617 417 l 474 438 b 331 465 403 449 363 450 b 289 517 315 472 289 485 b 329 574 289 538 301 558 b 421 589 351 585 389 589 b 517 572 450 589 490 585 b 557 514 543 560 557 540 l 557 511 l 790 511 b 668 696 789 594 757 656 b 419 733 636 707 575 733 b 156 682 285 733 207 714 b 49 500 85 642 49 585 b 125 350 49 446 64 388 b 318 299 157 329 203 315 l 401 286 b 521 263 451 279 488 275 b 574 200 543 253 574 239 b 535 144 574 185 568 161 b 436 128 519 135 492 128 b 326 146 363 128 336 142 b 281 218 306 157 281 179 l 281 222 z "},"t":{"ha":608,"x_min":0,"x_max":0,"o":"m 18 556 l 168 556 l 168 186 b 219 33 168 144 168 81 b 413 -21 275 -18 363 -21 b 579 1 472 -21 519 -17 l 579 154 b 507 143 553 144 529 143 b 432 167 456 143 436 163 b 413 247 411 188 413 221 l 413 556 l 576 556 l 576 706 l 413 706 l 413 915 l 168 915 l 168 706 l 18 706 z "},"u":{"ha":981,"x_min":0,"x_max":0,"o":"m 663 0 l 890 0 l 890 706 l 646 706 l 646 365 b 597 189 646 306 642 238 b 474 142 560 149 511 142 b 365 178 417 142 383 160 b 325 315 326 214 325 275 l 325 706 l 81 706 l 81 271 b 154 46 81 213 83 113 b 386 -22 217 -14 325 -22 b 551 3 465 -22 517 -12 b 657 88 611 29 647 75 l 663 88 z "},"v":{"ha":831,"x_min":0,"x_max":0,"o":"m 414 203 l 236 706 l -12 706 l 289 0 l 539 0 l 844 706 l 600 706 z "},"w":{"ha":1240,"x_min":0,"x_max":0,"o":"m 622 478 l 793 0 l 1010 0 l 1254 706 l 1018 706 l 879 229 l 722 706 l 521 706 l 364 229 l 225 706 l -12 706 l 232 0 l 450 0 z "},"x":{"ha":910,"x_min":0,"x_max":0,"o":"m 468 475 l 300 706 l 11 706 l 308 363 l 0 0 l 271 0 l 443 232 l 619 0 l 910 0 l 603 365 l 899 706 l 629 706 z "},"y":{"ha":832,"x_min":0,"x_max":0,"o":"m 82 -246 b 222 -265 133 -262 168 -265 b 425 -200 293 -265 363 -260 b 532 -12 474 -156 500 -85 l 832 706 l 603 706 l 439 235 l 251 706 l 6 706 l 306 43 l 292 1 b 239 -83 282 -26 261 -65 b 156 -107 218 -100 188 -107 b 82 -94 146 -107 117 -106 z "},"z":{"ha":799,"x_min":0,"x_max":0,"o":"m 64 544 l 488 544 l 36 147 l 36 0 l 760 0 l 760 161 l 297 161 l 739 554 l 739 706 l 64 706 z "},"{":{"ha":599,"x_min":0,"x_max":0,"o":"m 529 1058 l 526 1058 b 296 979 457 1058 356 1042 b 235 778 242 919 235 849 b 239 638 235 689 239 740 b 197 513 239 603 236 551 b 104 469 174 489 138 474 l 104 336 b 197 293 138 332 174 317 b 239 168 236 254 239 203 b 235 28 239 64 235 115 b 296 -174 235 -43 242 -114 b 526 -253 356 -236 457 -253 l 529 -253 l 529 -139 b 456 -106 497 -135 472 -122 b 422 13 426 -72 422 -24 l 422 74 b 425 146 424 97 425 122 b 364 331 425 196 422 272 b 233 399 332 363 282 388 l 233 407 b 364 475 282 418 332 443 b 425 660 422 533 425 608 b 422 732 425 683 424 708 l 422 793 b 456 911 424 828 424 879 b 529 944 472 928 500 940 z "},"|":{"ha":717,"x_min":0,"x_max":0,"o":"m 289 -311 l 428 -311 l 428 1151 l 289 1151 z "},"}":{"ha":599,"x_min":0,"x_max":0,"o":"m 104 1058 l 104 944 b 178 911 133 940 161 928 b 211 793 210 879 210 828 l 211 732 b 208 660 210 708 208 683 b 269 475 208 608 211 533 b 400 407 301 443 351 418 l 400 399 b 269 331 351 388 301 363 b 208 146 211 272 208 196 b 211 74 208 122 210 97 l 211 13 b 178 -106 210 -22 207 -74 b 104 -139 161 -122 136 -135 l 104 -253 l 107 -253 b 338 -174 176 -253 278 -236 b 399 28 392 -114 399 -43 b 394 168 399 115 394 64 b 436 293 394 203 397 254 b 529 336 460 317 496 332 l 529 469 b 436 513 496 474 460 489 b 394 638 397 551 394 603 b 399 778 394 742 399 690 b 338 979 399 849 392 919 b 107 1058 278 1042 176 1058 z "},"~":{"ha":996,"x_min":0,"x_max":0,"o":"m 167 392 b 213 451 178 413 193 433 b 296 482 239 474 264 482 b 413 453 331 482 378 469 l 535 394 b 690 356 581 372 618 356 b 847 411 747 356 797 365 b 926 533 881 443 910 488 l 829 590 b 785 526 819 569 800 542 b 707 500 758 504 729 500 b 590 531 661 500 622 515 l 479 585 b 314 626 425 611 376 626 b 156 572 264 626 206 617 b 69 449 121 540 88 488 z "},"":{"ha":1015,"x_min":0,"x_max":0,"o":"m 76 972 l 76 778 l 633 778 l 36 188 l 36 0 l 976 0 l 976 194 l 342 194 l 961 811 l 961 972 z m 508 1122 l 360 1247 l 163 1247 l 361 1064 l 654 1064 l 851 1247 l 656 1247 z "},"":{"ha":799,"x_min":0,"x_max":0,"o":""}," ":{"ha":324,"x_min":0,"x_max":0,"o":""},"¡":{"ha":574,"x_min":0,"x_max":0,"o":"m 154 719 l 154 511 l 410 511 l 410 719 z m 347 390 l 217 390 l 147 46 l 147 -267 l 418 -267 l 418 46 z "},"¢":{"ha":1049,"x_min":0,"x_max":0,"o":"m 960 458 b 849 669 956 576 889 640 b 610 731 789 710 688 735 l 610 843 l 492 843 l 492 732 b 196 626 382 736 267 697 b 97 357 146 576 97 494 b 200 76 97 211 149 124 b 492 -25 271 8 381 -29 l 492 -144 l 610 -144 l 610 -24 b 879 68 753 -24 831 19 b 961 264 917 106 960 168 l 725 264 b 678 163 724 214 700 181 b 550 128 639 131 579 128 b 404 181 508 128 449 133 b 350 350 357 228 350 307 b 411 531 350 404 358 478 b 558 579 454 571 507 579 b 674 549 596 579 640 575 b 724 458 696 532 718 501 z "},"£":{"ha":1049,"x_min":0,"x_max":0,"o":"m 892 236 b 761 182 846 188 799 182 b 646 204 717 182 685 192 b 524 228 613 214 572 228 b 410 203 489 228 450 221 l 406 211 b 461 271 428 231 446 250 b 481 428 476 293 510 347 l 672 428 l 672 519 l 457 519 b 415 590 424 582 444 535 b 394 672 403 617 394 650 b 436 767 394 713 410 744 b 560 804 474 799 521 804 b 693 760 631 804 671 782 b 732 656 726 726 732 688 l 732 651 l 976 651 l 976 657 b 889 896 976 731 967 818 b 554 1000 794 988 653 1000 b 263 925 469 1000 357 990 b 139 693 163 854 139 765 b 196 519 139 610 169 554 l 89 519 l 89 428 l 226 428 b 251 336 242 400 251 365 b 200 218 251 296 235 253 b 110 147 194 213 176 196 l 201 -6 b 369 54 239 21 299 54 b 538 11 435 54 494 28 b 726 -25 603 -12 650 -25 b 971 78 782 -25 874 -19 z "},"¤":{"ha":1049,"x_min":0,"x_max":0,"o":"m 522 733 b 715 657 610 733 675 700 b 793 463 767 603 793 528 b 715 268 793 397 767 322 b 522 192 675 225 610 192 b 329 268 435 192 369 225 b 251 463 278 322 251 397 b 329 657 251 528 278 603 b 522 733 369 700 435 733 z m 54 94 l 151 -4 l 281 128 b 522 49 343 82 417 49 b 764 129 628 49 699 78 l 894 -3 l 996 94 l 865 232 b 935 464 903 286 935 363 b 863 696 935 564 903 639 l 989 824 l 896 928 l 764 796 b 522 875 686 856 613 875 b 279 796 418 875 347 850 l 151 931 l 51 828 l 183 696 b 110 461 138 631 110 561 b 185 226 110 367 133 297 z "},"¥":{"ha":1049,"x_min":0,"x_max":0,"o":"m 524 561 l 272 972 l -17 972 l 396 388 l 396 353 l 232 353 l 232 268 l 396 268 l 396 207 l 232 207 l 232 122 l 396 122 l 396 0 l 651 0 l 651 122 l 815 122 l 815 207 l 651 207 l 651 268 l 815 268 l 815 353 l 651 353 l 651 388 l 1065 972 l 776 972 z "},"¦":{"ha":717,"x_min":0,"x_max":0,"o":"m 428 554 l 428 1151 l 289 1151 l 289 554 z m 289 286 l 289 -311 l 428 -311 l 428 286 z "},"§":{"ha":1014,"x_min":0,"x_max":0,"o":"m 425 300 b 335 342 413 304 367 318 b 300 414 311 360 300 385 b 325 485 300 442 308 465 b 386 529 338 500 365 518 l 583 474 b 682 433 626 463 656 454 b 717 360 706 415 717 392 b 688 285 717 333 704 306 b 625 244 672 268 647 254 z m 176 32 l 176 28 b 261 -171 176 -33 188 -111 b 517 -237 332 -228 436 -237 b 753 -181 581 -237 679 -232 b 846 4 808 -142 846 -75 b 756 150 846 89 788 132 b 874 232 799 167 847 200 b 925 390 906 269 925 328 b 868 535 925 451 903 497 b 689 625 818 589 749 608 l 576 656 b 443 694 489 679 461 685 b 388 764 415 706 388 724 b 422 818 388 781 396 801 b 506 836 449 833 474 836 b 596 814 538 836 572 832 b 628 742 614 801 632 779 l 828 742 l 828 747 b 733 938 828 807 814 883 b 504 989 690 965 626 989 b 271 933 433 989 344 985 b 178 757 204 885 178 819 b 258 611 178 678 219 638 b 150 547 215 596 176 574 b 89 382 100 496 89 436 b 150 229 89 321 106 272 b 336 143 206 178 281 158 l 431 115 b 589 64 538 82 565 75 b 629 4 613 51 629 33 b 593 -60 629 -22 615 -44 b 508 -76 567 -75 535 -76 b 413 -50 479 -76 442 -74 b 379 25 383 -26 379 -1 l 379 32 z "},"¨":{"ha":728,"x_min":0,"x_max":0,"o":"m 435 829 l 650 829 l 650 983 l 435 983 z m 69 829 l 283 829 l 283 983 l 69 983 z "},"©":{"ha":1161,"x_min":0,"x_max":0,"o":"m 581 908 b 872 792 692 908 796 865 b 997 486 950 714 997 597 b 872 181 997 375 950 258 b 581 64 796 107 692 64 b 289 181 469 64 365 107 b 164 486 211 258 164 375 b 289 792 164 597 211 714 b 581 908 365 865 469 908 z m 1092 486 b 942 853 1092 674 1000 799 b 581 999 864 931 747 999 b 219 853 414 999 297 931 b 69 486 161 799 69 674 b 219 119 69 299 161 174 b 581 -26 297 42 414 -26 b 942 119 747 -26 864 42 b 1092 486 1000 174 1092 299 z m 694 425 b 667 365 694 393 678 375 b 581 343 639 343 599 343 b 492 376 554 343 518 350 b 456 490 482 386 456 418 b 494 600 456 544 474 579 b 586 632 522 628 560 632 b 657 617 629 632 647 621 b 692 560 686 600 690 576 l 839 560 b 763 697 838 603 825 657 b 572 738 708 732 635 738 b 365 669 513 738 428 732 b 297 493 336 640 297 588 b 369 306 297 410 329 344 b 582 238 431 246 514 238 b 769 283 643 238 715 243 b 842 425 807 310 840 353 z "},"ª":{"ha":629,"x_min":0,"x_max":0,"o":"m 324 739 b 394 760 364 743 379 744 b 365 667 396 726 392 689 b 285 642 342 644 311 642 b 231 654 268 642 247 643 b 214 686 219 663 214 674 b 232 722 214 701 219 714 b 289 736 249 733 272 735 z m 221 851 b 242 897 219 875 232 890 b 306 911 258 910 285 911 b 365 903 329 911 349 910 b 394 864 389 893 394 876 b 365 828 394 840 378 832 b 293 814 360 826 342 819 l 228 807 b 94 763 179 801 129 796 b 63 678 67 736 63 704 b 107 582 63 640 74 606 b 231 553 144 556 193 553 b 333 567 290 553 318 561 b 396 615 351 574 375 588 l 400 615 l 407 568 l 567 568 l 567 576 b 547 597 560 582 551 590 b 542 636 543 607 542 626 l 542 842 b 474 968 542 878 535 931 b 301 1001 440 989 390 1001 b 138 967 236 1001 181 994 b 76 851 86 933 76 889 z m 67 413 l 558 413 l 558 488 l 67 488 z "},"«":{"ha":753,"x_min":0,"x_max":0,"o":"m 400 467 l 400 278 l 649 88 l 649 272 l 507 372 l 649 471 l 649 656 z m 86 467 l 86 278 l 335 88 l 335 272 l 193 372 l 335 471 l 335 656 z "},"¬":{"ha":1028,"x_min":0,"x_max":0,"o":"m 69 529 l 69 426 l 858 426 l 858 242 l 958 242 l 958 529 z "},"­":{"ha":790,"x_min":0,"x_max":0,"o":"m 111 321 l 679 321 l 679 494 l 111 494 z "},"®":{"ha":1161,"x_min":0,"x_max":0,"o":"m 997 486 b 872 181 997 375 950 258 b 581 64 796 107 692 64 b 289 181 469 64 365 107 b 164 486 211 258 164 375 b 289 792 164 597 211 714 b 581 908 365 865 469 908 b 872 792 692 908 796 865 b 997 486 950 714 997 597 z m 1092 486 b 942 853 1092 674 1000 799 b 581 999 864 931 747 999 b 219 853 414 999 297 931 b 69 486 161 799 69 674 b 219 119 69 299 161 174 b 581 -26 297 42 414 -26 b 942 119 747 -26 864 42 b 1092 486 1000 174 1092 299 z m 475 625 l 594 625 b 649 615 618 625 636 622 b 672 571 660 608 672 597 b 646 524 672 542 656 528 b 594 515 636 518 618 515 l 475 515 z m 331 250 l 475 250 l 475 418 l 571 418 b 640 403 615 418 633 408 b 665 342 661 386 665 358 l 667 307 b 686 250 668 286 671 268 l 833 250 b 811 318 813 279 811 306 l 810 367 b 786 436 810 389 807 415 b 731 465 774 451 751 461 l 731 468 b 797 506 764 472 785 490 b 822 586 814 526 822 554 b 769 696 822 633 804 669 b 636 728 726 728 681 728 l 331 728 z "},"¯":{"ha":650,"x_min":0,"x_max":0,"o":"m 69 831 l 581 831 l 581 957 l 69 957 z "},"°":{"ha":458,"x_min":0,"x_max":0,"o":"m 157 825 b 229 897 157 865 189 897 b 301 825 269 897 301 865 b 229 753 301 785 269 753 b 157 825 189 753 157 785 z m 69 825 b 229 665 69 736 140 665 b 389 825 318 665 389 736 b 229 985 389 914 318 985 b 69 825 140 985 69 914 z "},"±":{"ha":893,"x_min":0,"x_max":0,"o":"m 69 210 l 69 75 l 824 75 l 824 210 z m 71 639 l 71 504 l 379 504 l 379 272 l 514 272 l 514 504 l 822 504 l 822 639 l 514 639 l 514 911 l 379 911 l 379 639 z "},"²":{"ha":743,"x_min":0,"x_max":0,"o":"m 640 513 l 310 513 b 354 553 322 535 333 543 b 433 592 390 575 403 576 l 501 624 b 593 681 557 650 581 668 b 639 800 615 701 639 739 b 563 944 639 860 617 907 b 368 989 506 982 431 989 b 178 942 314 989 238 986 b 103 779 113 896 103 839 l 103 775 l 267 775 l 267 779 b 289 844 267 808 276 832 b 367 869 307 863 340 869 b 432 854 389 869 411 865 b 467 799 456 840 467 822 b 432 735 467 767 454 750 b 347 688 414 719 358 694 l 286 657 b 168 585 238 633 200 617 b 104 399 118 536 104 471 l 104 388 l 640 388 z "},"³":{"ha":767,"x_min":0,"x_max":0,"o":"m 103 597 l 103 594 b 179 432 103 511 139 460 b 394 389 233 392 325 389 b 608 444 456 389 546 389 b 664 572 647 479 664 526 b 628 664 664 613 649 643 b 535 707 606 686 572 703 l 535 710 b 607 746 556 711 581 718 b 639 832 629 772 639 800 b 560 963 639 865 626 924 b 378 1000 521 986 465 1000 b 186 956 310 1000 240 993 b 108 806 119 911 108 844 l 108 801 l 272 801 l 272 803 b 299 860 272 829 283 849 b 378 881 319 875 351 881 b 444 868 399 881 426 878 b 479 817 472 853 479 832 b 447 764 479 796 468 775 b 361 751 425 753 379 751 l 329 751 l 329 649 l 361 649 b 450 639 407 649 429 646 b 492 582 468 632 492 617 b 460 526 492 554 476 536 b 382 511 447 519 426 511 b 297 531 338 511 313 521 b 267 593 271 549 267 569 l 267 597 z "},"´":{"ha":501,"x_min":0,"x_max":0,"o":"m 247 989 l 136 789 l 300 789 l 476 989 z "},"µ":{"ha":967,"x_min":0,"x_max":0,"o":"m 360 -257 l 360 76 b 400 15 369 54 385 31 b 518 -26 433 -18 474 -26 b 631 11 556 -26 593 -21 b 681 86 651 32 671 60 l 681 0 l 922 0 l 922 706 l 678 706 l 678 353 b 631 176 678 304 674 226 b 519 129 604 144 568 129 b 406 181 463 129 428 154 b 363 351 365 228 363 306 l 363 706 l 118 706 l 118 -257 z "},"¶":{"ha":779,"x_min":0,"x_max":0,"o":"m 565 -257 l 682 -257 l 682 972 l 565 972 z m 317 -257 l 433 -257 l 433 972 l 343 972 b 135 918 278 972 200 968 b 56 744 68 867 56 799 b 117 582 56 694 67 631 b 317 515 167 533 249 511 z "},"·":{"ha":425,"x_min":0,"x_max":0,"o":"m 82 349 l 343 349 l 343 574 l 82 574 z "},"¸":{"ha":493,"x_min":0,"x_max":0,"o":"m 51 -336 b 226 -361 100 -354 149 -361 b 378 -335 281 -361 335 -358 b 443 -219 421 -311 443 -272 b 378 -106 443 -171 426 -132 b 224 -78 357 -93 317 -78 b 144 -83 197 -78 174 -79 l 115 -172 b 186 -167 136 -168 160 -167 b 260 -174 201 -167 238 -167 b 299 -215 292 -183 299 -200 b 271 -256 299 -231 292 -246 b 208 -264 264 -260 247 -264 b 83 -244 181 -264 132 -260 z "},"¹":{"ha":499,"x_min":0,"x_max":0,"o":"m 103 789 l 224 789 l 224 388 l 396 388 l 396 971 l 265 971 b 208 893 256 928 231 906 b 107 871 182 878 144 871 l 103 871 z "},"º":{"ha":658,"x_min":0,"x_max":0,"o":"m 596 774 b 529 942 596 863 561 913 b 329 1001 494 974 433 1001 b 129 942 225 1001 164 974 b 63 774 97 913 63 863 b 129 606 63 685 97 635 b 329 546 164 574 225 546 b 529 606 433 546 494 574 b 596 774 561 635 596 685 z m 329 907 b 413 878 356 907 386 904 b 449 774 439 851 449 813 b 413 669 449 735 439 696 b 329 640 386 643 356 640 b 246 669 303 640 272 643 b 210 774 219 696 210 735 b 246 878 210 813 219 851 b 329 907 272 904 303 907 z m 90 413 l 568 413 l 568 488 l 90 488 z "},"»":{"ha":753,"x_min":0,"x_max":0,"o":"m 335 467 l 86 656 l 86 471 l 228 372 l 86 272 l 86 88 l 335 278 z m 649 467 l 400 656 l 400 471 l 542 372 l 400 272 l 400 88 l 649 278 z "},"¼":{"ha":1342,"x_min":0,"x_max":0,"o":"m 178 0 l 315 0 l 1233 972 l 1096 972 z m 114 790 l 235 790 l 235 389 l 407 389 l 407 972 l 276 972 b 219 894 267 929 242 907 b 118 872 193 879 156 872 l 114 872 z m 867 235 l 1046 433 l 1046 235 z m 1046 121 l 1046 0 l 1218 0 l 1218 121 l 1317 121 l 1317 235 l 1218 235 l 1218 583 l 1051 583 l 722 235 l 722 121 z "},"½":{"ha":1446,"x_min":0,"x_max":0,"o":"m 1397 125 l 1067 125 b 1111 165 1079 147 1090 156 b 1190 204 1147 188 1160 189 l 1258 236 b 1350 293 1314 263 1338 281 b 1396 413 1372 314 1396 351 b 1319 557 1396 472 1374 519 b 1125 601 1263 594 1188 601 b 935 554 1071 601 994 599 b 860 392 869 508 860 451 l 860 388 l 1024 388 l 1024 392 b 1046 457 1024 421 1033 444 b 1124 482 1064 475 1097 482 b 1189 467 1146 482 1168 478 b 1224 411 1213 453 1224 435 b 1189 347 1224 379 1211 363 b 1104 300 1171 332 1115 307 l 1043 269 b 925 197 994 246 957 229 b 861 11 875 149 861 83 l 861 0 l 1397 0 z m 150 0 l 288 0 l 1206 972 l 1068 972 z m 114 790 l 235 790 l 235 389 l 407 389 l 407 972 l 276 972 b 219 894 267 929 242 907 b 118 872 193 879 156 872 l 114 872 z "},"¾":{"ha":1436,"x_min":0,"x_max":0,"o":"m 272 0 l 410 0 l 1328 972 l 1190 972 z m 961 235 l 1140 433 l 1140 235 z m 1140 121 l 1140 0 l 1313 0 l 1313 121 l 1411 121 l 1411 235 l 1313 235 l 1313 583 l 1146 583 l 817 235 l 817 121 z m 47 594 l 47 592 b 124 429 47 508 83 457 b 339 386 167 397 229 386 b 553 443 397 386 492 389 b 608 571 590 476 608 522 b 572 665 608 615 590 644 b 479 708 550 688 517 704 l 479 711 b 551 747 500 713 525 719 b 583 833 574 774 583 801 b 504 964 583 867 571 925 b 322 1001 465 988 410 1001 b 131 957 254 1001 185 994 b 53 807 64 913 53 846 l 53 803 l 217 803 l 217 804 b 243 861 217 831 228 850 b 322 882 264 876 296 882 b 389 869 343 882 371 879 b 424 818 417 854 424 833 b 392 765 424 797 413 776 b 306 753 369 754 324 753 l 274 753 l 274 650 l 306 650 b 399 638 368 650 392 642 b 436 582 426 625 436 603 b 404 524 436 556 425 536 b 326 508 393 517 371 508 b 242 528 282 508 257 518 b 211 590 215 546 211 567 l 211 594 z "},"¿":{"ha":940,"x_min":0,"x_max":0,"o":"m 638 42 l 638 36 b 592 -74 638 1 632 -42 b 474 -104 560 -100 511 -104 b 358 -76 436 -104 390 -97 b 317 0 331 -57 317 -32 b 346 69 317 28 325 49 b 418 122 364 88 386 101 l 457 147 b 549 232 489 168 522 192 b 583 375 581 281 583 331 l 583 393 l 375 393 l 375 379 b 333 276 375 342 365 308 b 235 214 306 249 269 232 l 192 192 b 56 -8 81 136 56 58 b 176 -226 56 -131 124 -193 b 467 -283 217 -251 301 -283 b 764 -212 561 -283 679 -271 b 882 31 871 -135 882 -26 l 882 42 z m 614 719 l 358 719 l 358 511 l 614 511 z "},"À":{"ha":1097,"x_min":0,"x_max":0,"o":"m 401 364 l 549 728 l 699 364 z m 339 197 l 760 197 l 844 0 l 1111 0 l 675 972 l 424 972 l -12 0 l 254 0 z m 607 1264 l 378 1264 l 554 1064 l 718 1064 z "},"Á":{"ha":1097,"x_min":0,"x_max":0,"o":"m 401 364 l 549 728 l 699 364 z m 339 197 l 760 197 l 844 0 l 1111 0 l 675 972 l 424 972 l -12 0 l 254 0 z m 489 1264 l 378 1064 l 542 1064 l 718 1264 z "},"Â":{"ha":1097,"x_min":0,"x_max":0,"o":"m 401 364 l 549 728 l 699 364 z m 339 197 l 760 197 l 844 0 l 1111 0 l 675 972 l 424 972 l -12 0 l 254 0 z m 550 1189 l 697 1064 l 893 1064 l 696 1247 l 401 1247 l 204 1064 l 401 1064 z "},"Ã":{"ha":1097,"x_min":0,"x_max":0,"o":"m 401 364 l 549 728 l 699 364 z m 339 197 l 760 197 l 844 0 l 1111 0 l 675 972 l 424 972 l -12 0 l 254 0 z m 736 1253 b 722 1204 735 1238 732 1217 b 676 1179 713 1188 697 1179 b 589 1211 650 1179 624 1193 l 543 1235 b 422 1265 510 1251 476 1265 b 285 1215 376 1265 328 1258 b 224 1078 253 1183 229 1132 l 361 1078 b 378 1125 361 1082 363 1104 b 428 1149 389 1140 404 1149 b 518 1114 460 1149 486 1131 l 561 1092 b 693 1061 588 1079 622 1061 b 810 1100 726 1061 772 1067 b 872 1253 858 1146 868 1229 z "},"Ä":{"ha":1097,"x_min":0,"x_max":0,"o":"m 401 364 l 549 728 l 699 364 z m 339 197 l 760 197 l 844 0 l 1111 0 l 675 972 l 424 972 l -12 0 l 254 0 z m 621 1064 l 836 1064 l 836 1218 l 621 1218 z m 256 1064 l 469 1064 l 469 1218 l 256 1218 z "},"Å":{"ha":1097,"x_min":0,"x_max":0,"o":"m 401 364 l 549 728 l 699 364 z m 339 197 l 760 197 l 844 0 l 1111 0 l 675 972 l 424 972 l -12 0 l 254 0 z m 464 1226 b 549 1311 464 1275 500 1311 b 633 1226 597 1311 633 1275 b 549 1142 633 1178 597 1142 b 464 1226 500 1142 464 1178 z m 385 1226 b 549 1063 385 1138 460 1063 b 713 1226 638 1063 713 1138 b 549 1390 713 1315 638 1390 b 385 1226 460 1390 385 1315 z "},"Æ":{"ha":1740,"x_min":0,"x_max":0,"o":"m 814 361 l 519 361 l 782 744 l 814 744 z m 411 194 l 814 194 l 814 0 l 1717 0 l 1717 194 l 1071 194 l 1071 403 l 1604 403 l 1604 586 l 1071 586 l 1071 778 l 1701 778 l 1701 972 l 678 972 l -7 0 l 282 0 z "},"Ç":{"ha":1175,"x_min":0,"x_max":0,"o":"m 869 340 b 797 203 865 269 829 225 b 628 165 747 168 678 165 b 419 236 561 165 485 174 b 336 482 376 279 336 354 b 417 728 336 611 378 685 b 626 804 482 796 556 804 b 790 765 678 804 736 799 b 863 646 840 733 858 694 l 1129 646 b 989 913 1125 796 1040 879 b 608 999 871 993 676 999 b 193 853 486 999 319 979 b 58 481 85 740 58 604 b 199 106 58 368 81 215 b 631 -29 325 -17 485 -29 b 982 47 754 -29 886 -19 b 1136 340 1047 92 1129 190 z m 426 -346 b 606 -372 481 -367 529 -372 b 758 -346 671 -372 721 -367 b 825 -226 807 -319 825 -282 b 760 -107 825 -181 814 -139 b 608 -78 744 -97 703 -78 b 521 -83 575 -78 542 -79 l 490 -178 b 571 -172 506 -176 539 -172 b 638 -179 592 -172 617 -174 b 675 -222 658 -185 675 -196 b 649 -261 675 -235 671 -251 b 588 -269 642 -265 625 -269 b 461 -250 553 -269 506 -262 z "},"È":{"ha":1039,"x_min":0,"x_max":0,"o":"m 360 586 l 360 778 l 990 778 l 990 972 l 104 972 l 104 0 l 1006 0 l 1006 194 l 360 194 l 360 403 l 893 403 l 893 586 z m 578 1264 l 349 1264 l 525 1064 l 689 1064 z "},"É":{"ha":1039,"x_min":0,"x_max":0,"o":"m 360 586 l 360 778 l 990 778 l 990 972 l 104 972 l 104 0 l 1006 0 l 1006 194 l 360 194 l 360 403 l 893 403 l 893 586 z m 460 1264 l 349 1064 l 513 1064 l 689 1264 z "},"Ê":{"ha":1039,"x_min":0,"x_max":0,"o":"m 360 586 l 360 778 l 990 778 l 990 972 l 104 972 l 104 0 l 1006 0 l 1006 194 l 360 194 l 360 403 l 893 403 l 893 586 z m 521 1189 l 668 1064 l 864 1064 l 667 1247 l 372 1247 l 175 1064 l 372 1064 z "},"Ë":{"ha":1039,"x_min":0,"x_max":0,"o":"m 360 586 l 360 778 l 990 778 l 990 972 l 104 972 l 104 0 l 1006 0 l 1006 194 l 360 194 l 360 403 l 893 403 l 893 586 z m 592 1064 l 807 1064 l 807 1218 l 592 1218 z m 226 1064 l 440 1064 l 440 1218 l 226 1218 z "},"Ì":{"ha":469,"x_min":0,"x_max":0,"o":"m 104 972 l 104 0 l 360 0 l 360 972 z m 250 1264 l 21 1264 l 197 1064 l 361 1064 z "},"Í":{"ha":469,"x_min":0,"x_max":0,"o":"m 104 972 l 104 0 l 360 0 l 360 972 z m 217 1264 l 106 1064 l 269 1064 l 446 1264 z "},"Î":{"ha":469,"x_min":0,"x_max":0,"o":"m 104 972 l 104 0 l 360 0 l 360 972 z m 238 1189 l 385 1064 l 581 1064 l 383 1247 l 89 1247 l -108 1064 l 89 1064 z "},"Ï":{"ha":469,"x_min":0,"x_max":0,"o":"m 104 972 l 104 0 l 360 0 l 360 972 z m 308 1064 l 524 1064 l 524 1218 l 308 1218 z m -57 1064 l 157 1064 l 157 1218 l -57 1218 z "},"Ð":{"ha":1249,"x_min":0,"x_max":0,"o":"m 424 778 l 581 778 b 829 707 653 778 760 769 b 911 489 878 663 911 585 b 821 263 911 394 875 308 b 567 194 751 204 644 194 l 424 194 l 424 436 l 642 436 l 642 583 l 424 583 z m 168 972 l 168 583 l 0 583 l 0 436 l 168 436 l 168 0 l 594 0 b 1054 135 719 0 922 7 b 1186 488 1133 213 1186 333 b 1054 836 1186 638 1136 758 b 618 972 929 958 753 972 z "},"Ñ":{"ha":1208,"x_min":0,"x_max":0,"o":"m 1099 972 l 843 972 l 843 319 l 354 972 l 104 972 l 104 0 l 360 0 l 360 653 l 850 0 l 1099 0 z m 792 1253 b 778 1204 790 1238 788 1217 b 732 1179 768 1188 753 1179 b 644 1211 706 1179 679 1193 l 599 1235 b 478 1265 565 1251 532 1265 b 340 1215 432 1265 383 1258 b 279 1078 308 1183 285 1132 l 417 1078 b 433 1125 417 1082 418 1104 b 483 1149 444 1140 460 1149 b 574 1114 515 1149 542 1131 l 617 1092 b 749 1061 643 1079 678 1061 b 865 1100 782 1061 828 1067 b 928 1253 914 1146 924 1229 z "},"Ò":{"ha":1276,"x_min":0,"x_max":0,"o":"m 636 806 b 847 731 701 806 781 796 b 936 486 928 654 936 540 b 847 242 936 432 928 318 b 636 167 781 176 701 167 b 425 242 571 167 492 176 b 336 486 344 318 336 432 b 425 731 336 540 344 654 b 636 806 492 796 571 806 z m 1214 486 b 1061 858 1214 603 1190 740 b 636 1000 989 924 858 1000 b 211 858 414 1000 283 924 b 58 486 82 740 58 603 b 211 114 58 372 81 229 b 636 -28 283 49 414 -28 b 1061 114 858 -28 989 49 b 1214 486 1192 229 1214 372 z m 697 1264 l 468 1264 l 644 1064 l 808 1064 z "},"Ó":{"ha":1276,"x_min":0,"x_max":0,"o":"m 636 806 b 847 731 701 806 781 796 b 936 486 928 654 936 540 b 847 242 936 432 928 318 b 636 167 781 176 701 167 b 425 242 571 167 492 176 b 336 486 344 318 336 432 b 425 731 336 540 344 654 b 636 806 492 796 571 806 z m 1214 486 b 1061 858 1214 603 1190 740 b 636 1000 989 924 858 1000 b 211 858 414 1000 283 924 b 58 486 82 740 58 603 b 211 114 58 372 81 229 b 636 -28 283 49 414 -28 b 1061 114 858 -28 989 49 b 1214 486 1192 229 1214 372 z m 579 1264 l 468 1064 l 632 1064 l 808 1264 z "},"Ô":{"ha":1276,"x_min":0,"x_max":0,"o":"m 636 806 b 847 731 701 806 781 796 b 936 486 928 654 936 540 b 847 242 936 432 928 318 b 636 167 781 176 701 167 b 425 242 571 167 492 176 b 336 486 344 318 336 432 b 425 731 336 540 344 654 b 636 806 492 796 571 806 z m 1214 486 b 1061 858 1214 603 1190 740 b 636 1000 989 924 858 1000 b 211 858 414 1000 283 924 b 58 486 82 740 58 603 b 211 114 58 372 81 229 b 636 -28 283 49 414 -28 b 1061 114 858 -28 989 49 b 1214 486 1192 229 1214 372 z m 639 1189 l 786 1064 l 982 1064 l 785 1247 l 490 1247 l 293 1064 l 490 1064 z "},"Õ":{"ha":1276,"x_min":0,"x_max":0,"o":"m 636 806 b 847 731 701 806 781 796 b 936 486 928 654 936 540 b 847 242 936 432 928 318 b 636 167 781 176 701 167 b 425 242 571 167 492 176 b 336 486 344 318 336 432 b 425 731 336 540 344 654 b 636 806 492 796 571 806 z m 1214 486 b 1061 858 1214 603 1190 740 b 636 1000 989 924 858 1000 b 211 858 414 1000 283 924 b 58 486 82 740 58 603 b 211 114 58 372 81 229 b 636 -28 283 49 414 -28 b 1061 114 858 -28 989 49 b 1214 486 1192 229 1214 372 z m 826 1253 b 813 1204 825 1238 822 1217 b 767 1179 803 1188 788 1179 b 679 1211 740 1179 714 1193 l 633 1235 b 513 1265 600 1251 567 1265 b 375 1215 467 1265 418 1258 b 314 1078 343 1183 319 1132 l 451 1078 b 468 1125 451 1082 453 1104 b 518 1149 479 1140 494 1149 b 608 1114 550 1149 576 1131 l 651 1092 b 783 1061 678 1079 713 1061 b 900 1100 817 1061 863 1067 b 963 1253 949 1146 958 1229 z "},"Ö":{"ha":1276,"x_min":0,"x_max":0,"o":"m 636 806 b 847 731 701 806 781 796 b 936 486 928 654 936 540 b 847 242 936 432 928 318 b 636 167 781 176 701 167 b 425 242 571 167 492 176 b 336 486 344 318 336 432 b 425 731 336 540 344 654 b 636 806 492 796 571 806 z m 1214 486 b 1061 858 1214 603 1190 740 b 636 1000 989 924 858 1000 b 211 858 414 1000 283 924 b 58 486 82 740 58 603 b 211 114 58 372 81 229 b 636 -28 283 49 414 -28 b 1061 114 858 -28 989 49 b 1214 486 1192 229 1214 372 z m 710 1064 l 925 1064 l 925 1218 l 710 1218 z m 344 1064 l 558 1064 l 558 1218 l 344 1218 z "},"×":{"ha":836,"x_min":0,"x_max":0,"o":"m 78 238 l 174 143 l 415 385 l 661 136 l 756 231 l 510 479 l 758 725 l 663 821 l 415 574 l 174 815 l 78 719 l 321 479 z "},"Ø":{"ha":1276,"x_min":0,"x_max":0,"o":"m 901 653 b 936 486 924 607 936 558 b 847 242 936 432 928 318 b 636 167 781 176 701 167 b 443 225 560 167 504 179 z m 636 806 b 831 746 715 806 771 792 l 371 319 b 336 486 349 365 336 414 b 425 731 336 540 344 654 b 636 806 492 796 571 806 z m 1214 486 b 1092 829 1214 621 1185 725 l 1232 960 l 1154 1047 l 1000 904 b 636 1000 899 967 792 1000 b 211 858 413 1000 285 925 b 58 486 82 740 58 603 b 182 143 58 351 89 244 l 42 13 l 121 -75 l 274 67 b 636 -28 374 6 481 -28 b 1061 114 858 -28 989 49 b 1214 486 1192 229 1214 372 z "},"Ù":{"ha":1156,"x_min":0,"x_max":0,"o":"m 1058 972 l 803 972 l 803 408 b 749 229 803 364 801 282 b 575 175 699 179 619 175 b 401 229 532 175 449 178 b 347 408 349 282 347 363 l 347 972 l 92 972 l 92 382 b 190 89 92 304 96 183 b 575 -25 294 -15 440 -25 b 960 89 710 -25 856 -15 b 1058 382 1054 183 1058 304 z m 579 1264 l 350 1264 l 526 1064 l 690 1064 z "},"Ú":{"ha":1156,"x_min":0,"x_max":0,"o":"m 1058 972 l 803 972 l 803 408 b 749 229 803 364 801 282 b 575 175 699 179 619 175 b 401 229 532 175 449 178 b 347 408 349 282 347 363 l 347 972 l 92 972 l 92 382 b 190 89 92 304 96 183 b 575 -25 294 -15 440 -25 b 960 89 710 -25 856 -15 b 1058 382 1054 183 1058 304 z m 560 1264 l 449 1064 l 613 1064 l 789 1264 z "},"Û":{"ha":1156,"x_min":0,"x_max":0,"o":"m 1058 972 l 803 972 l 803 408 b 749 229 803 364 801 282 b 575 175 699 179 619 175 b 401 229 532 175 449 178 b 347 408 349 282 347 363 l 347 972 l 92 972 l 92 382 b 190 89 92 304 96 183 b 575 -25 294 -15 440 -25 b 960 89 710 -25 856 -15 b 1058 382 1054 183 1058 304 z m 579 1189 l 726 1064 l 922 1064 l 725 1247 l 431 1247 l 233 1064 l 431 1064 z "},"Ü":{"ha":1156,"x_min":0,"x_max":0,"o":"m 1058 972 l 803 972 l 803 408 b 749 229 803 364 801 282 b 575 175 699 179 619 175 b 401 229 532 175 449 178 b 347 408 349 282 347 363 l 347 972 l 92 972 l 92 382 b 190 89 92 304 96 183 b 575 -25 294 -15 440 -25 b 960 89 710 -25 856 -15 b 1058 382 1054 183 1058 304 z m 650 1064 l 865 1064 l 865 1218 l 650 1218 z m 285 1064 l 499 1064 l 499 1218 l 285 1218 z "},"Ý":{"ha":1049,"x_min":0,"x_max":0,"o":"m 536 557 l 290 972 l -12 972 l 397 371 l 397 0 l 653 0 l 653 371 l 1063 972 l 779 972 z m 521 1264 l 410 1064 l 574 1064 l 750 1264 z "},"Þ":{"ha":1081,"x_min":0,"x_max":0,"o":"m 358 636 l 604 636 b 729 608 644 636 694 635 b 776 513 768 581 776 542 b 740 414 776 474 764 436 b 589 374 707 381 636 374 l 358 374 z m 104 972 l 104 0 l 360 0 l 360 179 l 608 179 b 963 281 749 179 874 185 b 1042 511 1028 351 1042 433 b 951 743 1042 586 1026 672 b 625 831 867 821 758 831 l 360 831 l 360 972 z "},"ß":{"ha":954,"x_min":0,"x_max":0,"o":"m 85 0 l 329 0 l 329 663 b 365 790 329 707 332 753 b 471 829 397 824 438 829 b 565 799 503 829 536 825 b 601 718 592 776 601 750 b 558 624 601 669 581 639 b 444 597 531 603 485 597 l 421 597 l 421 447 l 447 447 b 599 418 488 447 550 447 b 657 304 638 394 657 356 b 617 194 657 276 651 232 b 501 151 582 157 539 151 b 421 164 474 151 449 154 l 421 6 b 564 -10 476 -10 514 -10 b 819 64 643 -10 739 -10 b 910 290 890 126 910 207 b 840 475 910 356 896 421 b 683 550 797 515 738 540 l 683 556 b 778 607 732 565 763 590 b 824 735 815 646 824 692 b 721 931 824 839 771 897 b 467 988 650 976 557 988 b 168 888 392 988 258 981 b 85 599 86 803 85 686 z "},"à":{"ha":983,"x_min":0,"x_max":0,"o":""},"á":{"ha":983,"x_min":0,"x_max":0,"o":"m 635 314 b 585 167 635 238 614 196 b 447 118 542 124 492 118 b 354 140 418 118 381 119 b 325 200 338 153 325 174 b 358 260 325 233 346 250 b 457 285 382 275 417 281 l 508 290 b 635 325 579 297 607 301 z m 346 478 b 386 554 347 521 374 544 b 492 579 421 578 472 579 b 589 560 524 579 563 575 b 633 490 626 539 633 513 b 617 444 633 474 628 456 b 488 414 596 422 553 419 l 376 404 b 118 325 303 397 186 389 b 65 186 79 288 65 240 b 147 18 65 93 110 44 b 367 -26 207 -22 296 -26 b 535 -6 421 -26 479 -24 b 644 69 581 10 615 32 l 650 69 l 665 0 l 932 0 l 932 19 b 893 47 908 24 897 40 b 882 132 892 51 882 69 l 882 446 b 822 639 882 506 881 578 b 488 732 743 722 588 732 b 167 643 360 732 246 721 b 99 478 124 600 99 549 z m 488 989 l 376 789 l 540 789 l 717 989 z "},"â":{"ha":983,"x_min":0,"x_max":0,"o":""},"ã":{"ha":983,"x_min":0,"x_max":0,"o":"m 635 314 b 585 167 635 238 614 196 b 447 118 542 124 492 118 b 354 140 418 118 381 119 b 325 200 338 153 325 174 b 358 260 325 233 346 250 b 457 285 382 275 417 281 l 508 290 b 635 325 579 297 607 301 z m 346 478 b 386 554 347 521 374 544 b 492 579 421 578 472 579 b 589 560 524 579 563 575 b 633 490 626 539 633 513 b 617 444 633 474 628 456 b 488 414 596 422 553 419 l 376 404 b 118 325 303 397 186 389 b 65 186 79 288 65 240 b 147 18 65 93 110 44 b 367 -26 207 -22 296 -26 b 535 -6 421 -26 479 -24 b 644 69 581 10 615 32 l 650 69 l 665 0 l 932 0 l 932 19 b 893 47 908 24 897 40 b 882 132 892 51 882 69 l 882 446 b 822 639 882 506 881 578 b 488 732 743 722 588 732 b 167 643 360 732 246 721 b 99 478 124 600 99 549 z m 679 983 b 665 935 678 968 675 947 b 619 910 656 918 640 910 b 532 942 593 910 567 924 l 486 965 b 365 996 453 982 419 996 b 228 946 319 996 271 989 b 167 808 196 914 172 863 l 304 808 b 321 856 304 813 306 835 b 371 879 332 871 347 879 b 461 844 403 879 429 861 l 504 822 b 636 792 531 810 565 792 b 753 831 669 792 715 797 b 815 983 801 876 811 960 z "},"ä":{"ha":983,"x_min":0,"x_max":0,"o":""},"å":{"ha":983,"x_min":0,"x_max":0,"o":"m 635 314 b 585 167 635 238 614 196 b 447 118 542 124 492 118 b 354 140 418 118 381 119 b 325 200 338 153 325 174 b 358 260 325 233 346 250 b 457 285 382 275 417 281 l 508 290 b 635 325 579 297 607 301 z m 346 478 b 386 554 347 521 374 544 b 492 579 421 578 472 579 b 589 560 524 579 563 575 b 633 490 626 539 633 513 b 617 444 633 474 628 456 b 488 414 596 422 553 419 l 376 404 b 118 325 303 397 186 389 b 65 186 79 288 65 240 b 147 18 65 93 110 44 b 367 -26 207 -22 296 -26 b 535 -6 421 -26 479 -24 b 644 69 581 10 615 32 l 650 69 l 665 0 l 932 0 l 932 19 b 893 47 908 24 897 40 b 882 132 892 51 882 69 l 882 446 b 822 639 882 506 881 578 b 488 732 743 722 588 732 b 167 643 360 732 246 721 b 99 478 124 600 99 549 z m 407 950 b 492 1035 407 999 443 1035 b 576 950 540 1035 576 999 b 492 865 576 901 540 865 b 407 950 443 865 407 901 z m 328 950 b 492 786 328 861 403 786 b 656 950 581 786 656 861 b 492 1114 656 1039 581 1114 b 328 950 403 1114 328 1039 z "},"æ":{"ha":1574,"x_min":0,"x_max":0,"o":"m 624 315 b 572 167 624 238 599 193 b 436 118 529 124 479 118 b 342 140 415 118 368 119 b 313 201 325 153 313 175 b 343 261 313 233 328 251 b 444 288 364 276 396 282 l 496 293 b 624 328 569 300 597 306 z m 879 428 b 933 536 885 467 904 508 b 1075 582 976 575 1032 582 b 1214 540 1113 582 1174 578 b 1267 428 1240 517 1263 474 z m 1264 236 b 1203 153 1260 213 1247 179 b 1088 129 1168 132 1125 129 b 933 178 1042 129 978 135 b 879 299 901 207 883 253 l 1514 299 l 1514 318 b 1417 626 1514 417 1506 538 b 1075 732 1319 719 1179 732 b 881 696 1007 732 947 729 b 772 615 838 675 800 644 b 665 704 750 654 719 683 b 450 732 622 719 563 732 b 147 646 363 732 225 728 b 82 478 107 606 83 543 l 329 478 l 329 485 b 368 554 329 524 358 547 b 471 579 400 575 438 579 b 575 558 503 579 542 576 b 619 486 604 542 619 521 b 600 439 619 469 617 454 b 474 408 578 418 542 414 l 363 399 b 119 332 251 389 174 375 b 51 185 81 300 51 256 b 136 17 51 101 93 46 b 375 -26 188 -17 264 -26 b 593 4 453 -26 528 -22 b 733 131 671 36 711 90 b 867 10 760 81 799 39 b 1089 -26 921 -12 989 -26 b 1328 4 1171 -26 1263 -22 b 1501 236 1353 15 1490 69 z "},"ç":{"ha":958,"x_min":0,"x_max":0,"o":""},"è":{"ha":1001,"x_min":0,"x_max":0,"o":""},"é":{"ha":1001,"x_min":0,"x_max":0,"o":"m 306 432 b 364 543 310 486 336 521 b 501 582 407 576 451 582 b 646 540 547 582 603 578 b 696 432 667 524 692 489 z m 692 231 b 629 149 682 185 656 161 b 503 129 594 132 540 129 b 347 176 454 129 390 133 b 301 303 324 200 301 242 l 301 307 l 947 307 l 947 332 b 851 618 947 417 939 531 b 500 732 756 714 611 732 b 157 622 388 732 254 715 b 51 342 64 533 51 413 b 149 78 51 253 68 158 b 519 -26 239 -12 360 -26 b 785 11 635 -26 718 -18 b 938 231 881 54 928 140 z m 497 989 l 386 789 l 550 789 l 726 989 z "},"ê":{"ha":1001,"x_min":0,"x_max":0,"o":""},"ë":{"ha":1001,"x_min":0,"x_max":0,"o":"m 306 432 b 364 543 310 486 336 521 b 501 582 407 576 451 582 b 646 540 547 582 603 578 b 696 432 667 524 692 489 z m 692 231 b 629 149 682 185 656 161 b 503 129 594 132 540 129 b 347 176 454 129 390 133 b 301 303 324 200 301 242 l 301 307 l 947 307 l 947 332 b 851 618 947 417 939 531 b 500 732 756 714 611 732 b 157 622 388 732 254 715 b 51 342 64 533 51 413 b 149 78 51 253 68 158 b 519 -26 239 -12 360 -26 b 785 11 635 -26 718 -18 b 938 231 881 54 928 140 z m 571 829 l 786 829 l 786 983 l 571 983 z m 206 829 l 419 829 l 419 983 l 206 983 z "},"ì":{"ha":419,"x_min":0,"x_max":0,"o":""},"í":{"ha":419,"x_min":0,"x_max":0,"o":"m 85 706 l 85 0 l 329 0 l 329 706 z m 208 989 l 97 789 l 261 789 l 438 989 z "},"î":{"ha":419,"x_min":0,"x_max":0,"o":""},"ï":{"ha":419,"x_min":0,"x_max":0,"o":"m 85 706 l 85 0 l 329 0 l 329 706 z m 282 829 l 497 829 l 497 983 l 282 983 z m -83 829 l 131 829 l 131 983 l -83 983 z "},"ð":{"ha":1069,"x_min":0,"x_max":0,"o":"m 513 564 b 663 507 558 564 614 557 b 721 353 703 464 721 407 b 661 188 721 293 700 226 b 511 131 629 156 578 131 b 363 186 444 131 394 154 b 304 344 322 226 304 290 b 365 510 304 417 328 472 b 513 564 414 558 467 564 z m 243 967 b 435 929 307 958 371 946 l 240 831 l 285 744 l 546 878 b 714 775 611 856 671 818 b 808 563 768 721 803 651 l 799 563 b 681 676 778 597 746 643 b 468 718 610 714 528 718 b 157 614 388 718 253 706 b 51 349 103 563 51 481 b 149 86 51 221 100 135 b 506 -25 243 -8 388 -25 b 854 89 610 -25 747 -15 b 979 464 969 204 979 364 b 888 800 979 563 972 681 b 679 969 842 865 772 926 l 789 1032 l 740 1118 l 571 1026 b 263 1089 478 1058 378 1079 z "},"ñ":{"ha":985,"x_min":0,"x_max":0,"o":""},"ò":{"ha":1028,"x_min":0,"x_max":0,"o":""},"ó":{"ha":1028,"x_min":0,"x_max":0,"o":"m 513 574 b 663 521 557 574 618 565 b 721 353 700 483 721 424 b 663 185 721 282 700 222 b 513 132 618 140 557 132 b 363 185 468 132 407 140 b 304 353 325 222 304 282 b 363 521 304 424 325 483 b 513 574 407 565 468 574 z m 974 353 b 851 639 974 446 953 557 b 513 732 747 721 606 732 b 174 639 419 732 278 721 b 51 353 72 557 51 446 b 174 67 51 260 72 149 b 513 -26 276 -17 421 -26 b 851 67 604 -26 749 -17 b 974 353 953 149 974 260 z m 510 989 l 399 789 l 563 789 l 739 989 z "},"ô":{"ha":1028,"x_min":0,"x_max":0,"o":""},"õ":{"ha":1028,"x_min":0,"x_max":0,"o":"m 513 574 b 663 521 557 574 618 565 b 721 353 700 483 721 424 b 663 185 721 282 700 222 b 513 132 618 140 557 132 b 363 185 468 132 407 140 b 304 353 325 222 304 282 b 363 521 304 424 325 483 b 513 574 407 565 468 574 z m 974 353 b 851 639 974 446 953 557 b 513 732 747 721 606 732 b 174 639 419 732 278 721 b 51 353 72 557 51 446 b 174 67 51 260 72 149 b 513 -26 276 -17 421 -26 b 851 67 604 -26 749 -17 b 974 353 953 149 974 260 z m 701 983 b 688 935 700 968 697 947 b 642 910 678 918 663 910 b 554 942 615 910 589 924 l 508 965 b 388 996 475 982 442 996 b 250 946 342 996 293 989 b 189 808 218 914 194 863 l 326 808 b 343 856 326 813 328 835 b 393 879 354 871 369 879 b 483 844 425 879 451 861 l 526 822 b 658 792 553 810 588 792 b 775 831 692 792 738 797 b 838 983 824 876 833 960 z "},"ö":{"ha":1028,"x_min":0,"x_max":0,"o":""},"÷":{"ha":907,"x_min":0,"x_max":0,"o":"m 353 207 b 453 107 353 153 399 107 b 553 207 507 107 553 153 b 453 307 553 261 507 307 b 353 207 399 307 353 261 z m 353 721 b 453 621 353 667 399 621 b 553 721 507 621 553 667 b 453 821 553 775 507 821 b 353 721 399 821 353 775 z m 69 399 l 838 399 l 838 529 l 69 529 z "},"ø":{"ha":1028,"x_min":0,"x_max":0,"o":"m 699 465 b 721 353 710 439 721 407 b 663 185 721 282 700 222 b 513 132 618 140 558 132 b 388 165 461 132 425 139 z m 513 574 b 640 539 563 574 600 565 l 326 239 b 304 353 315 265 304 301 b 363 521 304 424 325 483 b 513 574 407 565 468 574 z m 974 353 b 867 625 974 465 949 547 l 950 706 l 883 772 l 786 679 b 513 732 696 722 619 732 b 174 639 421 732 279 721 b 51 353 72 557 51 446 b 160 79 51 242 78 158 l 78 0 l 144 -68 l 242 25 b 513 -26 331 -15 404 -26 b 851 67 603 -26 749 -18 b 974 353 953 149 974 260 z "},"ù":{"ha":981,"x_min":0,"x_max":0,"o":""},"ú":{"ha":981,"x_min":0,"x_max":0,"o":"m 663 0 l 890 0 l 890 706 l 646 706 l 646 365 b 597 189 646 306 642 238 b 474 142 560 149 511 142 b 365 178 417 142 383 160 b 325 315 326 214 325 275 l 325 706 l 81 706 l 81 271 b 154 46 81 213 83 113 b 386 -22 217 -14 325 -22 b 551 3 465 -22 517 -12 b 657 88 611 29 647 75 l 663 88 z m 486 989 l 375 789 l 539 789 l 715 989 z "},"û":{"ha":981,"x_min":0,"x_max":0,"o":""},"ü":{"ha":981,"x_min":0,"x_max":0,"o":"m 663 0 l 890 0 l 890 706 l 646 706 l 646 365 b 597 189 646 306 642 238 b 474 142 560 149 511 142 b 365 178 417 142 383 160 b 325 315 326 214 325 275 l 325 706 l 81 706 l 81 271 b 154 46 81 213 83 113 b 386 -22 217 -14 325 -22 b 551 3 465 -22 517 -12 b 657 88 611 29 647 75 l 663 88 z m 561 829 l 776 829 l 776 983 l 561 983 z m 196 829 l 410 829 l 410 983 l 196 983 z "},"ý":{"ha":832,"x_min":0,"x_max":0,"o":""},"þ":{"ha":1021,"x_min":0,"x_max":0,"o":"m 518 572 b 663 514 586 572 631 549 b 714 354 694 476 714 422 b 663 190 714 329 711 246 b 522 133 624 144 578 133 b 378 188 449 133 404 161 b 322 350 339 228 322 293 b 382 518 322 413 343 475 b 518 572 425 563 474 572 z m 85 972 l 85 -257 l 329 -257 l 329 75 b 424 1 351 46 386 17 b 586 -22 446 -8 490 -22 b 864 68 674 -22 779 -17 b 967 358 953 154 967 272 b 864 639 967 444 953 554 b 589 728 778 717 679 728 b 414 694 539 728 474 724 b 322 617 382 678 349 651 l 318 617 l 318 972 z "},"ÿ":{"ha":832,"x_min":0,"x_max":0,"o":"m 82 -246 b 222 -265 133 -262 168 -265 b 425 -200 293 -265 363 -260 b 532 -12 474 -156 500 -85 l 832 706 l 603 706 l 439 235 l 251 706 l 6 706 l 306 43 l 292 1 b 239 -83 282 -26 261 -65 b 156 -107 218 -100 188 -107 b 82 -94 146 -107 117 -106 z m 486 829 l 701 829 l 701 983 l 486 983 z m 121 829 l 335 829 l 335 983 l 121 983 z "},"Ā":{"ha":1097,"x_min":0,"x_max":0,"o":"m 401 364 l 549 728 l 699 364 z m 339 197 l 760 197 l 844 0 l 1111 0 l 675 972 l 424 972 l -12 0 l 254 0 z m 293 1064 l 804 1064 l 804 1190 l 293 1190 z "},"ā":{"ha":983,"x_min":0,"x_max":0,"o":"m 635 314 b 585 167 635 238 614 196 b 447 118 542 124 492 118 b 354 140 418 118 381 119 b 325 200 338 153 325 174 b 358 260 325 233 346 250 b 457 285 382 275 417 281 l 508 290 b 635 325 579 297 607 301 z m 346 478 b 386 554 347 521 374 544 b 492 579 421 578 472 579 b 589 560 524 579 563 575 b 633 490 626 539 633 513 b 617 444 633 474 628 456 b 488 414 596 422 553 419 l 376 404 b 118 325 303 397 186 389 b 65 186 79 288 65 240 b 147 18 65 93 110 44 b 367 -26 207 -22 296 -26 b 535 -6 421 -26 479 -24 b 644 69 581 10 615 32 l 650 69 l 665 0 l 932 0 l 932 19 b 893 47 908 24 897 40 b 882 132 892 51 882 69 l 882 446 b 822 639 882 506 881 578 b 488 732 743 722 588 732 b 167 643 360 732 246 721 b 99 478 124 600 99 549 z m 236 831 l 747 831 l 747 957 l 236 957 z "},"Ă":{"ha":1097,"x_min":0,"x_max":0,"o":"m 401 364 l 549 728 l 699 364 z m 339 197 l 760 197 l 844 0 l 1111 0 l 675 972 l 424 972 l -12 0 l 254 0 z m 675 1268 b 638 1190 679 1225 654 1200 b 549 1172 632 1186 608 1172 b 460 1190 528 1172 486 1174 b 422 1268 446 1200 418 1222 l 246 1268 b 296 1133 246 1240 244 1181 b 554 1064 358 1071 463 1064 b 799 1129 632 1064 740 1068 b 850 1268 825 1156 851 1203 z "},"ă":{"ha":983,"x_min":0,"x_max":0,"o":""},"Ą":{"ha":1097,"x_min":0,"x_max":0,"o":"m 401 364 l 549 728 l 699 364 z m 339 197 l 760 197 l 844 0 b 751 -71 813 -15 781 -36 b 708 -187 719 -108 708 -142 b 772 -308 708 -233 722 -276 b 914 -342 821 -340 876 -342 b 1044 -324 964 -342 1001 -336 b 1153 -276 1096 -308 1138 -286 l 1115 -176 b 1008 -222 1083 -193 1040 -212 b 932 -233 983 -229 958 -233 b 874 -215 914 -233 890 -232 b 857 -172 858 -200 857 -185 b 897 -79 857 -128 876 -100 b 1019 0 931 -46 982 -15 l 1111 0 l 675 972 l 424 972 l -12 0 l 254 0 z "},"ą":{"ha":983,"x_min":0,"x_max":0,"o":"m 635 314 b 585 167 635 238 614 196 b 447 118 542 124 492 118 b 354 140 418 118 381 119 b 325 200 338 153 325 174 b 358 260 325 233 346 250 b 457 285 382 275 417 281 l 508 290 b 635 325 579 297 607 301 z m 346 478 b 386 554 347 521 374 544 b 492 579 421 578 472 579 b 589 560 524 579 563 575 b 633 490 626 539 633 513 b 617 444 633 474 628 456 b 488 414 596 422 553 419 l 376 404 b 118 325 303 397 186 389 b 65 186 79 288 65 240 b 147 18 65 93 110 44 b 367 -26 207 -22 296 -26 b 535 -6 421 -26 479 -24 b 644 69 581 10 615 32 l 650 69 l 665 0 l 771 0 b 681 -69 733 -18 704 -40 b 638 -185 654 -101 638 -131 b 701 -303 638 -239 658 -274 b 840 -336 750 -335 800 -336 b 969 -318 892 -336 918 -333 b 1076 -272 1007 -307 1038 -299 l 1040 -178 b 936 -222 1017 -190 965 -212 b 858 -233 908 -232 885 -233 b 797 -215 843 -233 815 -233 b 781 -172 788 -206 781 -193 b 822 -76 781 -129 800 -99 b 932 0 849 -49 883 -21 l 932 19 b 893 47 908 24 897 40 b 882 132 892 51 882 69 l 882 446 b 822 639 882 506 881 578 b 488 732 743 722 588 732 b 167 643 360 732 246 721 b 99 478 124 600 99 549 z "},"Ć":{"ha":1175,"x_min":0,"x_max":0,"o":"m 869 340 b 797 203 865 269 829 225 b 628 165 747 168 678 165 b 419 236 561 165 485 174 b 336 482 376 279 336 354 b 417 728 336 611 378 685 b 626 804 482 796 556 804 b 790 765 678 804 736 799 b 863 646 840 733 858 694 l 1129 646 b 989 913 1125 796 1040 879 b 608 999 871 993 676 999 b 193 853 486 999 319 979 b 58 481 85 740 58 604 b 199 106 58 368 81 215 b 631 -29 325 -17 485 -29 b 982 47 754 -29 886 -19 b 1136 340 1047 92 1129 190 z m 578 1264 l 467 1064 l 631 1064 l 807 1264 z "},"ć":{"ha":958,"x_min":0,"x_max":0,"o":""},"Ĉ":{"ha":1175,"x_min":0,"x_max":0,"o":"m 869 340 b 797 203 865 269 829 225 b 628 165 747 168 678 165 b 419 236 561 165 485 174 b 336 482 376 279 336 354 b 417 728 336 611 378 685 b 626 804 482 796 556 804 b 790 765 678 804 736 799 b 863 646 840 733 858 694 l 1129 646 b 989 913 1125 796 1040 879 b 608 999 871 993 676 999 b 193 853 486 999 319 979 b 58 481 85 740 58 604 b 199 106 58 368 81 215 b 631 -29 325 -17 485 -29 b 982 47 754 -29 886 -19 b 1136 340 1047 92 1129 190 z m 589 1189 l 736 1064 l 932 1064 l 735 1247 l 440 1247 l 243 1064 l 440 1064 z "},"ĉ":{"ha":958,"x_min":0,"x_max":0,"o":""},"Č":{"ha":1175,"x_min":0,"x_max":0,"o":"m 869 340 b 797 203 865 269 829 225 b 628 165 747 168 678 165 b 419 236 561 165 485 174 b 336 482 376 279 336 354 b 417 728 336 611 378 685 b 626 804 482 796 556 804 b 790 765 678 804 736 799 b 863 646 840 733 858 694 l 1129 646 b 989 913 1125 796 1040 879 b 608 999 871 993 676 999 b 193 853 486 999 319 979 b 58 481 85 740 58 604 b 199 106 58 368 81 215 b 631 -29 325 -17 485 -29 b 982 47 754 -29 886 -19 b 1136 340 1047 92 1129 190 z m 589 1122 l 440 1247 l 243 1247 l 442 1064 l 735 1064 l 932 1247 l 736 1247 z "},"č":{"ha":958,"x_min":0,"x_max":0,"o":""},"Ď":{"ha":1185,"x_min":0,"x_max":0,"o":"m 360 778 l 522 778 b 767 711 594 778 692 775 b 853 488 807 676 853 606 b 761 261 853 375 810 301 b 507 194 683 197 575 194 l 360 194 z m 104 972 l 104 0 l 532 0 b 993 133 664 0 864 4 b 1122 490 1053 193 1122 301 b 993 836 1122 582 1106 728 b 556 972 882 944 710 972 z m 532 1122 l 383 1247 l 186 1247 l 385 1064 l 678 1064 l 875 1247 l 679 1247 z "},"ď":{"ha":1175,"x_min":0,"x_max":0,"o":"m 500 572 b 651 507 540 572 606 564 b 699 354 683 467 699 406 b 636 182 699 293 679 225 b 503 133 596 142 551 133 b 364 186 453 133 404 143 b 307 353 325 229 307 293 b 356 513 307 414 321 472 b 500 572 399 561 451 572 z m 703 83 l 703 0 l 936 0 l 936 972 l 692 972 l 692 625 b 603 697 669 658 646 679 b 439 728 547 724 504 728 b 161 636 361 728 250 721 b 51 350 107 586 51 494 b 146 74 51 228 89 133 b 431 -22 232 -15 335 -22 b 604 3 496 -22 553 -19 b 697 83 653 24 679 51 z m 1011 808 l 1114 808 l 1114 804 b 1082 719 1114 772 1103 738 b 1011 696 1064 703 1033 696 l 1011 615 b 1149 665 1051 617 1108 625 b 1203 843 1189 708 1203 767 l 1203 972 l 1011 972 z "},"Đ":{"ha":1249,"x_min":0,"x_max":0,"o":"m 424 778 l 581 778 b 829 707 653 778 760 769 b 911 489 878 663 911 585 b 821 263 911 394 875 308 b 567 194 751 204 644 194 l 424 194 l 424 436 l 642 436 l 642 583 l 424 583 z m 168 972 l 168 583 l 0 583 l 0 436 l 168 436 l 168 0 l 594 0 b 1054 135 719 0 922 7 b 1186 488 1133 213 1186 333 b 1054 836 1186 638 1136 758 b 618 972 929 958 753 972 z "},"đ":{"ha":1049,"x_min":0,"x_max":0,"o":"m 501 572 b 651 507 540 572 606 564 b 699 354 683 467 699 406 b 636 182 699 293 679 225 b 503 133 596 142 551 133 b 364 186 453 133 403 143 b 307 358 321 231 307 303 b 356 513 307 413 321 472 b 501 572 385 547 431 572 z m 703 83 l 703 0 l 936 0 l 936 783 l 1076 783 l 1076 886 l 936 886 l 936 972 l 692 972 l 692 886 l 397 886 l 397 783 l 692 783 l 692 625 b 606 696 671 651 649 675 b 442 728 550 724 497 728 b 161 636 360 728 250 721 b 51 353 108 583 51 500 b 146 74 51 226 89 133 b 431 -22 232 -15 335 -22 b 613 8 486 -22 551 -19 b 697 83 650 26 678 51 z "},"Ē":{"ha":1039,"x_min":0,"x_max":0,"o":"m 360 586 l 360 778 l 990 778 l 990 972 l 104 972 l 104 0 l 1006 0 l 1006 194 l 360 194 l 360 403 l 893 403 l 893 586 z m 264 1064 l 775 1064 l 775 1190 l 264 1190 z "},"ē":{"ha":1001,"x_min":0,"x_max":0,"o":"m 306 432 b 364 543 310 486 336 521 b 501 582 407 576 451 582 b 646 540 547 582 603 578 b 696 432 667 524 692 489 z m 692 231 b 629 149 682 185 656 161 b 503 129 594 132 540 129 b 347 176 454 129 390 133 b 301 303 324 200 301 242 l 301 307 l 947 307 l 947 332 b 851 618 947 417 939 531 b 500 732 756 714 611 732 b 157 622 388 732 254 715 b 51 342 64 533 51 413 b 149 78 51 253 68 158 b 519 -26 239 -12 360 -26 b 785 11 635 -26 718 -18 b 938 231 881 54 928 140 z m 244 831 l 756 831 l 756 957 l 244 957 z "},"Ė":{"ha":1039,"x_min":0,"x_max":0,"o":"m 360 586 l 360 778 l 990 778 l 990 972 l 104 972 l 104 0 l 1006 0 l 1006 194 l 360 194 l 360 403 l 893 403 l 893 586 z m 410 1064 l 622 1064 l 622 1221 l 410 1221 z "},"ė":{"ha":1001,"x_min":0,"x_max":0,"o":""},"Ę":{"ha":1039,"x_min":0,"x_max":0,"o":"m 360 586 l 360 778 l 990 778 l 990 972 l 104 972 l 104 0 l 831 0 b 738 -71 799 -15 767 -36 b 694 -187 706 -108 694 -142 b 758 -308 694 -233 708 -276 b 900 -342 807 -340 863 -342 b 1031 -324 950 -342 988 -336 b 1139 -276 1082 -308 1124 -286 l 1101 -176 b 994 -222 1069 -193 1026 -212 b 918 -233 969 -229 944 -233 b 860 -215 900 -233 876 -232 b 843 -172 844 -200 843 -185 b 883 -79 843 -128 863 -100 b 1006 0 917 -46 968 -15 l 1006 194 l 360 194 l 360 403 l 893 403 l 893 586 z "},"ę":{"ha":1001,"x_min":0,"x_max":0,"o":"m 306 432 b 364 543 310 486 336 521 b 501 582 407 576 451 582 b 646 540 547 582 603 578 b 696 432 667 524 692 489 z m 692 231 b 629 149 682 185 656 161 b 503 129 594 132 540 129 b 347 176 454 129 390 133 b 301 303 324 200 301 242 l 301 307 l 947 307 l 947 332 b 851 618 947 417 939 531 b 500 732 756 714 611 732 b 157 622 388 732 254 715 b 51 342 64 533 51 413 b 149 78 51 253 68 158 b 549 -26 249 -22 389 -26 b 503 -69 535 -36 519 -50 b 460 -185 476 -101 460 -131 b 524 -303 460 -239 481 -274 b 663 -336 572 -335 622 -336 b 792 -318 714 -336 740 -333 b 899 -272 829 -307 860 -299 l 863 -178 b 758 -222 839 -190 788 -212 b 681 -233 731 -232 707 -233 b 619 -215 665 -233 638 -233 b 603 -172 610 -206 603 -193 b 644 -76 603 -129 622 -100 b 785 11 693 -24 739 -10 b 938 231 826 32 926 88 z "},"Ě":{"ha":1039,"x_min":0,"x_max":0,"o":"m 360 586 l 360 778 l 990 778 l 990 972 l 104 972 l 104 0 l 1006 0 l 1006 194 l 360 194 l 360 403 l 893 403 l 893 586 z m 521 1122 l 372 1247 l 175 1247 l 374 1064 l 667 1064 l 864 1247 l 668 1247 z "},"ě":{"ha":1001,"x_min":0,"x_max":0,"o":""},"Ĝ":{"ha":1242,"x_min":0,"x_max":0,"o":"m 672 521 l 672 363 l 897 363 b 822 218 888 294 854 244 b 636 167 768 174 697 167 b 422 239 564 167 489 174 b 336 481 379 279 336 354 b 419 733 336 579 363 674 b 636 807 482 796 564 807 b 796 772 685 807 742 804 b 874 654 850 740 869 703 l 1140 654 b 983 922 1136 729 1111 840 b 618 1001 938 949 838 1001 b 207 865 497 1001 332 988 b 58 476 142 803 58 683 b 186 107 58 303 115 181 b 582 -28 301 -17 453 -28 b 826 11 654 -28 749 -26 b 963 140 876 35 925 78 l 971 0 l 1151 0 l 1151 521 z m 622 1189 l 769 1064 l 965 1064 l 768 1247 l 474 1247 l 276 1064 l 474 1064 z "},"ĝ":{"ha":1006,"x_min":0,"x_max":0,"o":""},"Ğ":{"ha":1242,"x_min":0,"x_max":0,"o":"m 672 521 l 672 363 l 897 363 b 822 218 888 294 854 244 b 636 167 768 174 697 167 b 422 239 564 167 489 174 b 336 481 379 279 336 354 b 419 733 336 579 363 674 b 636 807 482 796 564 807 b 796 772 685 807 742 804 b 874 654 850 740 869 703 l 1140 654 b 983 922 1136 729 1111 840 b 618 1001 938 949 838 1001 b 207 865 497 1001 332 988 b 58 476 142 803 58 683 b 186 107 58 303 115 181 b 582 -28 301 -17 453 -28 b 826 11 654 -28 749 -26 b 963 140 876 35 925 78 l 971 0 l 1151 0 l 1151 521 z m 747 1268 b 710 1190 751 1225 726 1200 b 621 1172 704 1186 681 1172 b 532 1190 600 1172 558 1174 b 494 1268 518 1200 490 1222 l 318 1268 b 368 1133 318 1240 317 1181 b 626 1064 431 1071 535 1064 b 871 1129 704 1064 813 1068 b 922 1268 897 1156 924 1203 z "},"ğ":{"ha":1006,"x_min":0,"x_max":0,"o":""},"Ģ":{"ha":1242,"x_min":0,"x_max":0,"o":"m 672 521 l 672 363 l 897 363 b 822 218 888 294 854 244 b 636 167 768 174 697 167 b 422 239 564 167 489 174 b 336 481 379 279 336 354 b 419 733 336 579 363 674 b 636 807 482 796 564 807 b 796 772 685 807 742 804 b 874 654 850 740 869 703 l 1140 654 b 983 922 1136 729 1111 840 b 618 1001 938 949 838 1001 b 207 865 497 1001 332 988 b 58 476 142 803 58 683 b 186 107 58 303 115 181 b 582 -28 301 -17 453 -28 b 826 11 654 -28 749 -26 b 963 140 876 35 925 78 l 971 0 l 1151 0 l 1151 521 z m 503 -85 l 503 -237 l 629 -237 b 585 -301 628 -258 619 -286 b 510 -314 564 -311 531 -314 l 503 -314 l 503 -406 l 507 -406 b 682 -346 586 -406 644 -386 b 729 -207 725 -300 729 -244 l 729 -85 z "},"ģ":{"ha":1006,"x_min":0,"x_max":0,"o":"m 308 360 b 369 526 308 442 338 494 b 492 575 404 561 443 575 b 628 522 551 575 599 554 b 681 364 665 483 681 418 b 628 208 681 315 667 249 b 499 161 590 169 542 161 b 360 213 458 161 403 168 b 308 360 325 249 308 297 z m 106 -43 b 213 -225 106 -106 128 -176 b 478 -272 236 -237 306 -272 b 829 -182 633 -272 756 -256 b 915 86 911 -100 915 39 l 915 706 l 685 706 l 685 624 l 678 624 b 588 700 657 651 631 679 b 431 728 554 715 507 728 b 156 629 343 728 238 711 b 56 349 104 575 56 492 b 150 103 56 261 74 175 b 421 14 232 29 321 14 b 583 38 504 14 551 22 b 665 103 604 47 638 65 l 671 103 l 671 50 b 628 -83 671 17 668 -47 b 496 -122 588 -121 518 -122 b 396 -106 464 -122 422 -118 b 350 -43 358 -87 351 -61 z m 576 783 l 576 936 l 450 936 b 494 1000 451 957 460 985 b 569 1013 515 1010 549 1013 l 576 1013 l 576 1104 l 572 1104 b 397 1044 493 1104 435 1085 b 350 906 354 999 350 943 l 350 783 z "},"Ĥ":{"ha":1186,"x_min":0,"x_max":0,"o":"m 360 414 l 821 414 l 821 0 l 1076 0 l 1076 972 l 821 972 l 821 608 l 360 608 l 360 972 l 104 972 l 104 0 l 360 0 z m 594 1189 l 742 1064 l 938 1064 l 740 1247 l 446 1247 l 249 1064 l 446 1064 z "},"ĥ":{"ha":985,"x_min":0,"x_max":0,"o":""},"Ī":{"ha":469,"x_min":0,"x_max":0,"o":"m 104 972 l 104 0 l 360 0 l 360 972 z m -19 1064 l 492 1064 l 492 1190 l -19 1190 z "},"ī":{"ha":419,"x_min":0,"x_max":0,"o":"m 85 706 l 85 0 l 329 0 l 329 706 z m -44 831 l 467 831 l 467 957 l -44 957 z "},"Į":{"ha":469,"x_min":0,"x_max":0,"o":"m 104 972 l 104 0 l 185 0 b 92 -71 153 -15 121 -36 b 49 -187 60 -108 49 -142 b 113 -308 49 -233 63 -276 b 254 -342 161 -340 217 -342 b 385 -324 304 -342 342 -336 b 493 -276 436 -308 478 -286 l 456 -176 b 349 -222 424 -193 381 -212 b 272 -233 324 -229 299 -233 b 214 -215 254 -233 231 -232 b 197 -172 199 -200 197 -185 b 238 -79 197 -128 217 -100 b 360 0 271 -46 322 -15 l 360 972 z "},"į":{"ha":419,"x_min":0,"x_max":0,"o":"m 85 818 l 329 818 l 329 982 l 85 982 z m 85 706 l 85 0 l 190 0 b 104 -72 158 -18 125 -46 b 64 -179 75 -110 64 -146 b 131 -301 64 -222 82 -269 b 300 -336 179 -333 240 -336 b 440 -308 349 -336 397 -335 b 517 -154 508 -271 517 -193 l 381 -154 b 363 -215 382 -172 378 -200 b 297 -236 347 -232 319 -236 b 232 -215 276 -236 247 -231 b 211 -161 219 -203 211 -179 b 250 -69 211 -132 228 -96 b 329 0 265 -51 303 -21 l 329 706 z "},"İ":{"ha":469,"x_min":0,"x_max":0,"o":"m 104 972 l 104 0 l 360 0 l 360 972 z m 125 1064 l 338 1064 l 338 1221 l 125 1221 z "},"ı":{"ha":419,"x_min":0,"x_max":0,"o":"m 85 706 l 85 0 l 329 0 l 329 706 z "},"Ĵ":{"ha":935,"x_min":0,"x_max":0,"o":"m 36 367 l 36 333 b 121 64 36 274 38 147 b 442 -28 210 -29 354 -28 b 746 63 525 -28 653 -31 b 838 351 826 143 838 261 l 838 972 l 582 972 l 582 350 b 544 207 582 313 581 251 b 435 167 513 172 474 167 b 326 204 406 167 360 167 b 292 338 292 242 292 289 l 292 367 z m 700 1189 l 847 1064 l 1043 1064 l 846 1247 l 551 1247 l 354 1064 l 551 1064 z "},"ĵ":{"ha":431,"x_min":0,"x_max":0,"o":"m 96 706 l 96 54 b 71 -76 96 -6 93 -53 b 1 -100 50 -99 18 -100 b -40 -96 -12 -100 -26 -99 l -40 -249 b 89 -261 3 -258 39 -261 b 276 -204 138 -261 222 -258 b 340 -3 336 -144 340 -56 l 340 706 z m 218 914 l 365 789 l 561 789 l 364 972 l 69 972 l -128 789 l 69 789 z "},"Ķ":{"ha":1125,"x_min":0,"x_max":0,"o":"m 360 565 l 360 972 l 104 972 l 104 0 l 360 0 l 360 308 l 486 422 l 825 0 l 1139 1 l 657 565 l 1113 972 l 796 972 z m 444 -85 l 444 -237 l 571 -237 b 526 -301 569 -258 561 -286 b 451 -314 506 -311 472 -314 l 444 -314 l 444 -406 l 449 -406 b 624 -346 528 -406 586 -386 b 671 -207 667 -300 671 -244 l 671 -85 z "},"ķ":{"ha":906,"x_min":0,"x_max":0,"o":"m 329 433 l 329 972 l 85 972 l 85 0 l 329 0 l 329 218 l 424 300 l 647 0 l 919 0 l 576 425 l 904 706 l 628 706 z m 335 -85 l 335 -237 l 461 -237 b 417 -301 460 -258 451 -286 b 342 -314 396 -311 363 -314 l 335 -314 l 335 -406 l 339 -406 b 514 -346 418 -406 476 -386 b 561 -207 557 -300 561 -244 l 561 -85 z "},"Ĺ":{"ha":911,"x_min":0,"x_max":0,"o":"m 892 197 l 360 197 l 360 972 l 104 972 l 104 0 l 892 0 z m 244 1264 l 133 1064 l 297 1064 l 474 1264 z "},"ĺ":{"ha":419,"x_min":0,"x_max":0,"o":""},"Ļ":{"ha":911,"x_min":0,"x_max":0,"o":"m 892 197 l 360 197 l 360 972 l 104 972 l 104 0 l 892 0 z m 338 -85 l 338 -237 l 464 -237 b 419 -301 463 -258 454 -286 b 344 -314 399 -311 365 -314 l 338 -314 l 338 -406 l 342 -406 b 517 -346 421 -406 479 -386 b 564 -207 560 -300 564 -244 l 564 -85 z "},"ļ":{"ha":419,"x_min":0,"x_max":0,"o":"m 85 972 l 85 0 l 329 0 l 329 972 z m 94 -85 l 94 -237 l 221 -237 b 176 -301 219 -258 211 -286 b 101 -314 156 -311 122 -314 l 94 -314 l 94 -406 l 99 -406 b 274 -346 178 -406 236 -386 b 321 -207 317 -300 321 -244 l 321 -85 z "},"Ľ":{"ha":911,"x_min":0,"x_max":0,"o":"m 892 197 l 360 197 l 360 972 l 104 972 l 104 0 l 892 0 z m 636 808 l 736 808 l 736 804 b 704 719 736 772 725 738 b 636 696 689 704 660 696 l 636 615 b 774 665 676 617 733 625 b 828 843 814 708 828 767 l 828 972 l 636 972 z "},"ľ":{"ha":556,"x_min":0,"x_max":0,"o":"m 85 972 l 85 0 l 329 0 l 329 972 z m 392 808 l 494 808 l 494 804 b 463 719 494 772 483 738 b 392 696 444 703 414 696 l 392 615 b 529 665 432 617 489 625 b 583 843 569 708 583 767 l 583 972 l 392 972 z "},"Ł":{"ha":976,"x_min":0,"x_max":0,"o":"m 957 197 l 425 197 l 425 431 l 675 629 l 675 782 l 425 585 l 425 972 l 169 972 l 169 435 l 0 311 l 0 157 l 169 281 l 169 0 l 957 0 z "},"ł":{"ha":597,"x_min":0,"x_max":0,"o":"m 176 972 l 176 550 l -28 432 l -28 315 l 176 431 l 176 0 l 421 0 l 421 538 l 625 661 l 625 779 l 421 657 l 421 972 z "},"Ń":{"ha":1208,"x_min":0,"x_max":0,"o":"m 1099 972 l 843 972 l 843 319 l 354 972 l 104 972 l 104 0 l 360 0 l 360 653 l 850 0 l 1099 0 z m 544 1264 l 433 1064 l 597 1064 l 774 1264 z "},"ń":{"ha":985,"x_min":0,"x_max":0,"o":""},"Ņ":{"ha":1208,"x_min":0,"x_max":0,"o":"m 1099 972 l 843 972 l 843 319 l 354 972 l 104 972 l 104 0 l 360 0 l 360 653 l 850 0 l 1099 0 z m 486 -85 l 486 -237 l 613 -237 b 568 -301 611 -258 603 -286 b 493 -314 547 -311 514 -314 l 486 -314 l 486 -406 l 490 -406 b 665 -346 569 -406 628 -386 b 713 -207 708 -300 713 -244 l 713 -85 z "},"ņ":{"ha":985,"x_min":0,"x_max":0,"o":"m 85 706 l 85 0 l 329 0 l 329 324 b 386 515 329 407 349 476 b 514 565 408 539 449 565 b 613 532 563 565 594 550 b 654 382 650 497 654 439 l 654 0 l 899 0 l 899 436 b 796 678 899 521 888 619 b 575 729 776 690 710 729 b 418 697 532 729 474 725 b 319 619 379 676 346 649 l 319 706 z m 375 -85 l 375 -237 l 501 -237 b 457 -301 500 -258 492 -286 b 382 -314 436 -311 403 -314 l 375 -314 l 375 -406 l 379 -406 b 554 -346 458 -406 517 -386 b 601 -207 597 -300 601 -244 l 601 -85 z "},"Ň":{"ha":1208,"x_min":0,"x_max":0,"o":"m 1099 972 l 843 972 l 843 319 l 354 972 l 104 972 l 104 0 l 360 0 l 360 653 l 850 0 l 1099 0 z m 606 1122 l 457 1247 l 260 1247 l 458 1064 l 751 1064 l 949 1247 l 753 1247 z "},"ň":{"ha":985,"x_min":0,"x_max":0,"o":""},"Ō":{"ha":1276,"x_min":0,"x_max":0,"o":"m 636 806 b 847 731 701 806 781 796 b 936 486 928 654 936 540 b 847 242 936 432 928 318 b 636 167 781 176 701 167 b 425 242 571 167 492 176 b 336 486 344 318 336 432 b 425 731 336 540 344 654 b 636 806 492 796 571 806 z m 1214 486 b 1061 858 1214 603 1190 740 b 636 1000 989 924 858 1000 b 211 858 414 1000 283 924 b 58 486 82 740 58 603 b 211 114 58 372 81 229 b 636 -28 283 49 414 -28 b 1061 114 858 -28 989 49 b 1214 486 1192 229 1214 372 z m 382 1064 l 893 1064 l 893 1190 l 382 1190 z "},"ō":{"ha":1028,"x_min":0,"x_max":0,"o":"m 513 574 b 663 521 557 574 618 565 b 721 353 700 483 721 424 b 663 185 721 282 700 222 b 513 132 618 140 557 132 b 363 185 468 132 407 140 b 304 353 325 222 304 282 b 363 521 304 424 325 483 b 513 574 407 565 468 574 z m 974 353 b 851 639 974 446 953 557 b 513 732 747 721 606 732 b 174 639 419 732 278 721 b 51 353 72 557 51 446 b 174 67 51 260 72 149 b 513 -26 276 -17 421 -26 b 851 67 604 -26 749 -17 b 974 353 953 149 974 260 z m 258 831 l 769 831 l 769 957 l 258 957 z "},"Ŏ":{"ha":1276,"x_min":0,"x_max":0,"o":"m 636 806 b 847 731 701 806 781 796 b 936 486 928 654 936 540 b 847 242 936 432 928 318 b 636 167 781 176 701 167 b 425 242 571 167 492 176 b 336 486 344 318 336 432 b 425 731 336 540 344 654 b 636 806 492 796 571 806 z m 1214 486 b 1061 858 1214 603 1190 740 b 636 1000 989 924 858 1000 b 211 858 414 1000 283 924 b 58 486 82 740 58 603 b 211 114 58 372 81 229 b 636 -28 283 49 414 -28 b 1061 114 858 -28 989 49 b 1214 486 1192 229 1214 372 z m 765 1268 b 728 1190 769 1225 744 1200 b 639 1172 722 1186 699 1172 b 550 1190 618 1172 576 1174 b 513 1268 536 1200 508 1222 l 336 1268 b 386 1133 336 1240 335 1181 b 644 1064 449 1071 553 1064 b 889 1129 722 1064 831 1068 b 940 1268 915 1156 942 1203 z "},"ŏ":{"ha":1028,"x_min":0,"x_max":0,"o":""},"Ő":{"ha":1276,"x_min":0,"x_max":0,"o":"m 636 806 b 847 731 701 806 781 796 b 936 486 928 654 936 540 b 847 242 936 432 928 318 b 636 167 781 176 701 167 b 425 242 571 167 492 176 b 336 486 344 318 336 432 b 425 731 336 540 344 654 b 636 806 492 796 571 806 z m 1214 486 b 1061 858 1214 603 1190 740 b 636 1000 989 924 858 1000 b 211 858 414 1000 283 924 b 58 486 82 740 58 603 b 211 114 58 372 81 229 b 636 -28 283 49 414 -28 b 1061 114 858 -28 989 49 b 1214 486 1192 229 1214 372 z m 790 1256 l 688 1064 l 856 1064 l 1017 1256 z m 482 1256 l 379 1064 l 539 1064 l 699 1256 z "},"ő":{"ha":1028,"x_min":0,"x_max":0,"o":""},"Œ":{"ha":1914,"x_min":0,"x_max":0,"o":"m 640 806 b 853 731 704 806 786 793 b 940 486 908 676 940 586 b 853 242 940 399 910 299 b 640 167 808 199 735 167 b 428 242 544 167 472 199 b 340 486 382 286 340 368 b 428 731 340 607 382 685 b 640 806 493 793 569 806 z m 989 856 b 846 964 956 904 911 938 b 617 1000 783 988 700 1000 b 201 857 489 1000 324 979 b 63 483 88 743 63 599 b 208 101 63 358 86 215 b 604 -28 335 -21 488 -28 b 843 3 732 -28 799 -12 b 989 111 914 29 956 65 l 989 0 l 1890 0 l 1890 194 l 1244 194 l 1244 403 l 1778 403 l 1778 586 l 1244 586 l 1244 778 l 1874 778 l 1874 972 l 989 972 z "},"œ":{"ha":1674,"x_min":0,"x_max":0,"o":"m 517 574 b 663 521 588 574 635 547 b 722 353 694 489 722 440 b 663 185 722 265 694 217 b 517 132 635 158 588 132 b 372 185 446 132 400 157 b 313 353 340 217 313 265 b 372 521 313 440 340 489 b 517 574 400 549 446 574 z m 981 426 b 1035 536 986 467 1006 508 b 1178 582 1078 575 1133 582 b 1315 540 1215 582 1275 578 b 1368 426 1342 517 1364 475 z m 1364 236 b 1303 153 1360 213 1347 179 b 1188 129 1268 132 1225 129 b 1033 178 1142 129 1078 135 b 979 297 1001 207 983 253 l 1614 297 l 1614 318 b 1517 626 1614 417 1606 538 b 1188 732 1419 719 1276 732 b 967 688 1114 732 1038 725 b 853 579 904 654 869 607 b 718 694 821 628 781 667 b 507 732 647 726 572 732 b 182 638 406 732 282 718 b 60 347 86 556 60 449 b 186 58 60 210 113 118 b 486 -26 274 -15 394 -26 b 707 4 538 -26 642 -21 b 844 111 750 21 801 54 b 967 10 871 68 907 36 b 1189 -26 1021 -12 1089 -26 b 1428 4 1271 -26 1363 -22 b 1601 236 1453 15 1590 69 z "},"Ŕ":{"ha":1140,"x_min":0,"x_max":0,"o":"m 360 778 l 628 778 b 750 757 656 778 721 775 b 797 663 772 742 797 713 b 765 579 797 622 781 594 b 631 540 728 542 674 540 l 360 540 z m 104 0 l 360 0 l 360 357 l 599 357 b 724 322 643 357 696 346 b 769 204 747 301 765 264 l 774 124 b 811 0 778 75 779 43 l 1082 0 b 1042 139 1050 51 1046 90 l 1035 249 b 986 396 1031 299 1032 347 b 872 454 957 428 913 447 l 872 460 b 997 528 917 471 964 494 b 1061 700 1046 576 1061 635 b 994 885 1061 754 1051 828 b 679 972 913 967 775 972 l 104 972 z m 511 1264 l 400 1064 l 564 1064 l 740 1264 z "},"ŕ":{"ha":656,"x_min":0,"x_max":0,"o":""},"Ŗ":{"ha":1140,"x_min":0,"x_max":0,"o":"m 360 778 l 628 778 b 750 757 656 778 721 775 b 797 663 772 742 797 713 b 765 579 797 622 781 594 b 631 540 728 542 674 540 l 360 540 z m 104 0 l 360 0 l 360 357 l 599 357 b 724 322 643 357 696 346 b 769 204 747 301 765 264 l 774 124 b 811 0 778 75 779 43 l 1082 0 b 1042 139 1050 51 1046 90 l 1035 249 b 986 396 1031 299 1032 347 b 872 454 957 428 913 447 l 872 460 b 997 528 917 471 964 494 b 1061 700 1046 576 1061 635 b 994 885 1061 754 1051 828 b 679 972 913 967 775 972 l 104 972 z m 453 -85 l 453 -237 l 579 -237 b 535 -301 578 -258 569 -286 b 460 -314 514 -311 481 -314 l 453 -314 l 453 -406 l 457 -406 b 632 -346 536 -406 594 -386 b 679 -207 675 -300 679 -244 l 679 -85 z "},"ŗ":{"ha":656,"x_min":0,"x_max":0,"o":"m 636 717 b 572 722 614 721 594 722 b 426 690 521 722 472 714 b 319 590 371 661 338 622 l 319 706 l 85 706 l 85 0 l 329 0 l 329 265 b 429 513 329 318 338 450 b 585 551 467 539 518 551 b 636 549 603 551 624 550 z m 99 -85 l 99 -237 l 225 -237 b 181 -301 224 -258 215 -286 b 106 -314 160 -311 126 -314 l 99 -314 l 99 -406 l 103 -406 b 278 -346 182 -406 240 -386 b 325 -207 321 -300 325 -244 l 325 -85 z "},"Ř":{"ha":1140,"x_min":0,"x_max":0,"o":"m 360 778 l 628 778 b 750 757 656 778 721 775 b 797 663 772 742 797 713 b 765 579 797 622 781 594 b 631 540 728 542 674 540 l 360 540 z m 104 0 l 360 0 l 360 357 l 599 357 b 724 322 643 357 696 346 b 769 204 747 301 765 264 l 774 124 b 811 0 778 75 779 43 l 1082 0 b 1042 139 1050 51 1046 90 l 1035 249 b 986 396 1031 299 1032 347 b 872 454 957 428 913 447 l 872 460 b 997 528 917 471 964 494 b 1061 700 1046 576 1061 635 b 994 885 1061 754 1051 828 b 679 972 913 967 775 972 l 104 972 z m 571 1122 l 422 1247 l 225 1247 l 424 1064 l 717 1064 l 914 1247 l 718 1247 z "},"ř":{"ha":656,"x_min":0,"x_max":0,"o":""},"Ś":{"ha":1065,"x_min":0,"x_max":0,"o":"m 49 315 l 49 310 b 128 86 49 251 57 161 b 557 -28 228 -18 401 -28 b 900 47 758 -28 849 11 b 1014 283 961 92 1014 165 b 915 496 1014 351 997 435 b 668 576 850 544 756 561 l 557 594 b 390 629 454 610 417 618 b 321 703 358 640 321 658 b 369 788 321 736 338 767 b 503 814 403 808 454 814 b 658 788 539 814 613 810 b 717 699 701 765 713 733 l 975 699 b 844 935 979 771 960 868 b 506 1000 779 974 682 1000 b 188 931 404 1000 285 990 b 54 682 99 875 54 794 b 108 526 54 599 86 553 b 400 421 171 457 293 436 l 540 399 b 675 367 575 392 646 378 b 743 283 735 343 743 306 b 679 186 743 250 722 208 b 540 164 653 171 614 164 b 353 217 490 164 401 168 b 315 310 332 235 315 264 l 315 315 z m 474 1264 l 363 1064 l 526 1064 l 703 1264 z "},"ś":{"ha":868,"x_min":0,"x_max":0,"o":""},"Ŝ":{"ha":1065,"x_min":0,"x_max":0,"o":"m 49 315 l 49 310 b 128 86 49 251 57 161 b 557 -28 228 -18 401 -28 b 900 47 758 -28 849 11 b 1014 283 961 92 1014 165 b 915 496 1014 351 997 435 b 668 576 850 544 756 561 l 557 594 b 390 629 454 610 417 618 b 321 703 358 640 321 658 b 369 788 321 736 338 767 b 503 814 403 808 454 814 b 658 788 539 814 613 810 b 717 699 701 765 713 733 l 975 699 b 844 935 979 771 960 868 b 506 1000 779 974 682 1000 b 188 931 404 1000 285 990 b 54 682 99 875 54 794 b 108 526 54 599 86 553 b 400 421 171 457 293 436 l 540 399 b 675 367 575 392 646 378 b 743 283 735 343 743 306 b 679 186 743 250 722 208 b 540 164 653 171 614 164 b 353 217 490 164 401 168 b 315 310 332 235 315 264 l 315 315 z m 533 1189 l 681 1064 l 876 1064 l 679 1247 l 385 1247 l 188 1064 l 385 1064 z "},"ŝ":{"ha":868,"x_min":0,"x_max":0,"o":""},"Ş":{"ha":1065,"x_min":0,"x_max":0,"o":"m 49 315 l 49 310 b 128 86 49 251 57 161 b 557 -28 228 -18 401 -28 b 900 47 758 -28 849 11 b 1014 283 961 92 1014 165 b 915 496 1014 351 997 435 b 668 576 850 544 756 561 l 557 594 b 390 629 454 610 417 618 b 321 703 358 640 321 658 b 369 788 321 736 338 767 b 503 814 403 808 454 814 b 658 788 539 814 613 810 b 717 699 701 765 713 733 l 975 699 b 844 935 979 771 960 868 b 506 1000 779 974 682 1000 b 188 931 404 1000 285 990 b 54 682 99 875 54 794 b 108 526 54 599 86 553 b 400 421 171 457 293 436 l 540 399 b 675 367 575 392 646 378 b 743 283 735 343 743 306 b 679 186 743 250 722 208 b 540 164 653 171 614 164 b 353 217 490 164 401 168 b 315 310 332 235 315 264 l 315 315 z m 357 -346 b 536 -372 411 -367 460 -372 b 689 -346 601 -372 651 -367 b 756 -226 738 -319 756 -282 b 690 -107 756 -181 744 -139 b 539 -78 675 -97 633 -78 b 451 -83 506 -78 472 -79 l 421 -178 b 501 -172 436 -176 469 -172 b 568 -179 522 -172 547 -174 b 606 -222 589 -185 606 -196 b 579 -261 606 -235 601 -251 b 518 -269 572 -265 556 -269 b 392 -250 483 -269 436 -262 z "},"ş":{"ha":868,"x_min":0,"x_max":0,"o":""},"Š":{"ha":1065,"x_min":0,"x_max":0,"o":"m 49 315 l 49 310 b 128 86 49 251 57 161 b 557 -28 228 -18 401 -28 b 900 47 758 -28 849 11 b 1014 283 961 92 1014 165 b 915 496 1014 351 997 435 b 668 576 850 544 756 561 l 557 594 b 390 629 454 610 417 618 b 321 703 358 640 321 658 b 369 788 321 736 338 767 b 503 814 403 808 454 814 b 658 788 539 814 613 810 b 717 699 701 765 713 733 l 975 699 b 844 935 979 771 960 868 b 506 1000 779 974 682 1000 b 188 931 404 1000 285 990 b 54 682 99 875 54 794 b 108 526 54 599 86 553 b 400 421 171 457 293 436 l 540 399 b 675 367 575 392 646 378 b 743 283 735 343 743 306 b 679 186 743 250 722 208 b 540 164 653 171 614 164 b 353 217 490 164 401 168 b 315 310 332 235 315 264 l 315 315 z m 533 1122 l 385 1247 l 188 1247 l 386 1064 l 679 1064 l 876 1247 l 681 1247 z "},"š":{"ha":868,"x_min":0,"x_max":0,"o":""},"Ţ":{"ha":971,"x_min":0,"x_max":0,"o":"m 357 778 l 357 0 l 613 0 l 613 778 l 951 778 l 951 972 l 18 972 l 18 778 z m 285 -346 b 464 -372 339 -367 388 -372 b 617 -346 529 -372 579 -367 b 683 -226 665 -319 683 -282 b 618 -107 683 -181 672 -139 b 467 -78 603 -97 561 -78 b 379 -83 433 -78 400 -79 l 349 -178 b 429 -172 364 -176 397 -172 b 496 -179 450 -172 475 -174 b 533 -222 517 -185 533 -196 b 507 -261 533 -235 529 -251 b 446 -269 500 -265 483 -269 b 319 -250 411 -269 364 -262 z "},"ţ":{"ha":608,"x_min":0,"x_max":0,"o":""},"Ť":{"ha":971,"x_min":0,"x_max":0,"o":"m 357 778 l 357 0 l 613 0 l 613 778 l 951 778 l 951 972 l 18 972 l 18 778 z m 486 1122 l 338 1247 l 140 1247 l 339 1064 l 632 1064 l 829 1247 l 633 1247 z "},"ť":{"ha":786,"x_min":0,"x_max":0,"o":"m 18 556 l 168 556 l 168 186 b 219 33 168 144 168 81 b 413 -21 275 -18 363 -21 b 579 1 472 -21 519 -17 l 579 154 b 507 143 553 144 529 143 b 432 167 456 143 436 163 b 413 247 411 188 413 221 l 413 556 l 576 556 l 576 706 l 413 706 l 413 915 l 168 915 l 168 706 l 18 706 z m 622 808 l 725 808 l 725 804 b 693 719 725 772 714 738 b 622 696 675 703 644 696 l 622 615 b 760 665 663 617 719 625 b 814 843 800 708 814 767 l 814 972 l 622 972 z "},"Ū":{"ha":1156,"x_min":0,"x_max":0,"o":"m 1058 972 l 803 972 l 803 408 b 749 229 803 364 801 282 b 575 175 699 179 619 175 b 401 229 532 175 449 178 b 347 408 349 282 347 363 l 347 972 l 92 972 l 92 382 b 190 89 92 304 96 183 b 575 -25 294 -15 440 -25 b 960 89 710 -25 856 -15 b 1058 382 1054 183 1058 304 z m 322 1064 l 833 1064 l 833 1190 l 322 1190 z "},"ū":{"ha":981,"x_min":0,"x_max":0,"o":"m 663 0 l 890 0 l 890 706 l 646 706 l 646 365 b 597 189 646 306 642 238 b 474 142 560 149 511 142 b 365 178 417 142 383 160 b 325 315 326 214 325 275 l 325 706 l 81 706 l 81 271 b 154 46 81 213 83 113 b 386 -22 217 -14 325 -22 b 551 3 465 -22 517 -12 b 657 88 611 29 647 75 l 663 88 z m 235 831 l 746 831 l 746 957 l 235 957 z "},"Ŭ":{"ha":1156,"x_min":0,"x_max":0,"o":"m 1058 972 l 803 972 l 803 408 b 749 229 803 364 801 282 b 575 175 699 179 619 175 b 401 229 532 175 449 178 b 347 408 349 282 347 363 l 347 972 l 92 972 l 92 382 b 190 89 92 304 96 183 b 575 -25 294 -15 440 -25 b 960 89 710 -25 856 -15 b 1058 382 1054 183 1058 304 z m 704 1268 b 667 1190 708 1225 683 1200 b 578 1172 661 1186 638 1172 b 489 1190 557 1172 515 1174 b 451 1268 475 1200 447 1222 l 275 1268 b 325 1133 275 1240 274 1181 b 583 1064 388 1071 492 1064 b 828 1129 661 1064 769 1068 b 879 1268 854 1156 881 1203 z "},"ŭ":{"ha":981,"x_min":0,"x_max":0,"o":""},"Ů":{"ha":1156,"x_min":0,"x_max":0,"o":"m 1058 972 l 803 972 l 803 408 b 749 229 803 364 801 282 b 575 175 699 179 619 175 b 401 229 532 175 449 178 b 347 408 349 282 347 363 l 347 972 l 92 972 l 92 382 b 190 89 92 304 96 183 b 575 -25 294 -15 440 -25 b 960 89 710 -25 856 -15 b 1058 382 1054 183 1058 304 z m 493 1226 b 578 1311 493 1275 529 1311 b 663 1226 626 1311 663 1275 b 578 1142 663 1178 626 1142 b 493 1226 529 1142 493 1178 z m 414 1226 b 578 1063 414 1138 489 1063 b 742 1226 667 1063 742 1138 b 578 1390 742 1315 667 1390 b 414 1226 489 1390 414 1315 z "},"ů":{"ha":981,"x_min":0,"x_max":0,"o":""},"Ű":{"ha":1156,"x_min":0,"x_max":0,"o":"m 1058 972 l 803 972 l 803 408 b 749 229 803 364 801 282 b 575 175 699 179 619 175 b 401 229 532 175 449 178 b 347 408 349 282 347 363 l 347 972 l 92 972 l 92 382 b 190 89 92 304 96 183 b 575 -25 294 -15 440 -25 b 960 89 710 -25 856 -15 b 1058 382 1054 183 1058 304 z m 722 1256 l 619 1064 l 788 1064 l 949 1256 z m 414 1256 l 311 1064 l 471 1064 l 631 1256 z "},"ű":{"ha":981,"x_min":0,"x_max":0,"o":""},"Ų":{"ha":1156,"x_min":0,"x_max":0,"o":"m 1058 972 l 803 972 l 803 408 b 749 229 803 364 801 282 b 575 175 699 179 619 175 b 401 229 532 175 449 178 b 347 408 349 282 347 363 l 347 972 l 92 972 l 92 382 b 190 89 92 304 96 183 b 581 -25 292 -17 442 -25 b 531 -71 568 -35 551 -44 b 488 -187 504 -103 488 -133 b 551 -308 488 -233 501 -276 b 693 -342 600 -340 656 -342 b 824 -324 743 -342 781 -336 b 932 -276 875 -308 917 -286 l 894 -176 b 788 -222 863 -193 819 -212 b 711 -233 763 -229 738 -233 b 653 -215 693 -233 669 -232 b 636 -172 638 -200 636 -185 b 676 -79 636 -128 656 -100 b 788 -6 708 -46 749 -24 b 960 89 842 21 910 40 b 1058 382 1053 178 1058 310 z "},"ų":{"ha":981,"x_min":0,"x_max":0,"o":"m 663 0 l 729 0 b 639 -69 692 -18 663 -40 b 596 -185 613 -101 596 -131 b 660 -303 596 -239 617 -274 b 799 -336 708 -335 758 -336 b 928 -318 850 -336 876 -333 b 1035 -272 965 -307 996 -299 l 999 -178 b 894 -222 975 -190 924 -212 b 817 -233 867 -232 843 -233 b 756 -215 801 -233 774 -233 b 739 -172 746 -206 739 -193 b 781 -76 739 -129 758 -99 b 890 0 807 -49 842 -21 l 890 706 l 646 706 l 646 365 b 597 189 646 306 642 238 b 474 142 560 149 511 142 b 365 178 417 142 383 160 b 325 315 326 214 325 275 l 325 706 l 81 706 l 81 271 b 154 46 81 213 83 113 b 386 -22 217 -14 325 -22 b 551 3 465 -22 517 -12 b 657 88 611 29 647 75 l 663 88 z "},"Ÿ":{"ha":1049,"x_min":0,"x_max":0,"o":"m 536 557 l 290 972 l -12 972 l 397 371 l 397 0 l 653 0 l 653 371 l 1063 972 l 779 972 z m 596 1064 l 811 1064 l 811 1218 l 596 1218 z m 231 1064 l 444 1064 l 444 1218 l 231 1218 z "},"Ź":{"ha":1015,"x_min":0,"x_max":0,"o":"m 76 972 l 76 778 l 633 778 l 36 188 l 36 0 l 976 0 l 976 194 l 342 194 l 961 811 l 961 972 z m 499 1264 l 388 1064 l 551 1064 l 728 1264 z "},"ź":{"ha":799,"x_min":0,"x_max":0,"o":""},"Ż":{"ha":1015,"x_min":0,"x_max":0,"o":"m 76 972 l 76 778 l 633 778 l 36 188 l 36 0 l 976 0 l 976 194 l 342 194 l 961 811 l 961 972 z m 399 1064 l 611 1064 l 611 1221 l 399 1221 z "},"ż":{"ha":799,"x_min":0,"x_max":0,"o":""},"Ə":{"ha":1214,"x_min":0,"x_max":0,"o":"m 867 375 b 794 217 863 308 833 250 b 599 163 736 165 654 163 b 397 206 536 163 453 167 b 326 375 331 250 319 325 z m 331 661 b 408 765 347 718 385 750 b 576 803 432 781 481 803 b 779 757 604 803 714 801 b 867 551 801 742 878 681 l 58 551 l 58 381 b 236 36 58 189 144 92 b 622 -32 331 -19 456 -32 b 1025 101 747 -32 907 -24 b 1151 496 1143 222 1151 401 b 1026 861 1151 600 1140 750 b 586 997 896 989 676 997 b 231 921 483 997 338 988 b 64 661 160 876 86 796 z "},"ƒ":{"ha":1049,"x_min":0,"x_max":0,"o":"m 874 706 l 694 706 l 701 732 b 744 801 708 760 726 786 b 826 822 768 819 800 822 b 901 813 851 822 876 819 l 938 954 b 769 972 915 958 847 972 b 540 900 671 972 594 954 b 464 746 496 856 479 800 l 453 706 l 297 706 l 256 546 l 413 546 l 271 -7 b 231 -92 264 -33 246 -76 b 153 -115 208 -114 175 -115 b 90 -107 131 -115 113 -112 l 56 -247 b 208 -265 117 -264 158 -265 b 426 -199 286 -265 365 -260 b 508 -26 469 -156 492 -92 l 654 547 l 832 547 z "},"Ɵ":{"ha":1276,"x_min":0,"x_max":0,"o":"m 1214 486 b 1061 858 1214 603 1190 740 b 636 1000 989 924 858 1000 b 211 858 414 1000 283 924 b 58 486 82 740 58 603 b 211 114 58 372 81 229 b 636 -28 283 49 414 -28 b 1061 114 858 -28 989 49 b 1214 486 1192 229 1214 372 z m 926 415 b 844 232 922 338 889 272 b 640 167 782 175 703 167 b 428 235 575 167 493 175 b 346 415 407 253 350 314 z m 347 574 b 421 732 354 639 382 694 b 636 806 458 769 521 806 b 847 739 731 806 803 779 b 925 574 885 706 919 647 z "},"Ǐ":{"ha":469,"x_min":0,"x_max":0,"o":"m 104 972 l 104 0 l 360 0 l 360 972 z m 238 1122 l 89 1247 l -108 1247 l 90 1064 l 383 1064 l 581 1247 l 385 1247 z "},"ǐ":{"ha":419,"x_min":0,"x_max":0,"o":""},"ǝ":{"ha":1001,"x_min":0,"x_max":0,"o":"m 693 274 b 635 163 689 219 663 185 b 497 124 592 129 547 124 b 353 165 451 124 396 128 b 303 274 332 182 307 217 z m 307 475 b 369 557 317 521 343 544 b 496 576 404 574 458 576 b 651 529 544 576 608 572 b 697 403 675 506 697 464 l 697 399 l 51 399 l 51 374 b 147 88 51 289 60 175 b 499 -26 243 -8 388 -26 b 842 83 608 -26 746 -12 b 947 364 935 172 947 292 b 850 628 947 453 931 547 b 479 732 760 718 639 732 b 214 694 364 732 281 724 b 61 475 118 651 71 565 z "},"Ǧ":{"ha":1242,"x_min":0,"x_max":0,"o":"m 672 521 l 672 363 l 897 363 b 822 218 888 294 854 244 b 636 167 768 174 697 167 b 422 239 564 167 489 174 b 336 481 379 279 336 354 b 419 733 336 579 363 674 b 636 807 482 796 564 807 b 796 772 685 807 742 804 b 874 654 850 740 869 703 l 1140 654 b 983 922 1136 729 1111 840 b 618 1001 938 949 838 1001 b 207 865 497 1001 332 988 b 58 476 142 803 58 683 b 186 107 58 303 115 181 b 582 -28 301 -17 453 -28 b 826 11 654 -28 749 -26 b 963 140 876 35 925 78 l 971 0 l 1151 0 l 1151 521 z m 622 1122 l 474 1247 l 276 1247 l 475 1064 l 768 1064 l 965 1247 l 769 1247 z "},"ǧ":{"ha":1006,"x_min":0,"x_max":0,"o":""},"Ș":{"ha":1065,"x_min":0,"x_max":0,"o":"m 49 315 l 49 310 b 128 86 49 251 57 161 b 557 -28 228 -18 401 -28 b 900 47 758 -28 849 11 b 1014 283 961 92 1014 165 b 915 496 1014 351 997 435 b 668 576 850 544 756 561 l 557 594 b 390 629 454 610 417 618 b 321 703 358 640 321 658 b 369 788 321 736 338 767 b 503 814 403 808 454 814 b 658 788 539 814 613 810 b 717 699 701 765 713 733 l 975 699 b 844 935 979 771 960 868 b 506 1000 779 974 682 1000 b 188 931 404 1000 285 990 b 54 682 99 875 54 794 b 108 526 54 599 86 553 b 400 421 171 457 293 436 l 540 399 b 675 367 575 392 646 378 b 743 283 735 343 743 306 b 679 186 743 250 722 208 b 540 164 653 171 614 164 b 353 217 490 164 401 168 b 315 310 332 235 315 264 l 315 315 z m 415 -85 l 415 -237 l 542 -237 b 497 -301 540 -258 532 -286 b 422 -314 476 -311 443 -314 l 415 -314 l 415 -406 l 419 -406 b 594 -346 499 -406 557 -386 b 642 -207 638 -300 642 -244 l 642 -85 z "},"ș":{"ha":868,"x_min":0,"x_max":0,"o":"m 42 222 l 42 219 b 107 56 42 181 47 115 b 456 -28 185 -18 307 -28 b 767 60 574 -28 689 -21 b 824 210 801 97 824 144 b 756 358 824 283 793 329 b 568 424 704 399 617 417 l 474 438 b 331 465 403 449 363 450 b 289 517 315 472 289 485 b 329 574 289 538 301 558 b 421 589 351 585 389 589 b 517 572 450 589 490 585 b 557 514 543 560 557 540 l 557 511 l 790 511 b 668 696 789 594 757 656 b 419 733 636 707 575 733 b 156 682 285 733 207 714 b 49 500 85 642 49 585 b 125 350 49 446 64 388 b 318 299 157 329 203 315 l 401 286 b 521 263 451 279 488 275 b 574 200 543 253 574 239 b 535 144 574 185 568 161 b 436 128 519 135 492 128 b 326 146 363 128 336 142 b 281 218 306 157 281 179 l 281 222 z m 317 -85 l 317 -237 l 443 -237 b 399 -301 442 -258 433 -286 b 324 -314 378 -311 344 -314 l 317 -314 l 317 -406 l 321 -406 b 496 -346 400 -406 458 -386 b 543 -207 539 -300 543 -244 l 543 -85 z "},"Ț":{"ha":971,"x_min":0,"x_max":0,"o":"m 357 778 l 357 0 l 613 0 l 613 778 l 951 778 l 951 972 l 18 972 l 18 778 z m 368 -85 l 368 -237 l 494 -237 b 450 -301 493 -258 485 -286 b 375 -314 429 -311 396 -314 l 368 -314 l 368 -406 l 372 -406 b 547 -346 451 -406 510 -386 b 594 -207 590 -300 594 -244 l 594 -85 z "},"ț":{"ha":608,"x_min":0,"x_max":0,"o":"m 18 556 l 168 556 l 168 186 b 219 33 168 144 168 81 b 413 -21 275 -18 363 -21 b 579 1 472 -21 519 -17 l 579 154 b 507 143 553 144 529 143 b 432 167 456 143 436 163 b 413 247 411 188 413 221 l 413 556 l 576 556 l 576 706 l 413 706 l 413 915 l 168 915 l 168 706 l 18 706 z m 251 -85 l 251 -237 l 378 -237 b 333 -301 376 -258 368 -286 b 258 -314 313 -311 279 -314 l 251 -314 l 251 -406 l 256 -406 b 431 -346 335 -406 393 -386 b 478 -207 474 -300 478 -244 l 478 -85 z "},"Ȩ":{"ha":1039,"x_min":0,"x_max":0,"o":"m 360 586 l 360 778 l 990 778 l 990 972 l 104 972 l 104 0 l 1006 0 l 1006 194 l 360 194 l 360 403 l 893 403 l 893 586 z m 371 -346 b 550 -372 425 -367 474 -372 b 703 -346 615 -372 665 -367 b 769 -226 751 -319 769 -282 b 704 -107 769 -181 758 -139 b 553 -78 689 -97 647 -78 b 465 -83 519 -78 486 -79 l 435 -178 b 515 -172 450 -176 483 -172 b 582 -179 536 -172 561 -174 b 619 -222 603 -185 619 -196 b 593 -261 619 -235 615 -251 b 532 -269 586 -265 569 -269 b 406 -250 497 -269 450 -262 z "},"ȩ":{"ha":1001,"x_min":0,"x_max":0,"o":""},"ȷ":{"ha":431,"x_min":0,"x_max":0,"o":"m 96 706 l 96 54 b 71 -76 96 -6 93 -53 b 1 -100 50 -99 18 -100 b -40 -96 -12 -100 -26 -99 l -40 -249 b 89 -261 3 -258 39 -261 b 276 -204 138 -261 222 -258 b 340 -3 336 -144 340 -56 l 340 706 z "},"ə":{"ha":1001,"x_min":0,"x_max":0,"o":"m 693 274 b 635 163 689 219 663 185 b 497 124 592 129 547 124 b 353 165 451 124 396 128 b 303 274 332 182 307 217 z m 307 475 b 369 557 317 521 343 544 b 496 576 404 574 458 576 b 651 529 544 576 608 572 b 697 403 675 506 697 464 l 697 399 l 51 399 l 51 374 b 147 88 51 289 60 175 b 499 -26 243 -8 388 -26 b 842 83 608 -26 746 -12 b 947 364 935 172 947 292 b 850 628 947 453 931 547 b 479 732 760 718 639 732 b 214 694 364 732 281 724 b 61 475 118 651 71 565 z "},"ɵ":{"ha":1028,"x_min":0,"x_max":0,"o":"m 974 353 b 851 639 974 446 953 557 b 513 732 747 721 606 732 b 174 639 419 732 278 721 b 51 353 72 557 51 446 b 174 67 51 260 72 149 b 513 -26 276 -17 421 -26 b 851 67 604 -26 749 -17 b 974 353 953 149 974 260 z m 718 296 b 657 171 711 219 668 178 b 510 126 613 133 554 126 b 358 179 456 126 403 136 b 304 296 338 197 310 236 z m 306 415 b 356 526 310 461 329 500 b 510 579 404 575 471 579 b 667 529 543 579 619 576 b 715 415 693 503 711 464 z "},"ʼ":{"ha":494,"x_min":0,"x_max":0,"o":"m 147 808 l 250 808 l 250 804 b 218 719 250 772 239 738 b 147 696 200 703 169 696 l 147 615 b 285 665 188 617 244 625 b 339 843 325 708 339 767 l 339 972 l 147 972 z "},"ˆ":{"ha":828,"x_min":0,"x_max":0,"o":"m 415 914 l 563 789 l 758 789 l 561 972 l 267 972 l 69 789 l 267 789 z "},"ˇ":{"ha":828,"x_min":0,"x_max":0,"o":"m 415 847 l 267 972 l 69 972 l 268 789 l 561 789 l 758 972 l 563 972 z "},"˘":{"ha":743,"x_min":0,"x_max":0,"o":"m 499 996 b 461 918 503 953 478 928 b 372 900 456 914 432 900 b 283 918 351 900 310 901 b 246 996 269 928 242 950 l 69 996 b 119 861 69 968 68 908 b 378 792 182 799 286 792 b 622 857 456 792 564 796 b 674 996 649 883 675 931 z "},"˙":{"ha":288,"x_min":0,"x_max":0,"o":"m 36 829 l 249 829 l 249 986 l 36 986 z "},"˚":{"ha":467,"x_min":0,"x_max":0,"o":"m 149 950 b 233 1035 149 999 185 1035 b 318 950 282 1035 318 999 b 233 865 318 901 282 865 b 149 950 185 865 149 901 z m 69 950 b 233 786 69 861 144 786 b 397 950 322 786 397 861 b 233 1114 397 1039 322 1114 b 69 950 144 1114 69 1039 z "},"˛":{"ha":576,"x_min":0,"x_max":0,"o":"m 507 -178 b 403 -222 483 -190 432 -212 b 325 -233 375 -232 351 -233 b 264 -215 310 -233 282 -233 b 247 -172 254 -206 247 -193 b 289 -76 247 -129 267 -99 b 399 0 315 -49 350 -21 l 238 0 b 147 -69 200 -18 171 -40 b 104 -185 121 -101 104 -131 b 168 -303 104 -239 125 -274 b 307 -336 217 -335 267 -336 b 436 -318 358 -336 385 -333 b 543 -272 474 -307 504 -299 z "},"˜":{"ha":788,"x_min":0,"x_max":0,"o":"m 582 983 b 568 935 581 968 578 947 b 522 910 558 918 543 910 b 435 942 496 910 469 924 l 389 965 b 268 996 356 982 322 996 b 131 946 222 996 174 989 b 69 808 99 914 75 863 l 207 808 b 224 856 207 813 208 835 b 274 879 235 871 250 879 b 364 844 306 879 332 861 l 407 822 b 539 792 433 810 468 792 b 656 831 572 792 618 797 b 718 983 704 876 714 960 z "},"˝":{"ha":743,"x_min":0,"x_max":0,"o":"m 463 990 l 360 799 l 528 799 l 689 990 z m 154 990 l 51 799 l 211 799 l 371 990 z "},"́":{"ha":3,"x_min":0,"x_max":0,"o":"m -469 986 l -581 789 l -414 789 l -237 986 z "},"̓":{"ha":494,"x_min":0,"x_max":0,"o":"m 147 808 l 250 808 l 250 804 b 218 719 250 772 239 738 b 147 696 200 703 169 696 l 147 615 b 285 665 188 617 244 625 b 339 843 325 708 339 767 l 339 972 l 147 972 z "},"̕":{"ha":494,"x_min":0,"x_max":0,"o":"m 147 808 l 250 808 l 250 804 b 218 719 250 772 239 738 b 147 696 200 703 169 696 l 147 615 b 285 665 188 617 244 625 b 339 843 325 708 339 767 l 339 972 l 147 972 z "},"̦":{"ha":529,"x_min":0,"x_max":0,"o":"m 147 -85 l 147 -237 l 274 -237 b 229 -301 272 -258 264 -286 b 154 -314 208 -311 175 -314 l 147 -314 l 147 -406 l 151 -406 b 326 -346 231 -406 289 -386 b 374 -207 369 -300 374 -244 l 374 -85 z "},"΄":{"ha":501,"x_min":0,"x_max":0,"o":"m 247 989 l 136 789 l 300 789 l 476 989 z "},"΅":{"ha":882,"x_min":0,"x_max":0,"o":"m 619 1019 l 379 1019 l 283 800 l 428 800 z m 28 829 l 242 829 l 242 983 l 28 983 z m 639 829 l 854 829 l 854 983 l 639 983 z "},"Ά":{"ha":1097,"x_min":0,"x_max":0,"o":"m 401 364 l 549 728 l 699 364 z m 339 197 l 760 197 l 844 0 l 1111 0 l 675 972 l 424 972 l -12 0 l 254 0 z m 33 972 l -14 706 l 122 706 l 303 972 z "},"·":{"ha":425,"x_min":0,"x_max":0,"o":"m 82 349 l 343 349 l 343 574 l 82 574 z "},"Έ":{"ha":1346,"x_min":0,"x_max":0,"o":"m 667 586 l 667 778 l 1297 778 l 1297 972 l 411 972 l 411 0 l 1313 0 l 1313 194 l 667 194 l 667 403 l 1200 403 l 1200 586 z m 99 972 l 51 706 l 188 706 l 368 972 z "},"Ή":{"ha":1503,"x_min":0,"x_max":0,"o":"m 676 414 l 1138 414 l 1138 0 l 1393 0 l 1393 972 l 1138 972 l 1138 608 l 676 608 l 676 972 l 421 972 l 421 0 l 676 0 z m 94 972 l 47 706 l 183 706 l 364 972 z "},"Ί":{"ha":806,"x_min":0,"x_max":0,"o":"m 440 972 l 440 0 l 696 0 l 696 972 z m 114 972 l 67 706 l 203 706 l 383 972 z "},"Ό":{"ha":1507,"x_min":0,"x_max":0,"o":"m 867 806 b 1078 731 932 806 1011 796 b 1167 486 1158 654 1167 540 b 1078 242 1167 432 1158 318 b 867 167 1011 176 932 167 b 656 242 801 167 722 176 b 567 486 575 318 567 432 b 656 731 567 540 575 654 b 867 806 722 796 801 806 z m 1444 486 b 1292 858 1444 603 1421 740 b 867 1000 1219 924 1089 1000 b 442 858 644 1000 514 924 b 289 486 313 740 289 603 b 442 114 289 372 311 229 b 867 -28 514 49 644 -28 b 1292 114 1089 -28 1219 49 b 1444 486 1422 229 1444 372 z m 106 972 l 58 706 l 194 706 l 375 972 z "},"Ύ":{"ha":1432,"x_min":0,"x_max":0,"o":"m 919 557 l 674 972 l 371 972 l 781 371 l 781 0 l 1036 0 l 1036 371 l 1446 972 l 1163 972 z m 79 972 l 32 706 l 168 706 l 349 972 z "},"Ώ":{"ha":1471,"x_min":0,"x_max":0,"o":"m 944 0 l 1372 0 l 1372 181 l 1121 181 l 1121 228 b 1319 319 1192 238 1268 268 b 1410 571 1357 357 1410 438 b 1261 893 1410 722 1350 826 b 858 1001 1153 975 986 1001 b 456 893 731 1001 564 975 b 307 571 367 826 307 722 b 397 319 307 439 358 356 b 596 228 449 268 525 238 l 596 181 l 344 181 l 344 0 l 772 0 l 772 333 b 639 393 724 339 674 360 b 578 553 619 413 578 461 b 654 736 578 647 619 704 b 858 807 700 779 769 807 b 1063 736 975 807 1040 758 b 1139 553 1117 688 1139 619 b 1078 393 1139 493 1115 431 b 944 333 1044 360 993 339 z m 89 972 l 42 706 l 178 706 l 358 972 z "},"ΐ":{"ha":432,"x_min":0,"x_max":0,"o":"m 85 706 l 85 179 b 156 25 85 94 121 49 b 310 -6 200 -8 267 -6 b 411 0 349 -6 378 -4 l 411 146 l 396 146 b 347 158 381 146 360 147 b 329 224 329 174 329 203 l 329 706 z m 396 1019 l 156 1019 l 60 800 l 204 800 z m -196 829 l 18 829 l 18 983 l -196 983 z m 415 829 l 631 829 l 631 983 l 415 983 z "},"Α":{"ha":1097,"x_min":0,"x_max":0,"o":"m 401 364 l 549 728 l 699 364 z m 339 197 l 760 197 l 844 0 l 1111 0 l 675 972 l 424 972 l -12 0 l 254 0 z "},"Β":{"ha":1143,"x_min":0,"x_max":0,"o":"m 360 411 l 628 411 b 749 390 653 411 717 408 b 797 296 771 378 797 350 b 749 201 797 246 772 217 b 632 181 744 197 714 181 l 360 181 z m 360 792 l 603 792 b 719 771 647 792 690 792 b 758 693 740 756 758 733 b 726 615 758 653 742 628 b 589 586 694 589 649 586 l 360 586 z m 104 972 l 104 0 l 675 0 b 1000 76 781 0 922 6 b 1072 267 1040 114 1072 178 b 1013 432 1072 315 1064 381 b 829 508 968 476 892 503 l 829 514 b 963 574 838 514 911 526 b 1021 726 990 600 1021 649 b 926 922 1021 850 949 907 b 665 972 858 968 764 972 z "},"Γ":{"ha":890,"x_min":0,"x_max":0,"o":"m 360 772 l 871 772 l 871 972 l 104 972 l 104 0 l 360 0 z "},"Δ":{"ha":1124,"x_min":0,"x_max":0,"o":"m 308 183 l 547 735 l 781 183 z m 1129 0 l 672 972 l 454 972 l -6 0 z "},"Ε":{"ha":1039,"x_min":0,"x_max":0,"o":"m 360 586 l 360 778 l 990 778 l 990 972 l 104 972 l 104 0 l 1006 0 l 1006 194 l 360 194 l 360 403 l 893 403 l 893 586 z "},"Ζ":{"ha":1015,"x_min":0,"x_max":0,"o":"m 76 972 l 76 778 l 633 778 l 36 188 l 36 0 l 976 0 l 976 194 l 342 194 l 961 811 l 961 972 z "},"Η":{"ha":1186,"x_min":0,"x_max":0,"o":"m 360 414 l 821 414 l 821 0 l 1076 0 l 1076 972 l 821 972 l 821 608 l 360 608 l 360 972 l 104 972 l 104 0 l 360 0 z "},"Θ":{"ha":1272,"x_min":0,"x_max":0,"o":"m 435 582 l 435 399 l 838 399 l 838 582 z m 1214 486 b 1061 858 1214 603 1190 740 b 636 1000 989 924 858 1000 b 404 967 557 1000 481 990 b 211 858 333 944 267 908 b 58 486 82 740 58 603 b 211 114 58 372 81 229 b 636 -28 283 49 414 -28 b 1061 114 858 -28 989 49 b 1214 486 1192 229 1214 372 z m 636 806 b 847 731 701 806 781 796 b 936 486 928 654 936 540 b 847 242 936 432 928 318 b 636 167 781 176 701 167 b 524 182 597 167 561 169 b 425 242 486 194 453 214 b 336 486 344 318 336 432 b 425 731 336 540 344 654 b 636 806 492 796 571 806 z "},"Ι":{"ha":469,"x_min":0,"x_max":0,"o":"m 104 972 l 104 0 l 360 0 l 360 972 z "},"Κ":{"ha":1076,"x_min":0,"x_max":0,"o":"m 360 554 l 360 972 l 104 972 l 104 0 l 360 0 l 360 485 l 769 0 l 1090 0 l 603 519 l 1063 972 l 757 972 z "},"Λ":{"ha":1043,"x_min":0,"x_max":0,"o":"m 507 718 l 515 718 l 760 0 l 1047 0 l 657 972 l 378 972 l -14 0 l 261 0 z "},"Μ":{"ha":1493,"x_min":0,"x_max":0,"o":"m 651 0 l 836 0 l 1128 724 l 1138 724 l 1128 642 l 1128 0 l 1383 0 l 1383 972 l 1022 972 l 747 267 l 740 267 l 465 972 l 104 972 l 104 0 l 360 0 l 360 642 l 350 724 l 360 724 z "},"Ν":{"ha":1208,"x_min":0,"x_max":0,"o":"m 1099 972 l 843 972 l 843 319 l 354 972 l 104 972 l 104 0 l 360 0 l 360 653 l 850 0 l 1099 0 z "},"Ξ":{"ha":926,"x_min":0,"x_max":0,"o":"m 33 194 l 33 0 l 888 0 l 888 194 z m 132 592 l 132 403 l 789 403 l 789 592 z m 60 972 l 60 775 l 858 775 l 858 972 z "},"Ο":{"ha":1276,"x_min":0,"x_max":0,"o":"m 636 806 b 847 731 701 806 781 796 b 936 486 928 654 936 540 b 847 242 936 432 928 318 b 636 167 781 176 701 167 b 425 242 571 167 492 176 b 336 486 344 318 336 432 b 425 731 336 540 344 654 b 636 806 492 796 571 806 z m 1214 486 b 1061 858 1214 603 1190 740 b 636 1000 989 924 858 1000 b 211 858 414 1000 283 924 b 58 486 82 740 58 603 b 211 114 58 372 81 229 b 636 -28 283 49 414 -28 b 1061 114 858 -28 989 49 b 1214 486 1192 229 1214 372 z "},"Π":{"ha":1167,"x_min":0,"x_max":0,"o":"m 360 778 l 801 778 l 801 0 l 1057 0 l 1057 972 l 104 972 l 104 0 l 360 0 z "},"Ρ":{"ha":1081,"x_min":0,"x_max":0,"o":"m 360 778 l 606 778 b 731 750 688 778 721 757 b 778 650 758 729 778 699 b 742 550 778 606 763 571 b 590 510 708 517 638 510 l 360 510 z m 104 972 l 104 0 l 360 0 l 360 321 l 608 321 b 963 422 749 321 874 326 b 1042 653 1028 493 1042 575 b 951 885 1042 728 1026 814 b 625 972 867 963 758 972 z "},"Σ":{"ha":978,"x_min":0,"x_max":0,"o":"m 917 972 l 65 972 l 65 783 l 389 510 l 44 189 l 44 0 l 939 0 l 939 194 l 329 194 l 678 511 l 368 778 l 917 778 z "},"Τ":{"ha":971,"x_min":0,"x_max":0,"o":"m 357 778 l 357 0 l 613 0 l 613 778 l 951 778 l 951 972 l 18 972 l 18 778 z "},"Υ":{"ha":1049,"x_min":0,"x_max":0,"o":"m 536 557 l 290 972 l -12 972 l 397 371 l 397 0 l 653 0 l 653 371 l 1063 972 l 779 972 z "},"Φ":{"ha":1446,"x_min":0,"x_max":0,"o":"m 607 278 l 572 278 b 386 319 456 278 397 313 b 297 497 360 335 297 388 b 382 667 297 586 339 639 b 575 713 431 699 503 713 l 607 713 z m 836 278 l 836 713 l 867 713 b 1054 675 915 713 1001 706 b 1147 497 1097 650 1147 590 b 1054 317 1147 381 1076 332 b 868 278 999 282 922 278 z m 594 -36 l 850 -36 l 850 107 l 886 107 b 1300 225 1051 107 1200 125 b 1403 497 1382 304 1403 401 b 1306 761 1403 575 1388 679 b 885 885 1183 883 979 885 l 850 885 l 850 1026 l 594 1026 l 594 885 l 558 885 b 140 761 408 885 247 868 b 42 497 64 683 42 597 b 146 225 42 418 58 310 b 557 107 244 126 388 107 l 594 107 z "},"Χ":{"ha":1110,"x_min":0,"x_max":0,"o":"m 571 650 l 332 972 l 19 972 l 399 504 l 0 0 l 311 0 l 551 332 l 783 0 l 1110 0 l 715 504 l 1103 972 l 810 972 z "},"Ψ":{"ha":1356,"x_min":0,"x_max":0,"o":"m 547 0 l 803 0 l 803 274 b 1013 304 863 275 935 282 b 1251 479 1085 326 1192 367 b 1292 721 1297 565 1292 654 l 1292 972 l 1036 972 l 1036 731 b 931 488 1036 610 1019 532 b 803 463 888 467 836 461 l 803 972 l 547 972 l 547 463 b 419 488 514 461 463 467 b 314 731 331 532 314 610 l 314 972 l 58 972 l 58 721 b 99 479 58 654 53 565 b 338 304 158 367 264 326 b 547 274 415 282 488 275 z "},"Ω":{"ha":1219,"x_min":0,"x_max":0,"o":"m 696 0 l 1124 0 l 1124 181 l 872 181 l 872 228 b 1071 319 943 238 1019 268 b 1161 571 1108 357 1161 438 b 1013 893 1161 722 1101 826 b 610 1001 904 975 738 1001 b 207 893 482 1001 315 975 b 58 571 118 826 58 722 b 149 319 58 439 110 356 b 347 228 200 268 276 238 l 347 181 l 96 181 l 96 0 l 524 0 l 524 333 b 390 393 475 339 425 360 b 329 553 371 413 329 461 b 406 736 329 647 371 704 b 610 807 451 779 521 807 b 814 736 726 807 792 758 b 890 553 868 688 890 619 b 829 393 890 493 867 431 b 696 333 796 360 744 339 z "},"Ϊ":{"ha":469,"x_min":0,"x_max":0,"o":"m 104 972 l 104 0 l 360 0 l 360 972 z m 313 1065 l 528 1065 l 528 1219 l 313 1219 z m -53 1065 l 161 1065 l 161 1219 l -53 1219 z "},"Ϋ":{"ha":1049,"x_min":0,"x_max":0,"o":"m 536 557 l 290 972 l -12 972 l 397 371 l 397 0 l 653 0 l 653 371 l 1063 972 l 779 972 z m 614 1065 l 829 1065 l 829 1219 l 614 1219 z m 249 1065 l 463 1065 l 463 1219 l 249 1219 z "},"ά":{"ha":1096,"x_min":0,"x_max":0,"o":"m 1035 706 l 789 706 l 764 597 l 761 597 b 681 683 740 632 713 663 b 471 732 618 724 536 732 b 189 651 403 732 282 722 b 51 346 117 596 51 492 b 151 79 51 218 100 133 b 433 -26 253 -22 374 -26 b 647 18 556 -26 618 1 b 750 119 686 40 724 76 l 753 119 b 782 0 758 88 765 54 l 1044 0 b 983 172 1018 57 1001 107 b 943 333 968 228 954 282 z m 708 364 l 692 306 b 628 186 681 267 656 218 b 488 124 588 140 543 124 b 360 179 442 124 397 136 b 304 356 326 218 304 278 b 371 536 304 454 339 507 b 496 582 414 575 461 582 b 618 542 540 582 581 574 b 692 424 667 503 685 450 z m 544 989 l 433 789 l 597 789 l 774 989 z "},"έ":{"ha":894,"x_min":0,"x_max":0,"o":"m 864 240 l 628 240 l 628 231 b 583 156 628 199 610 171 b 449 129 549 133 489 129 b 350 147 400 129 371 136 b 306 214 313 165 306 196 b 339 271 306 242 318 258 b 425 289 360 282 388 288 b 478 290 443 290 460 290 l 542 290 l 542 426 l 468 426 b 364 439 397 426 371 435 b 321 496 332 451 321 474 b 375 565 321 517 326 547 b 469 579 397 575 429 579 b 532 574 493 579 514 578 b 578 557 549 571 564 565 b 619 486 615 535 618 501 l 856 486 b 796 638 857 524 850 582 b 596 724 742 693 668 714 b 467 732 553 729 510 732 b 203 693 299 732 222 701 b 75 517 97 649 75 574 b 114 418 75 474 92 440 b 206 378 138 394 174 382 l 206 374 b 96 322 139 363 100 326 b 63 272 81 307 69 290 b 50 203 54 250 50 226 b 171 13 50 142 72 57 b 442 -26 214 -10 286 -26 b 761 33 618 -26 706 -4 b 864 231 850 93 864 174 z m 479 989 l 368 789 l 532 789 l 708 989 z "},"ή":{"ha":975,"x_min":0,"x_max":0,"o":"m 646 -257 l 890 -257 l 890 443 b 814 671 890 513 885 607 b 626 732 757 725 682 732 b 468 710 565 732 522 731 b 382 664 436 699 408 683 b 338 622 365 651 353 638 b 197 708 306 672 268 699 b 135 711 176 713 156 711 b 21 706 86 711 54 710 l 21 560 l 38 560 b 85 547 49 560 69 560 b 104 482 106 531 104 504 l 104 0 l 349 0 l 349 361 b 396 510 349 411 353 467 b 447 543 410 525 426 536 b 510 554 468 550 489 554 b 614 511 543 554 585 549 b 646 381 646 474 646 429 z m 483 989 l 372 789 l 536 789 l 713 989 z "},"ί":{"ha":432,"x_min":0,"x_max":0,"o":"m 85 706 l 85 179 b 156 25 85 94 121 49 b 310 -6 200 -8 267 -6 b 411 0 349 -6 378 -4 l 411 146 l 396 146 b 347 158 381 146 360 147 b 329 224 329 174 329 203 l 329 706 z m 214 989 l 103 789 l 267 789 l 443 989 z "},"ΰ":{"ha":1001,"x_min":0,"x_max":0,"o":"m 322 706 l 78 706 l 78 440 b 140 126 78 329 79 219 b 501 -26 225 -4 381 -26 b 849 111 626 -26 761 -3 b 932 413 921 204 932 317 b 899 626 932 489 925 561 b 846 722 883 664 867 696 l 601 706 b 649 600 619 679 633 649 b 678 379 667 540 678 457 b 635 200 678 285 658 232 b 501 132 592 138 525 132 b 336 276 413 132 358 192 b 322 457 321 336 322 401 z m 679 1019 l 439 1019 l 343 800 l 488 800 z m 88 829 l 301 829 l 301 983 l 88 983 z m 699 829 l 914 829 l 914 983 l 699 983 z "},"α":{"ha":1096,"x_min":0,"x_max":0,"o":"m 1035 706 l 789 706 l 764 597 l 761 597 b 681 683 740 632 713 663 b 471 732 618 724 536 732 b 189 651 403 732 282 722 b 51 346 117 596 51 492 b 151 79 51 218 100 133 b 433 -26 253 -22 374 -26 b 647 18 556 -26 618 1 b 750 119 686 40 724 76 l 753 119 b 782 0 758 88 765 54 l 1044 0 b 983 172 1018 57 1001 107 b 943 333 968 228 954 282 z m 708 364 l 692 306 b 628 186 681 267 656 218 b 488 124 588 140 543 124 b 360 179 442 124 397 136 b 304 356 326 218 304 278 b 371 536 304 454 339 507 b 496 582 414 575 461 582 b 618 542 540 582 581 574 b 692 424 667 503 685 450 z "},"β":{"ha":1008,"x_min":0,"x_max":0,"o":"m 85 -257 l 329 -257 l 329 35 b 575 -26 365 13 442 -26 b 813 31 610 -26 722 -22 b 958 294 865 65 958 139 b 864 493 958 396 915 456 b 717 542 821 525 765 538 l 717 550 b 839 601 760 556 804 572 b 906 750 868 628 906 672 b 763 961 906 818 879 904 b 524 1000 703 988 629 1000 b 161 889 410 1000 251 986 b 85 649 90 811 85 710 z m 329 665 b 374 807 329 721 325 764 b 510 846 417 844 472 846 b 613 819 543 846 583 842 b 649 732 647 792 649 754 b 613 649 649 711 644 676 b 482 614 572 615 514 614 l 418 614 l 418 456 l 482 456 b 651 417 532 456 603 454 b 706 289 675 399 706 360 b 651 176 706 267 701 219 b 517 133 619 150 574 133 b 439 143 488 133 463 136 b 329 197 396 154 363 169 z "},"γ":{"ha":894,"x_min":0,"x_max":0,"o":"m 457 276 l 335 572 b 247 685 317 615 301 656 b 97 714 204 707 146 714 b 6 706 76 714 44 713 l 6 560 l 35 560 b 93 542 50 560 72 558 b 125 496 104 532 118 511 l 331 56 l 331 -257 l 575 -257 l 575 56 l 894 706 l 635 706 z "},"δ":{"ha":1028,"x_min":0,"x_max":0,"o":"m 513 132 b 356 189 442 132 388 157 b 304 335 307 238 304 300 b 353 475 304 383 313 435 b 514 531 399 524 463 531 b 674 478 599 531 647 506 b 711 411 692 460 704 438 b 721 338 718 389 721 364 b 668 189 721 304 717 238 b 513 132 636 157 585 132 z m 893 776 b 785 949 889 864 839 917 b 644 992 742 975 693 985 b 513 1000 600 997 556 1000 b 256 953 383 1000 307 985 b 178 876 224 935 196 908 b 154 779 163 849 154 817 b 297 638 154 674 250 644 l 297 632 b 126 538 238 617 172 586 b 51 331 61 469 51 390 b 189 58 51 215 97 125 b 513 -26 297 -21 422 -26 b 836 57 601 -26 729 -21 b 974 338 946 136 974 236 b 963 447 974 375 972 410 b 899 568 951 492 931 535 b 667 672 836 636 754 657 b 483 697 582 688 578 682 b 390 769 439 704 390 717 b 422 824 390 796 404 813 b 513 843 451 844 483 843 b 619 822 556 843 593 840 b 644 776 640 807 644 789 z "},"ε":{"ha":894,"x_min":0,"x_max":0,"o":"m 864 240 l 628 240 l 628 231 b 583 156 628 199 610 171 b 449 129 549 133 489 129 b 350 147 400 129 371 136 b 306 214 313 165 306 196 b 339 271 306 242 318 258 b 425 289 360 282 388 288 b 478 290 443 290 460 290 l 542 290 l 542 426 l 468 426 b 364 439 397 426 371 435 b 321 496 332 451 321 474 b 375 565 321 517 326 547 b 469 579 397 575 429 579 b 532 574 493 579 514 578 b 578 557 549 571 564 565 b 619 486 615 535 618 501 l 856 486 b 796 638 857 524 850 582 b 596 724 742 693 668 714 b 467 732 553 729 510 732 b 203 693 299 732 222 701 b 75 517 97 649 75 574 b 114 418 75 474 92 440 b 206 378 138 394 174 382 l 206 374 b 96 322 139 363 100 326 b 63 272 81 307 69 290 b 50 203 54 250 50 226 b 171 13 50 142 72 57 b 442 -26 214 -10 286 -26 b 761 33 618 -26 706 -4 b 864 231 850 93 864 174 z "},"ζ":{"ha":797,"x_min":0,"x_max":0,"o":"m 114 972 l 114 808 l 364 808 l 364 801 b 168 660 303 772 222 721 b 53 333 106 589 53 488 b 143 83 53 272 61 161 b 401 0 228 1 342 0 l 485 0 b 565 -11 540 0 556 -7 b 588 -49 583 -21 588 -33 b 558 -92 588 -68 578 -82 b 476 -104 549 -96 526 -104 l 408 -104 l 408 -257 l 506 -257 b 781 -186 618 -257 718 -249 b 831 -51 825 -142 831 -90 b 769 107 831 -14 824 60 b 608 156 729 140 663 156 l 533 156 b 378 189 488 156 426 157 b 306 347 314 235 306 294 b 464 682 306 471 343 583 b 775 808 554 756 669 796 l 775 972 z "},"η":{"ha":975,"x_min":0,"x_max":0,"o":"m 646 -257 l 890 -257 l 890 443 b 814 671 890 513 885 607 b 626 732 757 725 682 732 b 468 710 565 732 522 731 b 382 664 436 699 408 683 b 338 622 365 651 353 638 b 197 708 306 672 268 699 b 135 711 176 713 156 711 b 21 706 86 711 54 710 l 21 560 l 38 560 b 85 547 49 560 69 560 b 104 482 106 531 104 504 l 104 0 l 349 0 l 349 361 b 396 510 349 411 353 467 b 447 543 410 525 426 536 b 510 554 468 550 489 554 b 614 511 543 554 585 549 b 646 381 646 474 646 429 z "},"θ":{"ha":994,"x_min":0,"x_max":0,"o":"m 496 -26 b 807 94 611 -26 714 -3 b 940 486 831 121 940 243 b 807 878 940 649 890 789 b 496 1000 707 986 582 1000 b 185 878 410 1000 285 986 b 51 486 101 789 51 649 b 185 94 51 243 161 121 b 496 -26 278 -3 381 -26 z m 690 413 b 642 229 683 304 646 243 b 496 132 599 156 546 132 b 349 229 431 132 383 167 b 303 413 317 286 303 353 z m 301 571 b 349 743 306 619 317 686 b 496 842 385 808 433 842 b 643 746 558 842 607 810 b 690 571 676 685 686 617 z "},"ι":{"ha":432,"x_min":0,"x_max":0,"o":"m 85 706 l 85 179 b 156 25 85 94 121 49 b 310 -6 200 -8 267 -6 b 411 0 349 -6 378 -4 l 411 146 l 396 146 b 347 158 381 146 360 147 b 329 224 329 174 329 203 l 329 706 z "},"κ":{"ha":885,"x_min":0,"x_max":0,"o":"m 329 397 l 329 706 l 85 706 l 85 0 l 329 0 l 329 328 l 607 0 l 899 0 l 551 376 l 878 706 l 600 706 z "},"λ":{"ha":925,"x_min":0,"x_max":0,"o":"m 278 0 l 465 450 l 579 133 b 669 19 597 82 631 40 b 817 -8 710 -3 774 -8 b 919 0 854 -8 889 -6 l 919 146 l 893 146 b 833 163 872 146 850 147 b 806 210 824 172 815 183 l 579 803 b 467 950 561 851 533 913 b 286 981 413 982 347 981 b 185 972 253 981 224 978 l 185 815 b 243 821 203 819 222 821 b 300 810 264 821 283 819 b 332 763 321 797 328 778 l 353 697 l 0 0 z "},"ν":{"ha":831,"x_min":0,"x_max":0,"o":"m 436 211 l 431 211 l 264 706 l 0 706 l 299 0 l 568 0 l 783 514 b 818 607 799 549 811 581 b 825 657 822 625 825 642 b 810 722 825 678 821 699 l 561 706 b 569 683 565 699 568 690 b 572 658 571 674 572 668 b 557 578 572 625 564 600 z "},"ξ":{"ha":764,"x_min":0,"x_max":0,"o":"m 28 972 l 28 808 l 196 808 l 196 803 b 132 764 174 793 149 781 b 89 658 100 736 89 697 b 146 542 89 614 111 574 b 268 489 179 514 228 496 l 268 482 b 104 406 208 475 144 449 b 46 249 93 394 46 340 b 129 63 46 169 79 106 b 381 0 200 3 296 0 l 424 0 b 503 -12 446 0 476 4 b 526 -53 524 -25 526 -40 b 499 -92 526 -74 514 -85 b 417 -104 478 -101 438 -104 l 347 -104 l 347 -257 l 444 -257 b 719 -185 558 -257 656 -249 b 769 -44 765 -139 769 -93 b 707 110 769 10 763 64 b 547 156 657 153 596 156 l 486 156 b 351 178 442 156 392 156 b 299 265 319 196 299 222 b 350 367 299 322 333 354 b 524 406 400 401 472 406 l 679 406 l 679 569 l 524 569 b 364 607 483 569 413 572 b 325 674 338 625 325 647 b 375 774 325 701 329 742 b 517 808 419 806 474 808 l 735 808 l 735 972 z "},"ο":{"ha":1028,"x_min":0,"x_max":0,"o":"m 513 574 b 663 521 557 574 618 565 b 721 353 700 483 721 424 b 663 185 721 282 700 222 b 513 132 618 140 557 132 b 363 185 468 132 407 140 b 304 353 325 222 304 282 b 363 521 304 424 325 483 b 513 574 407 565 468 574 z m 974 353 b 851 639 974 446 953 557 b 513 732 747 721 606 732 b 174 639 419 732 278 721 b 51 353 72 557 51 446 b 174 67 51 260 72 149 b 513 -26 276 -17 421 -26 b 851 67 604 -26 749 -17 b 974 353 953 149 974 260 z "},"π":{"ha":1064,"x_min":0,"x_max":0,"o":"m 172 0 l 417 0 l 417 550 l 672 550 l 672 167 b 715 33 672 131 671 69 b 871 -7 754 -1 819 -7 b 1007 3 903 -7 951 -7 l 1007 149 l 999 149 b 938 163 978 149 953 151 b 917 232 917 179 917 217 l 917 550 l 1028 550 l 1028 706 l 199 706 b 101 699 164 706 133 704 b 36 676 79 694 57 686 l 36 524 b 94 544 57 533 76 540 b 172 551 117 550 146 551 z "},"ρ":{"ha":1006,"x_min":0,"x_max":0,"o":"m 85 -257 l 329 -257 l 329 60 b 411 1 350 36 374 18 b 561 -26 468 -25 510 -26 b 872 101 671 -26 788 -10 b 951 351 928 172 951 263 b 850 625 951 472 910 568 b 524 732 751 724 599 732 b 204 643 446 732 299 724 b 85 324 97 554 85 431 z m 318 354 b 360 507 318 403 322 458 b 508 574 392 546 438 574 b 654 510 569 574 617 558 b 699 354 694 460 699 403 b 654 199 699 300 689 244 b 514 132 622 158 579 132 b 360 204 436 132 388 167 b 318 354 322 253 318 308 z "},"ς":{"ha":943,"x_min":0,"x_max":0,"o":"m 906 454 b 789 658 893 558 839 619 b 507 732 704 724 603 732 b 351 718 453 732 403 729 b 183 640 290 706 232 679 b 51 351 100 569 51 458 b 78 213 51 303 60 256 b 183 74 100 158 135 108 b 471 0 272 11 381 0 l 560 0 b 611 -3 578 0 594 1 b 640 -11 621 -4 631 -6 b 663 -49 658 -21 663 -33 b 657 -71 663 -57 661 -64 b 633 -92 651 -81 643 -87 b 551 -104 624 -96 601 -104 l 483 -104 l 483 -257 l 581 -257 b 856 -186 693 -257 793 -249 b 906 -51 900 -142 906 -90 b 894 31 906 -24 904 4 b 844 107 885 60 868 86 b 683 156 804 140 738 156 l 526 156 b 347 224 478 156 400 160 b 304 368 310 267 304 324 b 314 449 304 396 304 422 b 351 515 321 475 335 494 b 503 574 400 569 454 574 b 583 563 531 574 557 572 b 639 526 604 556 624 543 b 671 454 663 503 671 481 z "},"σ":{"ha":1056,"x_min":0,"x_max":0,"o":"m 974 353 b 932 542 974 446 954 499 l 1049 542 l 1049 706 l 721 706 b 513 732 672 721 614 732 b 174 639 419 732 278 721 b 51 353 72 557 51 446 b 174 67 51 260 72 149 b 513 -26 276 -17 421 -26 b 851 67 604 -26 749 -17 b 974 353 953 149 974 260 z m 513 574 b 663 521 557 574 618 565 b 721 353 700 483 721 424 b 663 185 721 282 700 222 b 513 132 618 140 557 132 b 363 185 468 132 407 140 b 304 353 325 222 304 282 b 363 521 304 424 325 483 b 513 574 407 565 468 574 z "},"τ":{"ha":794,"x_min":0,"x_max":0,"o":"m 283 542 l 283 179 b 354 25 283 94 319 49 b 501 -6 397 -4 451 -6 b 611 0 547 -6 578 -4 l 611 142 l 596 142 b 547 154 581 142 560 143 b 528 219 529 171 528 207 l 528 542 l 781 542 l 781 706 l 208 706 b 14 675 119 706 68 697 l 14 511 b 96 535 36 521 61 529 b 201 542 129 540 168 542 z "},"υ":{"ha":1001,"x_min":0,"x_max":0,"o":"m 322 706 l 78 706 l 78 440 b 140 126 78 329 79 219 b 501 -26 225 -4 381 -26 b 849 111 626 -26 761 -3 b 932 413 921 204 932 317 b 899 626 932 489 925 561 b 846 722 883 664 867 696 l 601 706 b 649 600 619 679 633 649 b 678 379 667 540 678 457 b 635 200 678 285 658 232 b 501 132 592 138 525 132 b 336 276 413 132 358 192 b 322 457 321 336 322 401 z "},"φ":{"ha":1297,"x_min":0,"x_max":0,"o":"m 525 -257 l 769 -257 l 769 0 b 1157 125 946 -6 1078 40 b 1243 356 1194 165 1243 239 b 1165 576 1243 475 1192 547 b 774 706 1065 692 919 706 l 525 706 l 525 158 b 354 219 451 154 388 182 b 304 357 325 251 304 297 b 313 418 304 378 307 399 b 349 493 319 446 331 472 b 444 547 371 519 404 540 l 444 706 b 126 581 328 706 203 668 b 51 361 89 538 51 467 b 75 228 51 315 58 271 b 215 65 101 161 153 103 b 525 0 304 10 442 -4 z m 769 547 l 794 547 b 879 533 826 547 854 543 b 940 494 903 524 924 511 b 990 356 985 450 990 388 b 947 226 990 329 988 272 b 769 158 910 183 842 154 z "},"χ":{"ha":850,"x_min":0,"x_max":0,"o":"m 431 419 l 322 608 b 251 686 310 631 290 664 b 117 714 208 713 160 714 b 19 706 82 714 54 711 l 21 560 l 50 560 b 144 510 71 560 115 561 l 288 267 l -28 -257 l 219 -257 l 413 89 l 531 -124 b 628 -236 557 -168 579 -210 b 775 -265 682 -265 757 -265 b 858 -257 813 -265 847 -261 l 858 -110 l 831 -110 b 732 -54 804 -110 761 -106 l 551 253 l 836 706 l 586 706 z "},"ψ":{"ha":1321,"x_min":0,"x_max":0,"o":"m 539 -257 l 783 -257 l 783 0 b 1163 129 985 -4 1101 60 b 1251 417 1239 217 1251 336 b 1218 624 1251 489 1244 553 b 1165 722 1201 669 1186 696 l 922 706 b 969 601 942 672 957 638 b 997 422 988 543 997 483 b 944 222 997 361 988 269 b 783 158 910 179 849 154 l 783 972 l 539 972 l 539 158 b 389 213 454 154 404 197 b 322 474 318 279 322 376 l 322 706 l 78 706 l 78 440 b 146 144 78 338 75 238 b 539 0 175 104 279 -7 z "},"ω":{"ha":1261,"x_min":0,"x_max":0,"o":"m 769 564 b 922 475 857 557 899 511 b 954 324 950 429 954 363 b 924 178 954 272 947 215 b 839 132 903 147 875 132 b 771 164 818 132 792 138 b 749 269 747 196 749 240 l 749 413 l 510 413 l 510 269 b 488 164 510 240 511 196 b 419 132 467 138 440 132 b 335 178 383 132 356 147 b 304 324 311 215 304 272 b 336 475 304 363 308 429 b 489 564 360 511 401 557 l 489 722 b 140 592 313 722 208 664 b 51 336 68 513 51 436 b 175 42 51 261 61 129 b 397 -26 246 -14 326 -26 b 561 17 449 -26 513 -21 b 626 117 585 35 614 67 l 632 117 b 650 71 636 99 643 83 b 697 17 663 49 678 31 b 861 -26 746 -21 810 -26 b 1083 42 932 -26 1013 -14 b 1207 336 1197 129 1207 261 b 1190 468 1207 381 1203 425 b 1118 592 1175 514 1150 554 b 769 722 1053 664 943 724 z "},"ϊ":{"ha":432,"x_min":0,"x_max":0,"o":"m 85 706 l 85 179 b 156 25 85 94 121 49 b 310 -6 200 -8 267 -6 b 411 0 349 -6 378 -4 l 411 146 l 396 146 b 347 158 381 146 360 147 b 329 224 329 174 329 203 l 329 706 z m 288 829 l 503 829 l 503 983 l 288 983 z m -78 829 l 136 829 l 136 983 l -78 983 z "},"ϋ":{"ha":1001,"x_min":0,"x_max":0,"o":"m 322 706 l 78 706 l 78 440 b 140 126 78 329 79 219 b 501 -26 225 -4 381 -26 b 849 111 626 -26 761 -3 b 932 413 921 204 932 317 b 899 626 932 489 925 561 b 846 722 883 664 867 696 l 601 706 b 649 600 619 679 633 649 b 678 379 667 540 678 457 b 635 200 678 285 658 232 b 501 132 592 138 525 132 b 336 276 413 132 358 192 b 322 457 321 336 322 401 z m 563 829 l 778 829 l 778 983 l 563 983 z m 197 829 l 411 829 l 411 983 l 197 983 z "},"ό":{"ha":1028,"x_min":0,"x_max":0,"o":"m 513 574 b 663 521 557 574 618 565 b 721 353 700 483 721 424 b 663 185 721 282 700 222 b 513 132 618 140 557 132 b 363 185 468 132 407 140 b 304 353 325 222 304 282 b 363 521 304 424 325 483 b 513 574 407 565 468 574 z m 974 353 b 851 639 974 446 953 557 b 513 732 747 721 606 732 b 174 639 419 732 278 721 b 51 353 72 557 51 446 b 174 67 51 260 72 149 b 513 -26 276 -17 421 -26 b 851 67 604 -26 749 -17 b 974 353 953 149 974 260 z m 510 989 l 399 789 l 563 789 l 739 989 z "},"ύ":{"ha":1001,"x_min":0,"x_max":0,"o":"m 322 706 l 78 706 l 78 440 b 140 126 78 329 79 219 b 501 -26 225 -4 381 -26 b 849 111 626 -26 761 -3 b 932 413 921 204 932 317 b 899 626 932 489 925 561 b 846 722 883 664 867 696 l 601 706 b 649 600 619 679 633 649 b 678 379 667 540 678 457 b 635 200 678 285 658 232 b 501 132 592 138 525 132 b 336 276 413 132 358 192 b 322 457 321 336 322 401 z m 497 989 l 386 789 l 550 789 l 726 989 z "},"ώ":{"ha":1261,"x_min":0,"x_max":0,"o":"m 769 564 b 922 475 857 557 899 511 b 954 324 950 429 954 363 b 924 178 954 272 947 215 b 839 132 903 147 875 132 b 771 164 818 132 792 138 b 749 269 747 196 749 240 l 749 413 l 510 413 l 510 269 b 488 164 510 240 511 196 b 419 132 467 138 440 132 b 335 178 383 132 356 147 b 304 324 311 215 304 272 b 336 475 304 363 308 429 b 489 564 360 511 401 557 l 489 722 b 140 592 313 722 208 664 b 51 336 68 513 51 436 b 175 42 51 261 61 129 b 397 -26 246 -14 326 -26 b 561 17 449 -26 513 -21 b 626 117 585 35 614 67 l 632 117 b 650 71 636 99 643 83 b 697 17 663 49 678 31 b 861 -26 746 -21 810 -26 b 1083 42 932 -26 1013 -14 b 1207 336 1197 129 1207 261 b 1190 468 1207 381 1203 425 b 1118 592 1175 514 1150 554 b 769 722 1053 664 943 724 z m 628 989 l 517 789 l 681 789 l 857 989 z "},"Ё":{"ha":1039,"x_min":0,"x_max":0,"o":"m 360 586 l 360 778 l 990 778 l 990 972 l 104 972 l 104 0 l 1006 0 l 1006 194 l 360 194 l 360 403 l 893 403 l 893 586 z m 633 1074 l 842 1074 l 842 1224 l 633 1224 z m 250 1074 l 458 1074 l 458 1224 l 250 1224 z "},"Ђ":{"ha":1367,"x_min":0,"x_max":0,"o":"m 326 0 l 582 0 l 582 396 b 753 418 642 413 688 418 b 924 388 853 418 897 403 b 982 279 967 361 982 328 b 936 181 982 247 974 208 b 810 151 910 161 867 151 b 703 169 769 151 740 157 l 703 -3 b 900 -24 774 -18 828 -24 b 1169 56 979 -24 1085 -22 b 1257 278 1243 122 1257 211 b 1131 528 1257 378 1229 465 b 814 596 1065 571 971 596 b 582 576 736 596 665 592 l 582 775 l 911 775 l 911 972 l 18 972 l 18 775 l 326 775 z "},"Ѓ":{"ha":890,"x_min":0,"x_max":0,"o":"m 360 772 l 871 772 l 871 972 l 104 972 l 104 0 l 360 0 z m 457 1264 l 346 1064 l 510 1064 l 686 1264 z "},"Є":{"ha":1217,"x_min":0,"x_max":0,"o":"m 1151 649 b 1003 913 1147 726 1122 833 b 624 996 954 942 850 996 b 192 858 486 996 311 974 b 58 485 121 788 58 672 b 196 96 58 278 132 160 b 606 -29 313 -17 472 -29 b 1058 93 800 -29 947 -18 b 1158 339 1118 153 1158 233 l 885 339 b 806 206 878 271 843 229 b 633 165 751 168 685 165 b 415 229 578 165 481 167 b 340 407 367 274 344 344 l 765 407 l 765 581 l 343 581 b 414 733 350 638 375 696 b 626 801 475 793 558 801 b 804 765 675 801 753 794 b 879 649 861 731 875 681 z "},"Ѕ":{"ha":1065,"x_min":0,"x_max":0,"o":"m 49 315 l 49 310 b 128 86 49 251 57 161 b 557 -28 228 -18 401 -28 b 900 47 758 -28 849 11 b 1014 283 961 92 1014 165 b 915 496 1014 351 997 435 b 668 576 850 544 756 561 l 557 594 b 390 629 454 610 417 618 b 321 703 358 640 321 658 b 369 788 321 736 338 767 b 503 814 403 808 454 814 b 658 788 539 814 613 810 b 717 699 701 765 713 733 l 975 699 b 844 935 979 771 960 868 b 506 1000 779 974 682 1000 b 188 931 404 1000 285 990 b 54 682 99 875 54 794 b 108 526 54 599 86 553 b 400 421 171 457 293 436 l 540 399 b 675 367 575 392 646 378 b 743 283 735 343 743 306 b 679 186 743 250 722 208 b 540 164 653 171 614 164 b 353 217 490 164 401 168 b 315 310 332 235 315 264 l 315 315 z "},"І":{"ha":469,"x_min":0,"x_max":0,"o":"m 104 972 l 104 0 l 360 0 l 360 972 z "},"Ї":{"ha":469,"x_min":0,"x_max":0,"o":"m 265 1064 l 453 1064 l 453 1218 l 265 1218 z m 15 1064 l 203 1064 l 203 1218 l 15 1218 z m 107 972 l 107 0 l 363 0 l 363 972 z "},"Ј":{"ha":935,"x_min":0,"x_max":0,"o":"m 36 367 l 36 333 b 121 64 36 274 38 147 b 442 -28 210 -29 354 -28 b 746 63 525 -28 653 -31 b 838 351 826 143 838 261 l 838 972 l 582 972 l 582 350 b 544 207 582 313 581 251 b 435 167 513 172 474 167 b 326 204 406 167 360 167 b 292 338 292 242 292 289 l 292 367 z "},"Љ":{"ha":1778,"x_min":0,"x_max":0,"o":"m 1051 431 l 1301 431 b 1425 403 1339 431 1392 429 b 1468 310 1446 388 1468 358 b 1426 213 1468 267 1450 233 b 1297 181 1388 182 1324 181 l 1051 181 z m 1328 0 b 1667 93 1447 0 1578 0 b 1743 311 1733 164 1743 244 b 1664 519 1743 372 1732 451 b 1335 611 1579 604 1467 611 l 1051 611 l 1051 972 l 233 972 l 232 597 b 222 379 232 506 229 453 b 164 217 218 325 210 260 b 68 185 135 190 101 185 b 18 190 47 185 31 186 l 18 3 b 132 -10 63 -8 93 -10 b 351 61 196 -10 278 -6 b 449 290 419 124 439 207 b 464 556 458 368 464 474 l 465 778 l 796 778 l 796 0 z "},"Њ":{"ha":1797,"x_min":0,"x_max":0,"o":"m 1071 431 l 1322 431 b 1446 403 1360 431 1411 429 b 1488 310 1483 376 1488 339 b 1447 213 1488 260 1469 231 b 1318 181 1432 200 1400 181 l 1071 181 z m 1347 0 b 1686 93 1467 0 1597 0 b 1763 311 1753 164 1763 244 b 1683 519 1763 372 1751 451 b 1354 611 1599 604 1486 611 l 1071 611 l 1071 972 l 815 972 l 815 611 l 360 611 l 360 972 l 104 972 l 104 0 l 360 0 l 360 431 l 815 431 l 815 0 z "},"Ћ":{"ha":1358,"x_min":0,"x_max":0,"o":"m 1249 0 l 1249 331 b 1181 525 1249 382 1243 463 b 808 628 1103 607 953 628 b 582 608 715 628 639 618 l 582 775 l 911 775 l 911 972 l 18 972 l 18 775 l 326 775 l 326 0 l 582 0 l 582 418 b 757 433 653 433 697 433 b 954 385 814 433 901 433 b 993 269 993 347 993 303 l 993 0 z "},"Ќ":{"ha":1076,"x_min":0,"x_max":0,"o":"m 360 554 l 360 972 l 104 972 l 104 0 l 360 0 l 360 485 l 769 0 l 1090 0 l 603 519 l 1063 972 l 757 972 z m 525 1264 l 414 1064 l 578 1064 l 754 1264 z "},"Ў":{"ha":957,"x_min":0,"x_max":0,"o":"m 510 476 l 285 972 l 6 972 l 360 289 l 349 263 b 297 194 339 242 329 213 b 214 176 271 178 242 176 b 117 196 185 176 154 179 l 117 6 b 282 -18 183 -18 236 -18 b 510 56 364 -18 439 -12 b 617 228 536 79 567 122 l 971 972 l 715 972 z m 618 1246 b 582 1171 618 1197 589 1176 b 479 1149 564 1156 533 1149 b 375 1171 424 1149 393 1156 b 340 1246 360 1181 339 1203 l 163 1246 b 224 1107 163 1217 168 1157 b 479 1040 286 1047 390 1040 b 735 1107 571 1040 668 1049 b 794 1246 772 1139 796 1185 z "},"Џ":{"ha":1172,"x_min":0,"x_max":0,"o":"m 360 197 l 360 972 l 104 972 l 104 0 l 471 0 l 471 -293 l 696 -293 l 696 0 l 1063 0 l 1063 972 l 807 972 l 807 197 z "},"А":{"ha":1097,"x_min":0,"x_max":0,"o":"m 401 364 l 549 728 l 699 364 z m 339 197 l 760 197 l 844 0 l 1111 0 l 675 972 l 424 972 l -12 0 l 254 0 z "},"Б":{"ha":1118,"x_min":0,"x_max":0,"o":"m 360 414 l 601 414 b 753 381 661 414 715 413 b 785 300 781 354 785 324 b 754 218 785 274 781 244 b 603 181 717 181 654 181 l 360 181 z m 360 778 l 994 778 l 994 972 l 104 972 l 104 0 l 650 0 b 976 83 767 0 892 6 b 1060 306 1047 151 1060 238 b 988 508 1060 368 1049 446 b 690 594 910 590 785 594 l 360 594 z "},"В":{"ha":1143,"x_min":0,"x_max":0,"o":"m 360 411 l 628 411 b 749 390 653 411 717 408 b 797 296 771 378 797 350 b 749 201 797 246 772 217 b 632 181 744 197 714 181 l 360 181 z m 360 792 l 603 792 b 719 771 647 792 690 792 b 758 693 740 756 758 733 b 726 615 758 653 742 628 b 589 586 694 589 649 586 l 360 586 z m 104 972 l 104 0 l 675 0 b 1000 76 781 0 922 6 b 1072 267 1040 114 1072 178 b 1013 432 1072 315 1064 381 b 829 508 968 476 892 503 l 829 514 b 963 574 838 514 911 526 b 1021 726 990 600 1021 649 b 926 922 1021 850 949 907 b 665 972 858 968 764 972 z "},"Г":{"ha":890,"x_min":0,"x_max":0,"o":"m 360 772 l 871 772 l 871 972 l 104 972 l 104 0 l 360 0 z "},"Д":{"ha":1275,"x_min":0,"x_max":0,"o":"m 835 778 l 835 194 l 390 194 b 494 449 433 268 478 365 b 517 704 510 515 517 644 l 517 778 z m 1090 194 l 1090 972 l 283 972 l 283 760 b 253 453 283 669 288 576 b 143 194 231 371 186 272 l 0 194 l 15 -208 l 228 -208 l 228 0 l 1028 0 l 1028 -208 l 1242 -208 l 1256 194 z "},"Е":{"ha":1039,"x_min":0,"x_max":0,"o":"m 360 586 l 360 778 l 990 778 l 990 972 l 104 972 l 104 0 l 1006 0 l 1006 194 l 360 194 l 360 403 l 893 403 l 893 586 z "},"Ж":{"ha":1588,"x_min":0,"x_max":0,"o":"m 667 0 l 922 0 l 922 449 l 1293 0 l 1601 0 l 1142 525 l 1582 972 l 1281 972 l 922 578 l 922 972 l 667 972 l 667 578 l 308 972 l 7 972 l 449 525 l -12 0 l 297 0 l 667 449 z "},"З":{"ha":1114,"x_min":0,"x_max":0,"o":"m 49 322 b 188 43 42 175 118 88 b 551 -26 260 -3 368 -26 b 893 22 756 -26 842 -4 b 1043 278 944 49 1043 115 b 975 439 1043 333 1029 390 b 826 500 940 471 888 494 l 826 507 b 953 560 875 511 921 531 b 1007 706 999 604 1007 665 b 925 896 1007 788 982 846 b 525 997 847 963 721 997 b 188 922 333 997 236 956 b 49 672 78 853 49 751 l 313 672 b 375 776 313 699 324 747 b 525 806 415 800 481 806 b 663 783 563 806 622 801 b 733 688 719 757 733 714 b 678 597 733 668 729 624 b 528 576 646 582 604 576 l 435 576 l 435 401 l 533 401 b 685 385 621 401 658 394 b 754 292 733 368 754 340 b 689 188 754 236 721 204 b 539 163 646 167 576 163 b 378 197 493 163 419 169 b 315 322 350 215 311 253 z "},"И":{"ha":1206,"x_min":0,"x_max":0,"o":"m 360 321 l 360 972 l 104 972 l 104 0 l 363 0 l 840 657 l 840 0 l 1096 0 l 1096 972 l 839 972 z "},"Й":{"ha":1206,"x_min":0,"x_max":0,"o":"m 360 321 l 360 972 l 104 972 l 104 0 l 363 0 l 840 657 l 840 0 l 1096 0 l 1096 972 l 839 972 z m 736 1246 b 700 1171 736 1197 707 1176 b 597 1149 682 1156 651 1149 b 493 1171 542 1149 511 1156 b 458 1246 478 1181 457 1203 l 281 1246 b 342 1107 281 1217 286 1157 b 597 1040 404 1047 508 1040 b 853 1107 689 1040 786 1049 b 913 1246 890 1139 914 1185 z "},"К":{"ha":1076,"x_min":0,"x_max":0,"o":"m 360 554 l 360 972 l 104 972 l 104 0 l 360 0 l 360 485 l 769 0 l 1090 0 l 603 519 l 1063 972 l 757 972 z "},"Л":{"ha":1167,"x_min":0,"x_max":0,"o":"m 18 3 b 132 -10 63 -8 93 -10 b 351 61 196 -10 278 -6 b 449 290 419 124 439 207 b 464 556 458 368 464 474 l 465 778 l 801 778 l 801 0 l 1057 0 l 1057 972 l 233 972 l 232 597 b 222 379 232 506 229 453 b 164 217 218 325 210 260 b 68 185 135 190 101 185 b 18 190 47 185 31 186 z "},"М":{"ha":1493,"x_min":0,"x_max":0,"o":"m 651 0 l 836 0 l 1128 724 l 1138 724 l 1128 642 l 1128 0 l 1383 0 l 1383 972 l 1022 972 l 747 267 l 740 267 l 465 972 l 104 972 l 104 0 l 360 0 l 360 642 l 350 724 l 360 724 z "},"Н":{"ha":1186,"x_min":0,"x_max":0,"o":"m 360 414 l 821 414 l 821 0 l 1076 0 l 1076 972 l 821 972 l 821 608 l 360 608 l 360 972 l 104 972 l 104 0 l 360 0 z "},"О":{"ha":1276,"x_min":0,"x_max":0,"o":"m 636 806 b 847 731 701 806 781 796 b 936 486 928 654 936 540 b 847 242 936 432 928 318 b 636 167 781 176 701 167 b 425 242 571 167 492 176 b 336 486 344 318 336 432 b 425 731 336 540 344 654 b 636 806 492 796 571 806 z m 1214 486 b 1061 858 1214 603 1190 740 b 636 1000 989 924 858 1000 b 211 858 414 1000 283 924 b 58 486 82 740 58 603 b 211 114 58 372 81 229 b 636 -28 283 49 414 -28 b 1061 114 858 -28 989 49 b 1214 486 1192 229 1214 372 z "},"П":{"ha":1167,"x_min":0,"x_max":0,"o":"m 360 778 l 801 778 l 801 0 l 1057 0 l 1057 972 l 104 972 l 104 0 l 360 0 z "},"Р":{"ha":1081,"x_min":0,"x_max":0,"o":"m 360 778 l 606 778 b 731 750 688 778 721 757 b 778 650 758 729 778 699 b 742 550 778 606 763 571 b 590 510 708 517 638 510 l 360 510 z m 104 972 l 104 0 l 360 0 l 360 321 l 608 321 b 963 422 749 321 874 326 b 1042 653 1028 493 1042 575 b 951 885 1042 728 1026 814 b 625 972 867 963 758 972 z "},"С":{"ha":1175,"x_min":0,"x_max":0,"o":"m 869 340 b 797 203 865 269 829 225 b 628 165 747 168 678 165 b 419 236 561 165 485 174 b 336 482 376 279 336 354 b 417 728 336 611 378 685 b 626 804 482 796 556 804 b 790 765 678 804 736 799 b 863 646 840 733 858 694 l 1129 646 b 989 913 1125 796 1040 879 b 608 999 871 993 676 999 b 193 853 486 999 319 979 b 58 481 85 740 58 604 b 199 106 58 368 81 215 b 631 -29 325 -17 485 -29 b 982 47 754 -29 886 -19 b 1136 340 1047 92 1129 190 z "},"Т":{"ha":971,"x_min":0,"x_max":0,"o":"m 357 778 l 357 0 l 613 0 l 613 778 l 951 778 l 951 972 l 18 972 l 18 778 z "},"У":{"ha":957,"x_min":0,"x_max":0,"o":"m 510 476 l 285 972 l 6 972 l 360 289 l 349 263 b 297 194 339 242 329 213 b 214 176 271 178 242 176 b 117 196 185 176 154 179 l 117 6 b 282 -18 183 -18 236 -18 b 510 56 364 -18 439 -12 b 617 228 536 79 567 122 l 971 972 l 715 972 z "},"Ф":{"ha":1446,"x_min":0,"x_max":0,"o":"m 607 278 l 572 278 b 386 319 456 278 397 313 b 297 497 360 335 297 388 b 382 667 297 586 339 639 b 575 713 431 699 503 713 l 607 713 z m 836 278 l 836 713 l 867 713 b 1054 675 915 713 1001 706 b 1147 497 1097 650 1147 590 b 1054 317 1147 381 1076 332 b 868 278 999 282 922 278 z m 594 -36 l 850 -36 l 850 107 l 886 107 b 1300 225 1051 107 1200 125 b 1403 497 1382 304 1403 401 b 1306 761 1403 575 1388 679 b 885 885 1183 883 979 885 l 850 885 l 850 1026 l 594 1026 l 594 885 l 558 885 b 140 761 408 885 247 868 b 42 497 64 683 42 597 b 146 225 42 418 58 310 b 557 107 244 126 388 107 l 594 107 z "},"Х":{"ha":1110,"x_min":0,"x_max":0,"o":"m 571 650 l 332 972 l 19 972 l 399 504 l 0 0 l 311 0 l 551 332 l 783 0 l 1110 0 l 715 504 l 1103 972 l 810 972 z "},"Ц":{"ha":1253,"x_min":0,"x_max":0,"o":"m 360 200 l 360 972 l 104 972 l 104 0 l 996 0 l 996 -208 l 1219 -208 l 1233 200 l 1067 200 l 1067 972 l 811 972 l 811 200 z "},"Ч":{"ha":1083,"x_min":0,"x_max":0,"o":"m 67 972 l 67 675 b 136 460 67 606 69 522 b 507 375 218 381 382 375 b 718 390 586 375 642 378 l 718 0 l 974 0 l 974 972 l 718 972 l 718 585 b 542 569 658 572 610 569 b 360 611 425 569 382 590 b 322 729 325 644 322 696 l 322 972 z "},"Ш":{"ha":1728,"x_min":0,"x_max":0,"o":"m 360 200 l 360 972 l 104 972 l 104 0 l 1618 0 l 1618 972 l 1363 972 l 1363 200 l 989 200 l 989 972 l 733 972 l 733 200 z "},"Щ":{"ha":1804,"x_min":0,"x_max":0,"o":"m 360 200 l 360 972 l 104 972 l 104 0 l 1547 0 l 1547 -208 l 1771 -208 l 1785 200 l 1618 200 l 1618 972 l 1363 972 l 1363 200 l 989 200 l 989 972 l 733 972 l 733 200 z "},"Ъ":{"ha":1274,"x_min":0,"x_max":0,"o":"m 542 431 l 797 431 b 921 403 835 431 888 429 b 964 310 942 388 964 358 b 922 213 964 267 946 233 b 793 181 883 182 819 181 l 542 181 z m 542 972 l 18 972 l 18 772 l 286 772 l 286 0 l 824 0 b 1163 93 943 0 1074 0 b 1239 311 1229 164 1239 244 b 1160 519 1239 372 1228 451 b 831 611 1075 604 963 611 l 542 611 z "},"Ы":{"ha":1499,"x_min":0,"x_max":0,"o":"m 360 431 l 615 431 b 739 403 653 431 706 429 b 782 315 763 386 782 356 b 740 218 782 272 764 239 b 611 186 701 188 638 186 l 360 186 z m 360 972 l 104 972 l 104 0 l 618 0 b 910 56 685 0 831 4 b 1036 313 969 93 1036 168 b 939 535 1036 379 1024 469 b 650 611 853 601 735 611 l 360 611 z m 1133 972 l 1133 0 l 1389 0 l 1389 972 z "},"Ь":{"ha":1092,"x_min":0,"x_max":0,"o":"m 360 431 l 615 431 b 739 403 653 431 704 429 b 782 315 763 386 782 358 b 740 218 782 272 764 239 b 611 186 701 188 638 186 l 360 186 z m 360 972 l 104 972 l 104 0 l 642 0 b 981 93 761 0 892 0 b 1057 311 1047 164 1057 244 b 978 519 1057 372 1046 451 b 649 611 893 604 781 611 l 360 611 z "},"Э":{"ha":1211,"x_min":0,"x_max":0,"o":"m 328 649 b 406 765 332 675 346 728 b 574 803 457 797 525 803 b 776 757 601 803 711 801 b 864 578 808 736 868 678 l 443 578 l 443 397 l 864 397 b 792 217 868 319 836 254 b 596 163 733 165 651 163 b 394 206 535 163 450 167 b 322 339 363 226 326 268 l 56 339 b 233 36 60 256 81 125 b 619 -32 343 -26 488 -32 b 1022 101 744 -32 904 -24 b 1149 496 1140 224 1149 400 b 1024 861 1149 600 1138 750 b 583 997 893 989 674 997 b 228 921 481 997 335 988 b 61 649 157 876 76 793 z "},"Ю":{"ha":1742,"x_min":0,"x_max":0,"o":"m 1107 806 b 1314 732 1167 806 1251 794 b 1401 486 1374 672 1401 579 b 1313 239 1401 386 1372 296 b 1110 167 1246 175 1174 167 b 899 242 1036 167 964 176 b 811 486 853 288 811 365 b 899 732 811 597 847 681 b 1107 806 964 797 1040 806 z m 360 608 l 360 972 l 104 972 l 104 0 l 360 0 l 360 414 l 547 414 b 700 96 558 243 646 143 b 1106 -28 822 -11 967 -28 b 1535 114 1238 -28 1406 -15 b 1679 490 1594 174 1679 290 b 1543 847 1679 669 1611 779 b 1097 1000 1407 983 1210 1000 b 724 892 992 1000 850 988 b 551 608 601 799 567 682 z "},"Я":{"ha":1146,"x_min":0,"x_max":0,"o":"m 781 778 l 781 526 l 522 526 b 392 553 482 526 431 526 b 343 651 349 582 343 622 b 383 746 343 700 363 729 b 513 778 421 776 482 778 z m 781 338 l 781 0 l 1036 0 l 1036 972 l 467 972 b 163 876 371 972 249 960 b 79 653 94 811 79 731 b 146 457 79 593 89 517 b 350 365 192 408 272 372 l 49 0 l 369 0 l 607 338 z "},"а":{"ha":983,"x_min":0,"x_max":0,"o":"m 635 314 b 585 167 635 238 614 196 b 447 118 542 124 492 118 b 354 140 418 118 381 119 b 325 200 338 153 325 174 b 358 260 325 233 346 250 b 457 285 382 275 417 281 l 508 290 b 635 325 579 297 607 301 z m 346 478 b 386 554 347 521 374 544 b 492 579 421 578 472 579 b 589 560 524 579 563 575 b 633 490 626 539 633 513 b 617 444 633 474 628 456 b 488 414 596 422 553 419 l 376 404 b 118 325 303 397 186 389 b 65 186 79 288 65 240 b 147 18 65 93 110 44 b 367 -26 207 -22 296 -26 b 535 -6 421 -26 479 -24 b 644 69 581 10 615 32 l 650 69 l 665 0 l 932 0 l 932 19 b 893 47 908 24 897 40 b 882 132 892 51 882 69 l 882 446 b 822 639 882 506 881 578 b 488 732 743 722 588 732 b 167 643 360 732 246 721 b 99 478 124 600 99 549 z "},"б":{"ha":1035,"x_min":0,"x_max":0,"o":"m 525 556 b 669 504 568 556 625 549 b 728 344 708 465 728 400 b 668 182 728 290 711 225 b 525 129 624 136 569 129 b 382 182 476 129 426 136 b 324 344 342 225 324 285 b 382 504 324 401 342 464 b 525 556 425 547 482 556 z m 746 1032 b 731 1004 744 1021 739 1011 b 597 975 707 983 671 981 b 419 953 493 965 443 957 b 183 838 336 936 254 906 b 51 442 64 718 51 558 b 172 83 51 342 64 189 b 539 -26 279 -24 426 -26 b 881 76 647 -26 781 -24 b 981 344 961 157 981 258 b 849 624 981 425 967 542 b 544 697 757 686 635 697 b 328 651 478 697 400 692 b 217 531 267 618 238 575 l 206 531 b 297 719 210 642 271 697 b 528 794 360 769 450 785 l 626 806 b 874 885 721 817 817 828 b 926 1032 906 918 928 972 z "},"в":{"ha":939,"x_min":0,"x_max":0,"o":"m 329 296 l 503 296 b 594 285 546 296 572 294 b 640 222 622 274 640 257 b 601 154 640 182 617 164 b 506 139 574 143 529 139 l 329 139 z m 329 569 l 499 569 b 579 556 554 569 575 557 b 611 496 590 549 611 533 b 581 440 611 461 590 446 b 471 424 560 426 497 424 l 329 424 z m 85 706 l 85 0 l 594 0 b 838 60 682 0 774 0 b 889 197 860 81 889 124 b 839 317 889 240 878 282 b 711 367 806 346 756 363 l 711 374 b 811 419 743 379 785 393 b 853 535 829 438 853 474 b 776 674 853 603 822 647 b 581 706 728 701 664 706 z "},"г":{"ha":710,"x_min":0,"x_max":0,"o":"m 329 542 l 690 542 l 690 706 l 85 706 l 85 0 l 329 0 z "},"д":{"ha":1031,"x_min":0,"x_max":0,"o":"m 663 550 l 663 156 l 329 156 b 401 324 364 213 389 268 b 421 503 414 374 421 440 l 421 550 z m 0 156 l 14 -183 l 201 -183 l 201 0 l 815 0 l 815 -183 l 1003 -183 l 1017 156 l 899 156 l 899 706 l 218 706 l 218 593 b 196 367 218 526 217 450 b 99 156 172 272 132 201 z "},"е":{"ha":1001,"x_min":0,"x_max":0,"o":"m 306 432 b 364 543 310 486 336 521 b 501 582 407 576 451 582 b 646 540 547 582 603 578 b 696 432 667 524 692 489 z m 692 231 b 629 149 682 185 656 161 b 503 129 594 132 540 129 b 347 176 454 129 390 133 b 301 303 324 200 301 242 l 301 307 l 947 307 l 947 332 b 851 618 947 417 939 531 b 500 732 756 714 611 732 b 157 622 388 732 254 715 b 51 342 64 533 51 413 b 149 78 51 253 68 158 b 519 -26 239 -12 360 -26 b 785 11 635 -26 718 -18 b 938 231 881 54 928 140 z "},"ж":{"ha":1276,"x_min":0,"x_max":0,"o":"m 518 706 l 518 411 l 276 706 l 18 706 l 315 369 l -14 0 l 261 0 l 518 318 l 518 0 l 760 0 l 760 318 l 1017 0 l 1290 0 l 960 371 l 1260 706 l 1001 706 l 760 411 l 760 706 z "},"з":{"ha":894,"x_min":0,"x_max":0,"o":"m 31 240 l 31 235 b 133 33 31 174 44 93 b 453 -26 189 -4 276 -26 b 724 13 608 -26 681 -10 b 844 203 822 57 844 142 b 799 322 844 238 836 285 b 689 374 792 326 757 363 l 689 378 b 781 418 721 382 757 394 b 819 519 804 442 819 476 b 692 690 819 618 754 664 b 428 732 621 719 522 732 b 99 638 299 732 172 714 b 39 486 44 582 38 524 l 275 486 b 317 557 276 501 279 535 b 418 579 344 574 390 579 b 519 565 444 579 493 575 b 574 496 568 549 574 517 b 531 439 574 474 563 451 b 426 426 524 435 497 426 l 353 426 l 353 290 l 417 290 b 556 271 490 290 529 286 b 589 214 576 258 589 242 b 544 147 589 196 582 165 b 446 129 524 136 494 129 b 311 156 406 129 346 133 b 267 235 293 168 267 192 l 267 240 z "},"и":{"ha":1036,"x_min":0,"x_max":0,"o":"m 329 233 l 329 706 l 85 706 l 85 0 l 340 0 l 701 472 l 701 0 l 946 0 l 946 706 l 689 706 z "},"й":{"ha":1036,"x_min":0,"x_max":0,"o":"m 329 233 l 329 706 l 85 706 l 85 0 l 340 0 l 701 472 l 701 0 l 946 0 l 946 706 l 689 706 z m 633 1001 b 604 926 635 964 619 939 b 511 903 578 904 540 903 b 418 926 482 903 444 904 b 389 1001 403 939 388 964 l 211 1001 b 263 864 207 933 239 890 b 511 797 326 800 428 797 b 760 864 594 797 696 800 b 811 1001 783 890 815 933 z "},"к":{"ha":885,"x_min":0,"x_max":0,"o":"m 329 397 l 329 706 l 85 706 l 85 0 l 329 0 l 329 328 l 607 0 l 899 0 l 551 376 l 878 706 l 600 706 z "},"л":{"ha":968,"x_min":0,"x_max":0,"o":"m 18 1 b 117 -8 56 -8 82 -8 b 307 53 169 -8 244 -7 b 385 236 363 108 378 188 b 394 436 389 283 394 392 l 394 542 l 633 542 l 633 0 l 878 0 l 878 706 l 176 706 l 176 485 b 171 303 176 422 176 363 b 128 182 167 260 160 214 b 58 156 107 161 85 156 b 18 161 43 156 29 157 z "},"м":{"ha":1221,"x_min":0,"x_max":0,"o":"m 531 0 l 685 0 l 897 494 l 907 494 l 900 424 l 900 0 l 1131 0 l 1131 706 l 822 706 l 608 204 l 393 706 l 85 706 l 85 0 l 315 0 l 315 424 l 308 494 l 319 494 z "},"н":{"ha":999,"x_min":0,"x_max":0,"o":"m 329 288 l 664 288 l 664 0 l 908 0 l 908 706 l 664 706 l 664 451 l 329 451 l 329 706 l 85 706 l 85 0 l 329 0 z "},"о":{"ha":1028,"x_min":0,"x_max":0,"o":"m 513 574 b 663 521 557 574 618 565 b 721 353 700 483 721 424 b 663 185 721 282 700 222 b 513 132 618 140 557 132 b 363 185 468 132 407 140 b 304 353 325 222 304 282 b 363 521 304 424 325 483 b 513 574 407 565 468 574 z m 974 353 b 851 639 974 446 953 557 b 513 732 747 721 606 732 b 174 639 419 732 278 721 b 51 353 72 557 51 446 b 174 67 51 260 72 149 b 513 -26 276 -17 421 -26 b 851 67 604 -26 749 -17 b 974 353 953 149 974 260 z "},"п":{"ha":979,"x_min":0,"x_max":0,"o":"m 329 542 l 644 542 l 644 0 l 889 0 l 889 706 l 85 706 l 85 0 l 329 0 z "},"р":{"ha":1021,"x_min":0,"x_max":0,"o":"m 518 572 b 663 514 586 572 631 549 b 714 354 694 476 714 422 b 663 190 714 329 711 246 b 522 133 624 144 578 133 b 378 188 449 133 404 161 b 322 350 339 228 322 293 b 382 518 322 413 343 475 b 518 572 425 563 474 572 z m 85 706 l 85 -257 l 329 -257 l 329 75 b 424 1 351 46 386 17 b 586 -22 446 -8 490 -22 b 864 68 674 -22 779 -17 b 967 358 953 154 967 272 b 864 639 967 444 953 554 b 589 728 778 717 679 728 b 414 694 539 728 474 724 b 322 617 382 678 349 651 l 318 617 l 318 706 z "},"с":{"ha":958,"x_min":0,"x_max":0,"o":"m 906 456 b 778 672 906 514 886 611 b 488 732 738 696 653 732 b 146 615 381 732 239 715 b 51 342 100 567 51 482 b 147 74 51 189 114 107 b 494 -26 240 -19 379 -26 b 833 68 621 -26 749 -19 b 908 261 868 106 908 167 l 908 265 l 672 265 b 619 160 671 217 649 181 b 504 132 585 133 536 132 b 361 179 458 132 404 136 b 304 346 329 211 304 267 b 357 517 304 371 306 458 b 503 574 396 561 449 574 b 618 547 542 574 586 568 b 671 456 664 518 669 476 z "},"т":{"ha":799,"x_min":0,"x_max":0,"o":"m 276 542 l 276 0 l 521 0 l 521 542 l 779 542 l 779 706 l 18 706 l 18 542 z "},"у":{"ha":832,"x_min":0,"x_max":0,"o":"m 82 -246 b 222 -265 133 -262 168 -265 b 425 -200 293 -265 363 -260 b 532 -12 474 -156 500 -85 l 832 706 l 603 706 l 439 235 l 251 706 l 6 706 l 306 43 l 292 1 b 239 -83 282 -26 261 -65 b 156 -107 218 -100 188 -107 b 82 -94 146 -107 117 -106 z "},"ф":{"ha":1308,"x_min":0,"x_max":0,"o":"m 546 574 l 546 129 l 539 129 b 363 176 519 129 426 132 b 288 351 300 225 288 294 b 363 528 288 413 300 482 b 539 574 411 563 485 574 z m 760 574 l 767 574 b 943 528 821 574 894 563 b 1018 351 1006 482 1018 413 b 943 176 1018 294 1006 222 b 767 129 879 132 786 129 l 760 129 z m 536 -257 l 769 -257 l 769 -19 l 785 -19 b 1114 60 903 -19 1031 3 b 1254 351 1183 107 1254 197 b 1114 640 1254 494 1197 583 b 785 722 1006 715 856 722 l 769 722 l 769 972 l 536 972 l 536 722 l 521 722 b 192 640 447 722 301 715 b 51 351 108 583 51 494 b 192 60 51 196 122 107 b 521 -19 275 3 403 -19 l 536 -19 z "},"х":{"ha":910,"x_min":0,"x_max":0,"o":"m 468 475 l 300 706 l 11 706 l 308 363 l 0 0 l 271 0 l 443 232 l 619 0 l 910 0 l 603 365 l 899 706 l 629 706 z "},"ц":{"ha":1028,"x_min":0,"x_max":0,"o":"m 329 164 l 329 706 l 85 706 l 85 0 l 813 0 l 813 -182 l 1004 -182 l 1014 164 l 883 164 l 883 706 l 639 706 l 639 164 z "},"ч":{"ha":896,"x_min":0,"x_max":0,"o":"m 56 706 l 56 469 b 107 318 56 421 58 367 b 388 250 167 261 272 250 b 561 265 450 250 501 254 l 561 0 l 806 0 l 806 706 l 561 706 l 561 419 b 438 408 524 413 483 408 b 314 436 356 408 326 424 b 289 521 290 460 289 499 l 289 706 z "},"ш":{"ha":1463,"x_min":0,"x_max":0,"o":"m 329 164 l 329 706 l 85 706 l 85 0 l 1374 0 l 1374 706 l 1129 706 l 1129 164 l 851 164 l 851 706 l 607 706 l 607 164 z "},"щ":{"ha":1517,"x_min":0,"x_max":0,"o":"m 329 164 l 329 706 l 85 706 l 85 0 l 1304 0 l 1304 -181 l 1496 -181 l 1504 164 l 1374 164 l 1374 706 l 1129 706 l 1129 164 l 851 164 l 851 706 l 607 706 l 607 164 z "},"ъ":{"ha":1036,"x_min":0,"x_max":0,"o":"m 472 311 l 635 311 b 726 296 689 311 711 303 b 764 231 758 279 764 251 b 732 161 764 193 747 172 b 639 142 708 144 665 142 l 472 142 z m 18 542 l 228 542 l 228 0 l 704 0 b 922 47 768 0 856 3 b 1008 226 993 96 1008 165 b 938 396 1008 278 999 346 b 710 453 872 450 769 453 l 472 453 l 472 706 l 18 706 z "},"ы":{"ha":1279,"x_min":0,"x_max":0,"o":"m 329 308 l 492 308 b 583 296 510 308 561 307 b 621 229 599 289 621 272 b 589 163 621 192 604 172 b 496 144 565 147 522 144 l 329 144 z m 329 706 l 85 706 l 85 0 l 554 0 b 772 47 618 0 706 3 b 858 226 843 96 858 165 b 788 396 858 278 849 346 b 560 453 722 450 619 453 l 329 453 z m 944 706 l 944 0 l 1189 0 l 1189 706 z "},"ь":{"ha":893,"x_min":0,"x_max":0,"o":"m 329 308 l 492 308 b 583 296 510 308 561 307 b 621 229 599 289 621 272 b 589 163 621 192 604 172 b 496 144 565 147 522 144 l 329 144 z m 329 706 l 85 706 l 85 0 l 561 0 b 779 47 625 0 713 3 b 865 226 850 96 865 165 b 794 396 865 278 856 346 b 567 453 729 450 626 453 l 329 453 z "},"э":{"ha":967,"x_min":0,"x_max":0,"o":"m 365 286 l 660 286 b 610 167 658 243 642 194 b 475 128 569 129 514 128 b 339 158 432 128 379 131 b 283 256 318 174 288 201 l 47 256 l 47 253 b 175 26 47 133 113 64 b 489 -28 258 -22 371 -28 b 815 68 600 -28 722 -22 b 913 347 900 149 913 265 b 815 619 913 425 901 533 b 458 731 714 717 563 731 b 172 668 314 731 228 706 b 49 461 78 606 53 522 l 285 461 b 336 543 289 482 297 517 b 465 575 375 571 425 575 b 603 542 500 575 563 571 b 660 428 625 525 658 489 l 365 428 z "},"ю":{"ha":1417,"x_min":0,"x_max":0,"o":"m 901 581 b 1047 529 974 581 1021 556 b 1110 358 1086 492 1110 429 b 1047 179 1110 292 1090 222 b 904 126 1004 136 954 126 b 756 176 850 126 799 133 b 693 347 703 226 693 296 b 756 526 693 431 718 489 b 901 581 804 575 861 581 z m 329 446 l 329 706 l 85 706 l 85 0 l 329 0 l 329 293 l 456 293 b 553 82 465 188 515 119 b 913 -26 653 -18 778 -26 b 1265 90 1025 -26 1161 -18 b 1363 353 1317 144 1363 226 b 1257 618 1363 486 1311 567 b 894 733 1186 683 1071 733 b 578 636 799 733 669 717 b 467 446 553 615 489 551 z "},"я":{"ha":942,"x_min":0,"x_max":0,"o":"m 607 564 l 607 383 l 453 383 b 333 411 371 383 343 401 b 308 474 317 426 308 447 b 332 533 308 500 317 518 b 464 564 364 563 421 564 z m 493 242 l 607 242 l 607 0 l 851 0 l 851 706 l 374 706 b 163 654 308 706 224 697 b 75 471 90 603 75 528 b 125 325 75 439 78 372 b 272 261 158 290 221 267 l 51 0 l 317 0 z "},"ё":{"ha":1001,"x_min":0,"x_max":0,"o":"m 306 432 b 364 543 310 486 336 521 b 501 582 407 576 451 582 b 646 540 547 582 603 578 b 696 432 667 524 692 489 z m 692 231 b 629 149 682 185 656 161 b 503 129 594 132 540 129 b 347 176 454 129 390 133 b 301 303 324 200 301 242 l 301 307 l 947 307 l 947 332 b 851 618 947 417 939 531 b 500 732 756 714 611 732 b 157 622 388 732 254 715 b 51 342 64 533 51 413 b 149 78 51 253 68 158 b 519 -26 239 -12 360 -26 b 785 11 635 -26 718 -18 b 938 231 881 54 928 140 z m 569 829 l 807 829 l 807 983 l 569 983 z m 174 829 l 411 829 l 411 983 l 174 983 z "},"ђ":{"ha":1051,"x_min":0,"x_max":0,"o":"m 143 972 l 143 886 l 0 886 l 0 783 l 143 783 l 143 0 l 389 0 l 389 328 b 449 507 389 378 400 454 b 567 554 479 539 518 554 b 674 507 606 554 646 544 b 713 239 696 472 713 414 b 647 -67 713 61 692 -26 b 529 -104 621 -89 579 -104 l 521 -104 l 521 -262 l 540 -262 b 861 -167 632 -262 769 -262 b 965 272 954 -69 965 97 b 868 650 965 415 953 574 b 639 718 803 713 697 718 b 478 688 585 718 533 715 b 389 617 450 672 418 651 l 389 783 l 740 783 l 740 886 l 389 886 l 389 972 z "},"ѓ":{"ha":710,"x_min":0,"x_max":0,"o":"m 329 542 l 690 542 l 690 706 l 85 706 l 85 0 l 329 0 z m 351 989 l 240 789 l 404 789 l 581 989 z "},"є":{"ha":968,"x_min":0,"x_max":0,"o":"m 599 290 l 599 426 l 304 426 b 364 539 310 486 342 522 b 493 575 407 571 454 575 b 614 550 532 575 576 572 b 675 456 663 521 671 482 l 914 456 b 797 665 914 525 897 603 b 485 731 749 696 661 731 b 147 618 389 731 246 721 b 51 346 65 533 51 435 b 158 67 51 263 69 149 b 486 -28 250 -22 372 -28 b 788 26 597 -28 706 -22 b 918 258 847 64 914 133 l 679 258 b 626 158 674 214 653 176 b 490 128 586 129 517 128 b 357 168 442 128 396 135 b 304 290 335 189 303 228 z "},"ѕ":{"ha":868,"x_min":0,"x_max":0,"o":"m 42 222 l 42 219 b 107 56 42 181 47 115 b 456 -28 185 -18 307 -28 b 767 60 574 -28 689 -21 b 824 210 801 97 824 144 b 756 358 824 283 793 329 b 568 424 704 399 617 417 l 474 438 b 331 465 403 449 363 450 b 289 517 315 472 289 485 b 329 574 289 538 301 558 b 421 589 351 585 389 589 b 517 572 450 589 490 585 b 557 514 543 560 557 540 l 557 511 l 790 511 b 668 696 789 594 757 656 b 419 733 636 707 575 733 b 156 682 285 733 207 714 b 49 500 85 642 49 585 b 125 350 49 446 64 388 b 318 299 157 329 203 315 l 401 286 b 521 263 451 279 488 275 b 574 200 543 253 574 239 b 535 144 574 185 568 161 b 436 128 519 135 492 128 b 326 146 363 128 336 142 b 281 218 306 157 281 179 l 281 222 z "},"і":{"ha":419,"x_min":0,"x_max":0,"o":"m 85 818 l 329 818 l 329 982 l 85 982 z m 85 706 l 85 0 l 329 0 l 329 706 z "},"ї":{"ha":419,"x_min":0,"x_max":0,"o":"m 235 818 l 401 818 l 401 982 l 235 982 z m 18 818 l 185 818 l 185 982 l 18 982 z m 88 706 l 88 0 l 332 0 l 332 706 z "},"ј":{"ha":431,"x_min":0,"x_max":0,"o":"m 96 818 l 340 818 l 340 982 l 96 982 z m 96 706 l 96 54 b 71 -76 96 -6 93 -53 b 1 -100 50 -99 18 -100 b -40 -96 -12 -100 -26 -99 l -40 -249 b 89 -261 3 -258 39 -261 b 276 -204 138 -261 222 -258 b 340 -3 336 -144 340 -56 l 340 706 z "},"љ":{"ha":1431,"x_min":0,"x_max":0,"o":"m 872 308 l 1035 308 b 1126 296 1053 308 1104 307 b 1164 229 1142 289 1164 272 b 1132 163 1164 192 1147 172 b 1039 144 1108 147 1065 144 l 872 144 z m 1099 0 b 1317 47 1163 0 1250 3 b 1403 226 1388 96 1403 165 b 1332 396 1403 278 1393 346 b 1104 453 1267 450 1164 453 l 872 453 l 872 706 l 176 706 l 176 485 b 171 303 176 422 176 363 b 128 182 167 260 160 214 b 58 156 107 161 85 156 b 18 161 43 156 29 157 l 18 1 b 117 -8 56 -8 82 -8 b 307 53 169 -8 244 -7 b 385 236 363 108 378 188 b 394 436 389 283 394 392 l 394 542 l 628 542 l 628 0 z "},"њ":{"ha":1461,"x_min":0,"x_max":0,"o":"m 903 306 l 1063 306 b 1154 293 1081 306 1132 304 b 1192 226 1167 286 1192 269 b 1160 163 1192 188 1171 169 b 1067 144 1136 147 1093 144 l 903 144 z m 1129 0 b 1347 47 1193 0 1281 3 b 1433 226 1418 96 1433 165 b 1363 396 1433 278 1424 346 b 1135 453 1297 450 1194 453 l 903 453 l 903 706 l 658 706 l 658 453 l 329 453 l 329 706 l 85 706 l 85 0 l 329 0 l 329 306 l 658 306 l 658 0 z "},"ћ":{"ha":1044,"x_min":0,"x_max":0,"o":"m 144 886 l 0 886 l 0 783 l 144 783 l 144 0 l 389 0 l 389 319 b 442 515 389 381 394 460 b 568 565 476 554 519 565 b 676 526 628 565 660 543 b 714 382 714 486 714 426 l 714 0 l 958 0 l 958 442 b 853 682 958 522 944 622 b 646 729 801 714 725 729 b 482 701 608 729 539 728 b 389 629 439 683 411 658 l 389 783 l 739 783 l 739 886 l 389 886 l 389 972 l 144 972 z "},"ќ":{"ha":885,"x_min":0,"x_max":0,"o":"m 329 397 l 329 706 l 85 706 l 85 0 l 329 0 l 329 328 l 607 0 l 899 0 l 551 376 l 878 706 l 600 706 z m 451 989 l 340 789 l 504 789 l 681 989 z "},"ў":{"ha":832,"x_min":0,"x_max":0,"o":"m 82 -246 b 222 -265 133 -262 168 -265 b 425 -200 293 -265 363 -260 b 532 -12 474 -156 500 -85 l 832 706 l 603 706 l 439 235 l 251 706 l 6 706 l 306 43 l 292 1 b 239 -83 282 -26 261 -65 b 156 -107 218 -100 188 -107 b 82 -94 146 -107 117 -106 z m 538 1001 b 508 926 539 964 524 939 b 415 903 482 904 444 903 b 322 926 386 903 349 904 b 293 1001 307 939 292 964 l 115 1001 b 167 864 111 933 143 890 b 415 797 231 800 332 797 b 664 864 499 797 600 800 b 715 1001 688 890 719 933 z "},"џ":{"ha":981,"x_min":0,"x_max":0,"o":"m 329 164 l 329 706 l 85 706 l 85 0 l 392 0 l 392 -237 l 583 -237 l 583 0 l 890 0 l 890 706 l 646 706 l 646 164 z "},"Ѣ":{"ha":1239,"x_min":0,"x_max":0,"o":"m 510 431 l 763 431 b 883 406 785 431 846 428 b 929 310 924 378 929 333 b 896 222 929 261 911 238 b 758 186 858 185 804 186 l 510 186 z m 510 972 l 254 972 l 254 879 l 18 879 l 18 732 l 254 732 l 254 0 l 786 0 b 1101 72 964 0 1051 33 b 1204 314 1146 106 1204 176 b 1090 546 1204 386 1186 479 b 775 611 1029 589 936 611 l 510 611 l 510 732 l 833 732 l 833 879 l 510 879 z "},"ѣ":{"ha":1022,"x_min":0,"x_max":0,"o":"m 458 308 l 621 308 b 713 296 639 308 690 307 b 750 229 728 289 750 272 b 718 163 750 192 733 172 b 625 144 694 147 651 144 l 458 144 z m 458 972 l 214 972 l 214 706 l 18 706 l 18 567 l 214 567 l 214 0 l 689 0 b 910 44 806 0 869 18 b 994 235 988 96 994 186 b 915 404 994 281 986 351 b 688 453 849 453 750 453 l 458 453 l 458 567 l 721 567 l 721 706 l 458 706 z "},"Ѳ":{"ha":1276,"x_min":0,"x_max":0,"o":"m 1214 486 b 1061 858 1214 603 1190 740 b 636 1000 989 924 858 1000 b 211 858 414 1000 283 924 b 58 486 82 740 58 603 b 211 114 58 372 81 229 b 636 -28 283 49 414 -28 b 1061 114 858 -28 989 49 b 1214 486 1192 229 1214 372 z m 926 415 b 844 232 922 338 889 272 b 640 167 782 175 703 167 b 428 235 575 167 493 175 b 346 415 407 253 350 314 z m 347 574 b 421 732 354 639 382 694 b 636 806 458 769 521 806 b 847 739 731 806 803 779 b 925 574 885 706 919 647 z "},"ѳ":{"ha":1028,"x_min":0,"x_max":0,"o":"m 974 353 b 851 639 974 446 953 557 b 513 732 747 721 606 732 b 174 639 419 732 278 721 b 51 353 72 557 51 446 b 174 67 51 260 72 149 b 513 -26 276 -17 421 -26 b 851 67 604 -26 749 -17 b 974 353 953 149 974 260 z m 718 296 b 657 171 711 219 668 178 b 510 126 613 133 554 126 b 358 179 456 126 403 136 b 304 296 338 197 310 236 z m 306 415 b 356 526 310 461 329 500 b 510 579 404 575 471 579 b 667 529 543 579 619 576 b 715 415 693 503 711 464 z "},"Ѵ":{"ha":1101,"x_min":0,"x_max":0,"o":"m 524 254 l 519 254 l 275 972 l -12 972 l 381 0 l 668 0 l 914 658 b 972 761 924 686 949 738 b 1057 794 999 788 1025 794 b 1115 785 1078 794 1100 789 l 1115 976 b 997 989 1072 988 1042 989 b 781 917 939 989 851 985 b 681 736 774 910 718 854 z "},"ѵ":{"ha":849,"x_min":0,"x_max":0,"o":"m 397 203 l 236 706 l -12 706 l 276 0 l 515 0 l 692 443 b 742 528 704 475 718 506 b 811 554 763 549 783 554 b 863 549 824 554 842 554 l 863 704 b 754 715 824 714 792 715 b 585 653 700 715 639 710 b 508 508 547 614 529 563 z "},"Ґ":{"ha":899,"x_min":0,"x_max":0,"o":"m 360 772 l 879 772 l 868 1192 l 658 1192 l 658 972 l 104 972 l 104 0 l 360 0 z "},"ґ":{"ha":753,"x_min":0,"x_max":0,"o":"m 329 547 l 733 547 l 722 890 l 554 890 l 554 706 l 85 706 l 85 0 l 329 0 z "},"Ғ":{"ha":994,"x_min":0,"x_max":0,"o":"m 464 772 l 975 772 l 975 972 l 208 972 l 208 556 l 57 556 l 57 378 l 208 378 l 208 0 l 464 0 l 464 378 l 763 378 l 763 556 l 464 556 z "},"ғ":{"ha":806,"x_min":0,"x_max":0,"o":"m 425 542 l 786 542 l 786 706 l 181 706 l 181 401 l 65 401 l 65 256 l 181 256 l 181 0 l 425 0 l 425 256 l 626 256 l 626 401 l 425 401 z "},"Җ":{"ha":1668,"x_min":0,"x_max":0,"o":"m 667 0 l 922 0 l 922 449 l 1293 0 l 1421 0 l 1421 -208 l 1629 -208 l 1643 200 l 1426 200 l 1142 525 l 1582 972 l 1281 972 l 922 578 l 922 972 l 667 972 l 667 578 l 308 972 l 7 972 l 449 525 l -12 0 l 297 0 l 667 449 z "},"җ":{"ha":1322,"x_min":0,"x_max":0,"o":"m 518 706 l 518 411 l 276 706 l 18 706 l 315 369 l -14 0 l 261 0 l 518 318 l 518 0 l 760 0 l 760 318 l 1017 0 l 1121 0 l 1121 -182 l 1313 -182 l 1322 164 l 1144 164 l 960 371 l 1260 706 l 1001 706 l 760 411 l 760 706 z "},"Ҙ":{"ha":1114,"x_min":0,"x_max":0,"o":"m 49 322 b 188 43 42 175 118 88 b 451 -24 268 -8 394 -24 l 451 -293 l 676 -293 l 676 -22 b 893 22 726 -22 826 -11 b 1043 278 944 49 1043 115 b 975 439 1043 333 1029 390 b 826 500 940 471 888 494 l 826 507 b 953 560 875 511 921 531 b 1007 706 999 604 1007 665 b 925 896 1007 788 982 846 b 525 997 847 963 721 997 b 188 922 333 997 236 956 b 49 672 78 853 49 751 l 313 672 b 375 776 313 699 324 747 b 525 806 415 800 481 806 b 663 783 563 806 622 801 b 733 688 719 757 733 714 b 678 597 733 668 729 624 b 528 576 646 582 604 576 l 435 576 l 435 401 l 533 401 b 685 385 621 401 658 394 b 754 292 733 368 754 340 b 689 188 754 236 721 204 b 539 163 646 167 576 163 b 378 197 493 163 419 169 b 315 322 350 215 311 253 z "},"ҙ":{"ha":894,"x_min":0,"x_max":0,"o":"m 31 240 l 31 235 b 133 33 31 174 44 93 b 350 -24 200 -11 297 -19 l 350 -237 l 542 -237 l 542 -24 b 724 13 572 -24 661 -17 b 844 203 822 57 844 142 b 799 322 844 238 836 285 b 689 374 792 326 757 363 l 689 378 b 781 418 721 382 757 394 b 819 519 804 442 819 476 b 692 690 819 618 754 664 b 428 732 621 719 522 732 b 99 638 299 732 172 714 b 39 486 44 582 38 524 l 275 486 b 317 557 276 501 279 535 b 418 579 344 574 390 579 b 519 565 444 579 493 575 b 574 496 568 549 574 517 b 531 439 574 474 563 451 b 426 426 524 435 497 426 l 353 426 l 353 290 l 417 290 b 556 271 490 290 529 286 b 589 214 576 258 589 242 b 544 147 589 196 582 165 b 446 129 524 136 494 129 b 311 156 406 129 346 133 b 267 235 293 168 267 192 l 267 240 z "},"Қ":{"ha":1125,"x_min":0,"x_max":0,"o":"m 360 554 l 360 972 l 104 972 l 104 0 l 360 0 l 360 485 l 769 0 l 875 0 l 875 -208 l 1083 -208 l 1097 200 l 903 200 l 603 519 l 1063 972 l 757 972 z "},"қ":{"ha":931,"x_min":0,"x_max":0,"o":"m 329 397 l 329 706 l 85 706 l 85 0 l 329 0 l 329 328 l 607 0 l 715 0 l 715 -182 l 907 -182 l 917 164 l 747 164 l 551 376 l 878 706 l 600 706 z "},"Ҝ":{"ha":1281,"x_min":0,"x_max":0,"o":"m 360 608 l 360 972 l 104 972 l 104 0 l 360 0 l 360 414 l 465 414 l 465 228 l 615 228 l 615 414 l 624 414 l 974 0 l 1294 0 l 807 519 l 1267 972 l 961 972 l 615 608 l 615 847 l 465 847 l 465 608 z "},"ҝ":{"ha":1068,"x_min":0,"x_max":0,"o":"m 329 451 l 329 706 l 85 706 l 85 0 l 329 0 l 329 288 l 419 288 l 419 101 l 560 101 l 560 272 l 790 0 l 1082 0 l 735 376 l 1061 706 l 783 706 l 560 451 l 560 635 l 419 635 l 419 451 z "},"Ҡ":{"ha":1297,"x_min":0,"x_max":0,"o":"m 581 554 l 581 972 l 18 972 l 18 785 l 325 785 l 325 0 l 581 0 l 581 485 l 990 0 l 1311 0 l 824 519 l 1283 972 l 978 972 z "},"ҡ":{"ha":1008,"x_min":0,"x_max":0,"o":"m 8 542 l 208 542 l 208 0 l 453 0 l 453 328 l 731 0 l 1022 0 l 675 376 l 1001 706 l 724 706 l 453 397 l 453 706 l 8 706 z "},"Ң":{"ha":1260,"x_min":0,"x_max":0,"o":"m 1229 -208 l 1243 200 l 1076 200 l 1076 972 l 821 972 l 821 608 l 360 608 l 360 972 l 104 972 l 104 0 l 360 0 l 360 414 l 821 414 l 821 0 l 1007 0 l 1007 -208 z "},"ң":{"ha":1053,"x_min":0,"x_max":0,"o":"m 329 289 l 664 289 l 664 0 l 842 0 l 842 -182 l 1028 -182 l 1039 158 l 908 158 l 908 706 l 664 706 l 664 450 l 329 450 l 329 706 l 85 706 l 85 0 l 329 0 z "},"Ҫ":{"ha":1175,"x_min":0,"x_max":0,"o":"m 869 340 b 797 203 865 269 829 225 b 628 165 747 168 678 165 b 419 236 561 165 485 174 b 336 482 376 279 336 354 b 417 728 336 611 378 685 b 626 804 482 796 556 804 b 790 765 678 804 736 799 b 863 646 840 733 858 694 l 1129 646 b 989 913 1125 796 1040 879 b 608 999 871 993 676 999 b 193 853 486 999 319 979 b 58 481 85 740 58 604 b 199 106 58 369 81 217 b 492 -22 269 39 374 -12 l 492 -293 l 717 -293 l 717 -28 b 982 47 803 -24 911 -1 b 1136 340 1047 90 1129 192 z "},"ҫ":{"ha":958,"x_min":0,"x_max":0,"o":"m 906 456 b 778 672 906 514 886 611 b 488 732 738 696 653 732 b 146 615 381 732 239 715 b 51 342 100 567 51 482 b 147 74 51 207 99 122 b 386 -22 210 13 308 -18 l 386 -237 l 578 -237 l 578 -24 b 833 68 718 -19 793 28 b 908 261 868 106 908 167 l 908 265 l 672 265 b 619 160 671 217 649 181 b 504 132 585 133 536 132 b 361 179 458 132 404 136 b 304 346 329 211 304 267 b 357 517 304 371 306 458 b 503 574 396 561 449 574 b 618 547 542 574 586 568 b 671 456 664 518 669 476 z "},"Ү":{"ha":1049,"x_min":0,"x_max":0,"o":"m 536 557 l 290 972 l -12 972 l 397 371 l 397 0 l 653 0 l 653 371 l 1063 972 l 779 972 z "},"ү":{"ha":847,"x_min":0,"x_max":0,"o":"m 633 706 l 435 201 l 235 706 l -12 706 l 303 19 l 303 -282 l 547 -282 l 547 19 l 861 706 z "},"Ұ":{"ha":1049,"x_min":0,"x_max":0,"o":"m 536 557 l 290 972 l -12 972 l 383 392 l 172 392 l 172 244 l 397 244 l 397 0 l 653 0 l 653 244 l 878 244 l 878 392 l 667 392 l 1063 972 l 779 972 z "},"ұ":{"ha":847,"x_min":0,"x_max":0,"o":"m 633 706 l 435 201 l 235 706 l -12 706 l 264 103 l 56 103 l 56 0 l 303 0 l 303 -282 l 547 -282 l 547 0 l 794 0 l 794 103 l 585 103 l 861 706 z "},"Ҳ":{"ha":1188,"x_min":0,"x_max":0,"o":"m 571 650 l 332 972 l 19 972 l 399 504 l 0 0 l 311 0 l 551 332 l 783 0 l 940 0 l 940 -208 l 1160 -208 l 1174 200 l 953 200 l 715 504 l 1103 972 l 810 972 z "},"ҳ":{"ha":954,"x_min":0,"x_max":0,"o":"m 468 475 l 300 706 l 11 706 l 308 363 l 0 0 l 271 0 l 443 232 l 619 0 l 753 0 l 753 -182 l 944 -182 l 954 164 l 772 164 l 603 365 l 899 706 l 629 706 z "},"Ҷ":{"ha":1225,"x_min":0,"x_max":0,"o":"m 67 972 l 67 675 b 136 460 67 606 69 522 b 507 375 218 381 382 375 b 718 390 586 375 642 378 l 718 0 l 929 0 l 929 -208 l 1153 -208 l 1167 200 l 974 200 l 974 972 l 718 972 l 718 585 b 542 569 658 572 610 569 b 360 611 425 569 382 590 b 322 729 325 644 322 696 l 322 972 z "},"ҷ":{"ha":994,"x_min":0,"x_max":0,"o":"m 56 706 l 56 469 b 107 318 56 421 58 367 b 388 250 167 261 272 250 b 561 265 450 250 501 254 l 561 0 l 747 0 l 747 -182 l 939 -182 l 949 164 l 806 164 l 806 706 l 561 706 l 561 419 b 438 408 524 413 483 408 b 314 436 356 408 326 424 b 289 521 290 460 289 499 l 289 706 z "},"Ҹ":{"ha":1118,"x_min":0,"x_max":0,"o":"m 67 972 l 67 675 b 136 460 67 606 69 522 b 463 376 221 379 400 376 l 463 193 l 613 193 l 613 376 b 753 390 656 378 703 381 l 753 0 l 1008 0 l 1008 972 l 753 972 l 753 585 b 613 569 707 575 661 569 l 613 813 l 463 813 l 463 575 b 360 611 440 576 389 583 b 322 729 325 644 322 696 l 322 972 z "},"ҹ":{"ha":953,"x_min":0,"x_max":0,"o":"m 56 706 l 56 469 b 107 318 56 421 58 367 b 383 250 169 256 306 246 l 383 101 l 524 101 l 524 254 b 618 265 557 254 589 258 l 618 0 l 863 0 l 863 706 l 618 706 l 618 419 b 524 410 589 413 558 410 l 524 635 l 383 635 l 383 414 b 314 436 360 410 331 419 b 289 521 290 460 289 497 l 289 706 z "},"Һ":{"ha":1099,"x_min":0,"x_max":0,"o":"m 1032 0 l 1032 331 b 964 525 1032 382 1026 463 b 592 628 886 607 736 628 b 365 608 499 628 422 618 l 365 972 l 110 972 l 110 0 l 365 0 l 365 418 b 540 433 436 433 481 433 b 738 385 597 433 685 433 b 776 269 776 347 776 303 l 776 0 z "},"һ":{"ha":985,"x_min":0,"x_max":0,"o":"m 85 972 l 85 0 l 329 0 l 329 319 b 382 515 329 381 335 460 b 507 565 417 554 458 565 b 617 526 563 565 596 547 b 654 382 654 485 654 419 l 654 0 l 899 0 l 899 425 b 793 682 899 504 897 615 b 586 729 742 714 665 729 b 422 701 549 729 479 728 b 329 629 379 683 351 658 l 329 972 z "},"Ӏ":{"ha":419,"x_min":0,"x_max":0,"o":"m 85 972 l 85 0 l 329 0 l 329 972 z "},"Ӑ":{"ha":1097,"x_min":0,"x_max":0,"o":"m 401 364 l 549 728 l 699 364 z m 339 197 l 760 197 l 844 0 l 1111 0 l 675 972 l 424 972 l -12 0 l 254 0 z m 688 1246 b 651 1171 688 1197 658 1176 b 549 1149 633 1156 603 1149 b 444 1171 493 1149 463 1156 b 410 1246 429 1181 408 1203 l 232 1246 b 293 1107 232 1217 238 1157 b 549 1040 356 1047 460 1040 b 804 1107 640 1040 738 1049 b 864 1246 842 1139 865 1185 z "},"ӑ":{"ha":983,"x_min":0,"x_max":0,"o":"m 635 314 b 585 167 635 238 614 196 b 447 118 542 124 492 118 b 354 140 418 118 381 119 b 325 200 338 153 325 174 b 358 260 325 233 346 250 b 457 285 382 275 417 281 l 508 290 b 635 325 579 297 607 301 z m 346 478 b 386 554 347 521 374 544 b 492 579 421 578 472 579 b 589 560 524 579 563 575 b 633 490 626 539 633 513 b 617 444 633 474 628 456 b 488 414 596 422 553 419 l 376 404 b 118 325 303 397 186 389 b 65 186 79 288 65 240 b 147 18 65 93 110 44 b 367 -26 207 -22 296 -26 b 535 -6 421 -26 479 -24 b 644 69 581 10 615 32 l 650 69 l 665 0 l 932 0 l 932 19 b 893 47 908 24 897 40 b 882 132 892 51 882 69 l 882 446 b 822 639 882 506 881 578 b 488 732 743 722 588 732 b 167 643 360 732 246 721 b 99 478 124 600 99 549 z m 614 1001 b 585 926 615 964 600 939 b 492 903 558 904 521 903 b 399 926 463 903 425 904 b 369 1001 383 939 368 964 l 192 1001 b 243 864 188 933 219 890 b 492 797 307 800 408 797 b 740 864 575 797 676 800 b 792 1001 764 890 796 933 z "},"Ӓ":{"ha":1097,"x_min":0,"x_max":0,"o":"m 401 364 l 549 728 l 699 364 z m 339 197 l 760 197 l 844 0 l 1111 0 l 675 972 l 424 972 l -12 0 l 254 0 z m 621 1064 l 836 1064 l 836 1218 l 621 1218 z m 256 1064 l 469 1064 l 469 1218 l 256 1218 z "},"ӓ":{"ha":983,"x_min":0,"x_max":0,"o":""},"Ӕ":{"ha":1740,"x_min":0,"x_max":0,"o":"m 814 361 l 519 361 l 782 744 l 814 744 z m 411 194 l 814 194 l 814 0 l 1717 0 l 1717 194 l 1071 194 l 1071 403 l 1604 403 l 1604 586 l 1071 586 l 1071 778 l 1701 778 l 1701 972 l 678 972 l -7 0 l 282 0 z "},"ӕ":{"ha":1574,"x_min":0,"x_max":0,"o":"m 624 315 b 572 167 624 238 599 193 b 436 118 529 124 479 118 b 342 140 415 118 368 119 b 313 201 325 153 313 175 b 343 261 313 233 328 251 b 444 288 364 276 396 282 l 496 293 b 624 328 569 300 597 306 z m 879 428 b 933 536 885 467 904 508 b 1075 582 976 575 1032 582 b 1214 540 1113 582 1174 578 b 1267 428 1240 517 1263 474 z m 1264 236 b 1203 153 1260 213 1247 179 b 1088 129 1168 132 1125 129 b 933 178 1042 129 978 135 b 879 299 901 207 883 253 l 1514 299 l 1514 318 b 1417 626 1514 417 1506 538 b 1075 732 1319 719 1179 732 b 881 696 1007 732 947 729 b 772 615 838 675 800 644 b 665 704 750 654 719 683 b 450 732 622 719 563 732 b 147 646 363 732 225 728 b 82 478 107 606 83 543 l 329 478 l 329 485 b 368 554 329 524 358 547 b 471 579 400 575 438 579 b 575 558 503 579 542 576 b 619 486 604 542 619 521 b 600 439 619 469 617 454 b 474 408 578 418 542 414 l 363 399 b 119 332 251 389 174 375 b 51 185 81 300 51 256 b 136 17 51 101 93 46 b 375 -26 188 -17 264 -26 b 593 4 453 -26 528 -22 b 733 131 671 36 711 90 b 867 10 760 81 799 39 b 1089 -26 921 -12 989 -26 b 1328 4 1171 -26 1263 -22 b 1501 236 1353 15 1490 69 z "},"Ӗ":{"ha":1039,"x_min":0,"x_max":0,"o":"m 360 586 l 360 778 l 990 778 l 990 972 l 104 972 l 104 0 l 1006 0 l 1006 194 l 360 194 l 360 403 l 893 403 l 893 586 z m 658 1246 b 622 1171 658 1197 629 1176 b 519 1149 604 1156 574 1149 b 415 1171 464 1149 433 1156 b 381 1246 400 1181 379 1203 l 203 1246 b 264 1107 203 1217 208 1157 b 519 1040 326 1047 431 1040 b 775 1107 611 1040 708 1049 b 835 1246 813 1139 836 1185 z "},"ӗ":{"ha":1001,"x_min":0,"x_max":0,"o":"m 306 432 b 364 543 310 486 336 521 b 501 582 407 576 451 582 b 646 540 547 582 603 578 b 696 432 667 524 692 489 z m 692 231 b 629 149 682 185 656 161 b 503 129 594 132 540 129 b 347 176 454 129 390 133 b 301 303 324 200 301 242 l 301 307 l 947 307 l 947 332 b 851 618 947 417 939 531 b 500 732 756 714 611 732 b 157 622 388 732 254 715 b 51 342 64 533 51 413 b 149 78 51 253 68 158 b 519 -26 239 -12 360 -26 b 785 11 635 -26 718 -18 b 938 231 881 54 928 140 z m 622 1001 b 593 926 624 964 608 939 b 500 903 567 904 529 903 b 407 926 471 903 433 904 b 378 1001 392 939 376 964 l 200 1001 b 251 864 196 933 228 890 b 500 797 315 800 417 797 b 749 864 583 797 685 800 b 800 1001 772 890 804 933 z "},"Ә":{"ha":1214,"x_min":0,"x_max":0,"o":"m 867 375 b 794 217 863 308 833 250 b 599 163 736 165 654 163 b 397 206 536 163 453 167 b 326 375 331 250 319 325 z m 331 661 b 408 765 347 718 385 750 b 576 803 432 781 481 803 b 779 757 604 803 714 801 b 867 551 801 742 878 681 l 58 551 l 58 381 b 236 36 58 189 144 92 b 622 -32 331 -19 456 -32 b 1025 101 747 -32 907 -24 b 1151 496 1143 222 1151 401 b 1026 861 1151 600 1140 750 b 586 997 896 989 676 997 b 231 921 483 997 338 988 b 64 661 160 876 86 796 z "},"ә":{"ha":1001,"x_min":0,"x_max":0,"o":"m 693 274 b 635 163 689 219 663 185 b 497 124 592 129 547 124 b 353 165 451 124 396 128 b 303 274 332 182 307 217 z m 307 475 b 369 557 317 521 343 544 b 496 576 404 574 458 576 b 651 529 544 576 608 572 b 697 403 675 506 697 464 l 697 399 l 51 399 l 51 374 b 147 88 51 289 60 175 b 499 -26 243 -8 388 -26 b 842 83 608 -26 746 -12 b 947 364 935 172 947 292 b 850 628 947 453 931 547 b 479 732 760 718 639 732 b 214 694 364 732 281 724 b 61 475 118 651 71 565 z "},"Ӛ":{"ha":1214,"x_min":0,"x_max":0,"o":"m 867 375 b 794 217 863 308 833 250 b 599 163 736 165 654 163 b 397 206 536 163 453 167 b 326 375 331 250 319 325 z m 331 661 b 408 765 347 718 385 750 b 576 803 432 781 481 803 b 779 757 604 803 714 801 b 867 551 801 742 878 681 l 58 551 l 58 381 b 236 36 58 189 144 92 b 622 -32 331 -19 456 -32 b 1025 101 747 -32 907 -24 b 1151 496 1143 222 1151 401 b 1026 861 1151 600 1140 750 b 586 997 896 989 676 997 b 231 921 483 997 338 988 b 64 661 160 876 86 796 z m 679 1064 l 894 1064 l 894 1218 l 679 1218 z m 314 1064 l 528 1064 l 528 1218 l 314 1218 z "},"ӛ":{"ha":1001,"x_min":0,"x_max":0,"o":"m 693 274 b 635 163 689 219 663 185 b 497 124 592 129 547 124 b 353 165 451 124 396 128 b 303 274 332 182 307 217 z m 307 475 b 369 557 317 521 343 544 b 496 576 404 574 458 576 b 651 529 544 576 608 572 b 697 403 675 506 697 464 l 697 399 l 51 399 l 51 374 b 147 88 51 289 60 175 b 499 -26 243 -8 388 -26 b 842 83 608 -26 746 -12 b 947 364 935 172 947 292 b 850 628 947 453 931 547 b 479 732 760 718 639 732 b 214 694 364 732 281 724 b 61 475 118 651 71 565 z m 571 829 l 786 829 l 786 983 l 571 983 z m 206 829 l 419 829 l 419 983 l 206 983 z "},"Ӝ":{"ha":1588,"x_min":0,"x_max":0,"o":"m 667 0 l 922 0 l 922 449 l 1293 0 l 1601 0 l 1142 525 l 1582 972 l 1281 972 l 922 578 l 922 972 l 667 972 l 667 578 l 308 972 l 7 972 l 449 525 l -12 0 l 297 0 l 667 449 z m 865 1064 l 1081 1064 l 1081 1218 l 865 1218 z m 500 1064 l 714 1064 l 714 1218 l 500 1218 z "},"ӝ":{"ha":1276,"x_min":0,"x_max":0,"o":"m 518 706 l 518 411 l 276 706 l 18 706 l 315 369 l -14 0 l 261 0 l 518 318 l 518 0 l 760 0 l 760 318 l 1017 0 l 1290 0 l 960 371 l 1260 706 l 1001 706 l 760 411 l 760 706 z m 708 829 l 924 829 l 924 983 l 708 983 z m 343 829 l 557 829 l 557 983 l 343 983 z "},"Ӟ":{"ha":1114,"x_min":0,"x_max":0,"o":"m 49 322 b 188 43 42 175 118 88 b 551 -26 260 -3 368 -26 b 893 22 756 -26 842 -4 b 1043 278 944 49 1043 115 b 975 439 1043 333 1029 390 b 826 500 940 471 888 494 l 826 507 b 953 560 875 511 921 531 b 1007 706 999 604 1007 665 b 925 896 1007 788 982 846 b 525 997 847 963 721 997 b 188 922 333 997 236 956 b 49 672 78 853 49 751 l 313 672 b 375 776 313 699 324 747 b 525 806 415 800 481 806 b 663 783 563 806 622 801 b 733 688 719 757 733 714 b 678 597 733 668 729 624 b 528 576 646 582 604 576 l 435 576 l 435 401 l 533 401 b 685 385 621 401 658 394 b 754 292 733 368 754 340 b 689 188 754 236 721 204 b 539 163 646 167 576 163 b 378 197 493 163 419 169 b 315 322 350 215 311 253 z m 629 1064 l 844 1064 l 844 1218 l 629 1218 z m 264 1064 l 478 1064 l 478 1218 l 264 1218 z "},"ӟ":{"ha":894,"x_min":0,"x_max":0,"o":"m 31 240 l 31 235 b 133 33 31 174 44 93 b 453 -26 189 -4 276 -26 b 724 13 608 -26 681 -10 b 844 203 822 57 844 142 b 799 322 844 238 836 285 b 689 374 792 326 757 363 l 689 378 b 781 418 721 382 757 394 b 819 519 804 442 819 476 b 692 690 819 618 754 664 b 428 732 621 719 522 732 b 99 638 299 732 172 714 b 39 486 44 582 38 524 l 275 486 b 317 557 276 501 279 535 b 418 579 344 574 390 579 b 519 565 444 579 493 575 b 574 496 568 549 574 517 b 531 439 574 474 563 451 b 426 426 524 435 497 426 l 353 426 l 353 290 l 417 290 b 556 271 490 290 529 286 b 589 214 576 258 589 242 b 544 147 589 196 582 165 b 446 129 524 136 494 129 b 311 156 406 129 346 133 b 267 235 293 168 267 192 l 267 240 z m 518 829 l 733 829 l 733 983 l 518 983 z m 153 829 l 367 829 l 367 983 l 153 983 z "},"Ӣ":{"ha":1206,"x_min":0,"x_max":0,"o":"m 360 321 l 360 972 l 104 972 l 104 0 l 363 0 l 840 657 l 840 0 l 1096 0 l 1096 972 l 839 972 z m 347 1064 l 858 1064 l 858 1190 l 347 1190 z "},"ӣ":{"ha":1036,"x_min":0,"x_max":0,"o":"m 329 233 l 329 706 l 85 706 l 85 0 l 340 0 l 701 472 l 701 0 l 946 0 l 946 706 l 689 706 z m 263 831 l 774 831 l 774 957 l 263 957 z "},"Ӥ":{"ha":1206,"x_min":0,"x_max":0,"o":"m 360 321 l 360 972 l 104 972 l 104 0 l 363 0 l 840 657 l 840 0 l 1096 0 l 1096 972 l 839 972 z m 675 1064 l 890 1064 l 890 1218 l 675 1218 z m 310 1064 l 524 1064 l 524 1218 l 310 1218 z "},"ӥ":{"ha":1036,"x_min":0,"x_max":0,"o":"m 329 233 l 329 706 l 85 706 l 85 0 l 340 0 l 701 472 l 701 0 l 946 0 l 946 706 l 689 706 z m 589 829 l 804 829 l 804 983 l 589 983 z m 224 829 l 438 829 l 438 983 l 224 983 z "},"Ӧ":{"ha":1276,"x_min":0,"x_max":0,"o":"m 636 806 b 847 731 701 806 781 796 b 936 486 928 654 936 540 b 847 242 936 432 928 318 b 636 167 781 176 701 167 b 425 242 571 167 492 176 b 336 486 344 318 336 432 b 425 731 336 540 344 654 b 636 806 492 796 571 806 z m 1214 486 b 1061 858 1214 603 1190 740 b 636 1000 989 924 858 1000 b 211 858 414 1000 283 924 b 58 486 82 740 58 603 b 211 114 58 372 81 229 b 636 -28 283 49 414 -28 b 1061 114 858 -28 989 49 b 1214 486 1192 229 1214 372 z m 710 1064 l 925 1064 l 925 1218 l 710 1218 z m 344 1064 l 558 1064 l 558 1218 l 344 1218 z "},"ӧ":{"ha":1028,"x_min":0,"x_max":0,"o":""},"Ө":{"ha":1276,"x_min":0,"x_max":0,"o":"m 1214 486 b 1061 858 1214 603 1190 740 b 636 1000 989 924 858 1000 b 211 858 414 1000 283 924 b 58 486 82 740 58 603 b 211 114 58 372 81 229 b 636 -28 283 49 414 -28 b 1061 114 858 -28 989 49 b 1214 486 1192 229 1214 372 z m 926 415 b 844 232 922 338 889 272 b 640 167 782 175 703 167 b 428 235 575 167 493 175 b 346 415 407 253 350 314 z m 347 574 b 421 732 354 639 382 694 b 636 806 458 769 521 806 b 847 739 731 806 803 779 b 925 574 885 706 919 647 z "},"ө":{"ha":1028,"x_min":0,"x_max":0,"o":"m 974 353 b 851 639 974 446 953 557 b 513 732 747 721 606 732 b 174 639 419 732 278 721 b 51 353 72 557 51 446 b 174 67 51 260 72 149 b 513 -26 276 -17 421 -26 b 851 67 604 -26 749 -17 b 974 353 953 149 974 260 z m 718 296 b 657 171 711 219 668 178 b 510 126 613 133 554 126 b 358 179 456 126 403 136 b 304 296 338 197 310 236 z m 306 415 b 356 526 310 461 329 500 b 510 579 404 575 471 579 b 667 529 543 579 619 576 b 715 415 693 503 711 464 z "},"Ӫ":{"ha":1276,"x_min":0,"x_max":0,"o":"m 1214 486 b 1061 858 1214 603 1190 740 b 636 1000 989 924 858 1000 b 211 858 414 1000 283 924 b 58 486 82 740 58 603 b 211 114 58 372 81 229 b 636 -28 283 49 414 -28 b 1061 114 858 -28 989 49 b 1214 486 1192 229 1214 372 z m 926 415 b 844 232 922 338 889 272 b 640 167 782 175 703 167 b 428 235 575 167 493 175 b 346 415 407 253 350 314 z m 347 574 b 421 732 354 639 382 694 b 636 806 458 769 521 806 b 847 739 731 806 803 779 b 925 574 885 706 919 647 z m 710 1064 l 925 1064 l 925 1218 l 710 1218 z m 344 1064 l 558 1064 l 558 1218 l 344 1218 z "},"ӫ":{"ha":1028,"x_min":0,"x_max":0,"o":"m 974 353 b 851 639 974 446 953 557 b 513 732 747 721 606 732 b 174 639 419 732 278 721 b 51 353 72 557 51 446 b 174 67 51 260 72 149 b 513 -26 276 -17 421 -26 b 851 67 604 -26 749 -17 b 974 353 953 149 974 260 z m 718 296 b 657 171 711 219 668 178 b 510 126 613 133 554 126 b 358 179 456 126 403 136 b 304 296 338 197 310 236 z m 306 415 b 356 526 310 461 329 500 b 510 579 404 575 471 579 b 667 529 543 579 619 576 b 715 415 693 503 711 464 z m 585 829 l 800 829 l 800 983 l 585 983 z m 219 829 l 433 829 l 433 983 l 219 983 z "},"Ӯ":{"ha":957,"x_min":0,"x_max":0,"o":"m 510 476 l 285 972 l 6 972 l 360 289 l 349 263 b 297 194 339 242 329 213 b 214 176 271 178 242 176 b 117 196 185 176 154 179 l 117 6 b 282 -18 183 -18 236 -18 b 510 56 364 -18 439 -12 b 617 228 536 79 567 122 l 971 972 l 715 972 z m 222 1064 l 733 1064 l 733 1190 l 222 1190 z "},"ӯ":{"ha":832,"x_min":0,"x_max":0,"o":"m 82 -246 b 222 -265 133 -262 168 -265 b 425 -200 293 -265 363 -260 b 532 -12 474 -156 500 -85 l 832 706 l 603 706 l 439 235 l 251 706 l 6 706 l 306 43 l 292 1 b 239 -83 282 -26 261 -65 b 156 -107 218 -100 188 -107 b 82 -94 146 -107 117 -106 z m 160 831 l 671 831 l 671 957 l 160 957 z "},"Ӱ":{"ha":957,"x_min":0,"x_max":0,"o":"m 510 476 l 285 972 l 6 972 l 360 289 l 349 263 b 297 194 339 242 329 213 b 214 176 271 178 242 176 b 117 196 185 176 154 179 l 117 6 b 282 -18 183 -18 236 -18 b 510 56 364 -18 439 -12 b 617 228 536 79 567 122 l 971 972 l 715 972 z m 568 1064 l 783 1064 l 783 1218 l 568 1218 z m 203 1064 l 417 1064 l 417 1218 l 203 1218 z "},"ӱ":{"ha":832,"x_min":0,"x_max":0,"o":"m 82 -246 b 222 -265 133 -262 168 -265 b 425 -200 293 -265 363 -260 b 532 -12 474 -156 500 -85 l 832 706 l 603 706 l 439 235 l 251 706 l 6 706 l 306 43 l 292 1 b 239 -83 282 -26 261 -65 b 156 -107 218 -100 188 -107 b 82 -94 146 -107 117 -106 z m 486 829 l 701 829 l 701 983 l 486 983 z m 121 829 l 335 829 l 335 983 l 121 983 z "},"Ӳ":{"ha":957,"x_min":0,"x_max":0,"o":"m 510 476 l 285 972 l 6 972 l 360 289 l 349 263 b 297 194 339 242 329 213 b 214 176 271 178 242 176 b 117 196 185 176 154 179 l 117 6 b 282 -18 183 -18 236 -18 b 510 56 364 -18 439 -12 b 617 228 536 79 567 122 l 971 972 l 715 972 z m 654 1256 l 551 1064 l 719 1064 l 881 1256 z m 346 1256 l 243 1064 l 403 1064 l 563 1256 z "},"ӳ":{"ha":832,"x_min":0,"x_max":0,"o":"m 82 -246 b 222 -265 133 -262 168 -265 b 425 -200 293 -265 363 -260 b 532 -12 474 -156 500 -85 l 832 706 l 603 706 l 439 235 l 251 706 l 6 706 l 306 43 l 292 1 b 239 -83 282 -26 261 -65 b 156 -107 218 -100 188 -107 b 82 -94 146 -107 117 -106 z m 571 990 l 468 799 l 636 799 l 797 990 z m 263 990 l 160 799 l 319 799 l 479 990 z "},"Ӵ":{"ha":1083,"x_min":0,"x_max":0,"o":"m 67 972 l 67 675 b 136 460 67 606 69 522 b 507 375 218 381 382 375 b 718 390 586 375 642 378 l 718 0 l 974 0 l 974 972 l 718 972 l 718 585 b 542 569 658 572 610 569 b 360 611 425 569 382 590 b 322 729 325 644 322 696 l 322 972 z m 614 1064 l 829 1064 l 829 1218 l 614 1218 z m 249 1064 l 463 1064 l 463 1218 l 249 1218 z "},"ӵ":{"ha":896,"x_min":0,"x_max":0,"o":"m 56 706 l 56 469 b 107 318 56 421 58 367 b 388 250 167 261 272 250 b 561 265 450 250 501 254 l 561 0 l 806 0 l 806 706 l 561 706 l 561 419 b 438 408 524 413 483 408 b 314 436 356 408 326 424 b 289 521 290 460 289 499 l 289 706 z m 518 829 l 733 829 l 733 983 l 518 983 z m 153 829 l 367 829 l 367 983 l 153 983 z "},"Ӹ":{"ha":1499,"x_min":0,"x_max":0,"o":"m 360 431 l 615 431 b 739 403 653 431 706 429 b 782 315 763 386 782 356 b 740 218 782 272 764 239 b 611 186 701 188 638 186 l 360 186 z m 360 972 l 104 972 l 104 0 l 618 0 b 910 56 685 0 831 4 b 1036 313 969 93 1036 168 b 939 535 1036 379 1024 469 b 650 611 853 601 735 611 l 360 611 z m 1133 972 l 1133 0 l 1389 0 l 1389 972 z m 821 1064 l 1036 1064 l 1036 1218 l 821 1218 z m 456 1064 l 669 1064 l 669 1218 l 456 1218 z "},"ӹ":{"ha":1279,"x_min":0,"x_max":0,"o":"m 329 308 l 492 308 b 583 296 510 308 561 307 b 621 229 599 289 621 272 b 589 163 621 192 604 172 b 496 144 565 147 522 144 l 329 144 z m 329 706 l 85 706 l 85 0 l 554 0 b 772 47 618 0 706 3 b 858 226 843 96 858 165 b 788 396 858 278 849 346 b 560 453 722 450 619 453 l 329 453 z m 944 706 l 944 0 l 1189 0 l 1189 706 z m 710 829 l 925 829 l 925 983 l 710 983 z m 344 829 l 558 829 l 558 983 l 344 983 z "},"ẞ":{"ha":2119,"x_min":0,"x_max":0,"o":"m 1103 315 l 1103 310 b 1182 86 1103 251 1111 161 b 1611 -28 1282 -18 1456 -28 b 1954 47 1813 -28 1903 11 b 2068 283 2015 92 2068 165 b 1969 496 2068 351 2051 435 b 1722 576 1904 544 1810 561 l 1611 594 b 1444 629 1508 610 1471 618 b 1375 703 1413 640 1375 658 b 1424 788 1375 736 1392 767 b 1557 814 1457 808 1508 814 b 1713 788 1593 814 1667 810 b 1771 699 1756 765 1767 733 l 2029 699 b 1899 935 2033 771 2014 868 b 1560 1000 1833 974 1736 1000 b 1242 931 1458 1000 1339 990 b 1108 682 1153 875 1108 794 b 1163 526 1108 599 1140 553 b 1454 421 1225 457 1347 436 l 1594 399 b 1729 367 1629 392 1700 378 b 1797 283 1789 343 1797 306 b 1733 186 1797 250 1776 208 b 1594 164 1707 171 1668 164 b 1407 217 1544 164 1456 168 b 1369 310 1386 235 1369 264 l 1369 315 z m 49 315 l 49 310 b 128 86 49 251 57 161 b 557 -28 228 -18 401 -28 b 900 47 758 -28 849 11 b 1014 283 961 92 1014 165 b 915 496 1014 351 997 435 b 668 576 850 544 756 561 l 557 594 b 390 629 454 610 417 618 b 321 703 358 640 321 658 b 369 788 321 736 338 767 b 503 814 403 808 454 814 b 658 788 539 814 613 810 b 717 699 701 765 713 733 l 975 699 b 844 935 979 771 960 868 b 506 1000 779 974 682 1000 b 188 931 404 1000 285 990 b 54 682 99 875 54 794 b 108 526 54 599 86 553 b 400 421 171 457 293 436 l 540 399 b 675 367 575 392 646 378 b 743 283 735 343 743 306 b 679 186 743 250 722 208 b 540 164 653 171 614 164 b 353 217 490 164 401 168 b 315 310 332 235 315 264 l 315 315 z "},"‐":{"ha":790,"x_min":0,"x_max":0,"o":"m 111 321 l 679 321 l 679 494 l 111 494 z "},"‑":{"ha":790,"x_min":0,"x_max":0,"o":"m 111 321 l 679 321 l 679 494 l 111 494 z "},"‒":{"ha":990,"x_min":0,"x_max":0,"o":"m 69 544 l 69 450 l 921 450 l 921 544 z "},"–":{"ha":990,"x_min":0,"x_max":0,"o":"m 69 418 l 69 324 l 921 324 l 921 418 z "},"—":{"ha":1279,"x_min":0,"x_max":0,"o":"m 69 324 l 1210 324 l 1210 418 l 69 418 z "},"―":{"ha":2014,"x_min":0,"x_max":0,"o":"m 69 288 l 1944 288 l 1944 451 l 69 451 z "},"‘":{"ha":542,"x_min":0,"x_max":0,"o":"m 386 774 l 261 774 l 261 785 b 294 872 261 836 282 861 b 382 899 315 889 356 899 l 386 899 l 386 999 l 382 999 b 201 933 328 999 256 990 b 147 750 151 879 147 806 l 147 565 l 386 565 z "},"’":{"ha":542,"x_min":0,"x_max":0,"o":"m 147 792 l 272 792 l 272 781 b 239 693 272 729 251 704 b 151 667 218 676 178 667 l 147 667 l 147 567 l 151 567 b 332 632 206 567 278 575 b 386 815 382 686 386 760 l 386 1000 l 147 1000 z "},"‚":{"ha":533,"x_min":0,"x_max":0,"o":"m 147 0 l 272 0 l 272 -11 b 239 -99 272 -62 251 -87 b 151 -125 218 -115 178 -125 l 147 -125 l 147 -225 l 151 -225 b 332 -160 206 -225 278 -217 b 386 24 382 -106 386 -32 l 386 208 l 147 208 z "}}}
